<svg  xmlns="http://www.w3.org/2000/svg">
  <defs>
    
    <symbol id="envelope" viewBox="0 0 43 32">
      <path d="M38.667 0H4C1.794 0 0 1.794 0 4v24c0 2.206 1.794 4 4 4h34.667c2.206 0 4-1.794 4-4V4c0-2.206-1.794-4-4-4zm0 2.667c.181 0 .353.038.511.103L21.334 18.236 3.49 2.77a1.32 1.32 0 0 1 .511-.103h34.667zm0 26.666H4A1.334 1.334 0 0 1 2.667 28V5.587L20.46 21.008a1.335 1.335 0 0 0 1.748 0L40.001 5.587V28c0 .736-.598 1.333-1.333 1.333z"/>
    </symbol>
    <symbol id="facebook" viewBox="0 0 32 32">
      <path d="M21.329 5.313h2.921V.225C23.746.156 22.013 0 19.994 0c-4.212 0-7.097 2.649-7.097 7.519V12H8.249v5.688h4.648V32h5.699V17.689h4.46l.708-5.688h-5.169V8.082c.001-1.644.444-2.769 2.735-2.769z"/>
    </symbol>
    <symbol id="instagram" viewBox="0 0 32 32">
      <path d="M31.969 9.408c-.075-1.7-.35-2.869-.744-3.882a7.806 7.806 0 0 0-1.851-2.838A7.867 7.867 0 0 0 26.542.844C25.523.45 24.36.175 22.66.1 20.947.019 20.403 0 16.059 0s-4.888.019-6.595.094c-1.7.075-2.869.35-3.882.744a7.803 7.803 0 0 0-2.838 1.85A7.867 7.867 0 0 0 .9 5.52C.506 6.539.231 7.702.156 9.402c-.081 1.713-.1 2.257-.1 6.601s.019 4.888.094 6.595c.075 1.7.35 2.869.744 3.882a7.895 7.895 0 0 0 1.85 2.838 7.867 7.867 0 0 0 2.832 1.844c1.019.394 2.182.669 3.882.744 1.706.075 2.25.094 6.595.094s4.888-.019 6.595-.094c1.7-.075 2.869-.35 3.882-.744a8.184 8.184 0 0 0 4.682-4.682c.394-1.019.669-2.182.744-3.882.075-1.707.094-2.251.094-6.595s-.006-4.888-.081-6.595zm-2.882 13.065c-.069 1.563-.331 2.407-.55 2.969a5.31 5.31 0 0 1-3.038 3.038c-.563.219-1.413.481-2.969.55-1.688.075-2.194.094-6.464.094s-4.782-.019-6.464-.094c-1.563-.069-2.407-.331-2.969-.55a4.926 4.926 0 0 1-1.838-1.194 4.974 4.974 0 0 1-1.194-1.838c-.219-.563-.481-1.413-.55-2.969-.075-1.688-.094-2.194-.094-6.464s.019-4.782.094-6.464c.069-1.563.331-2.407.55-2.969a4.868 4.868 0 0 1 1.2-1.838A4.974 4.974 0 0 1 6.639 3.55c.563-.219 1.413-.481 2.969-.55 1.688-.075 2.194-.094 6.464-.094 4.276 0 4.782.019 6.464.094 1.563.069 2.407.331 2.969.55a4.914 4.914 0 0 1 1.838 1.194 4.974 4.974 0 0 1 1.194 1.838c.219.563.481 1.413.55 2.969.075 1.688.094 2.194.094 6.464s-.019 4.77-.094 6.458z"/>
      <path d="M16.059 7.783c-4.538 0-8.22 3.682-8.22 8.22s3.682 8.22 8.22 8.22c4.539 0 8.22-3.682 8.22-8.22s-3.682-8.22-8.22-8.22zm0 13.552a5.333 5.333 0 0 1 0-10.664 5.333 5.333 0 0 1 0 10.664zM26.524 7.458a1.919 1.919 0 1 1-3.838 0 1.919 1.919 0 0 1 3.838 0z"/>
    </symbol>
    <symbol id="smartphone" viewBox="0 0 20 32">
      <path d="M17 0H3C1.346 0 0 1.346 0 3v26c0 1.654 1.346 3 3 3h14c1.654 0 3-1.346 3-3V3c0-1.654-1.346-3-3-3zM3 2h14a1 1 0 0 1 1 1v21H2V3a1 1 0 0 1 1-1zm14 28H3a1 1 0 0 1-1-1v-3h16v3a1 1 0 0 1-1 1z"/>
      <path d="M4.707 27.478c.391.365.391.956 0 1.321s-1.024.365-1.414 0c-.391-.365-.391-.956 0-1.321s1.024-.365 1.414 0z"/>
    </symbol>
    <symbol id="twitter" viewBox="0 0 32 32">
      <path d="M32 6.078c-1.19.522-2.458.868-3.78 1.036a6.523 6.523 0 0 0 2.886-3.626 13.11 13.11 0 0 1-4.16 1.588A6.574 6.574 0 0 0 22.154 3c-3.632 0-6.556 2.948-6.556 6.562 0 .52.044 1.02.152 1.496-5.454-.266-10.28-2.88-13.522-6.862a6.605 6.605 0 0 0-.898 3.316 6.57 6.57 0 0 0 2.914 5.452 6.479 6.479 0 0 1-2.964-.808v.072c0 3.188 2.274 5.836 5.256 6.446a6.548 6.548 0 0 1-1.72.216 5.8 5.8 0 0 1-1.242-.112c.85 2.598 3.262 4.508 6.13 4.57a13.182 13.182 0 0 1-8.134 2.798c-.538 0-1.054-.024-1.57-.09A18.469 18.469 0 0 0 10.064 29c12.072 0 18.672-10 18.672-18.668 0-.29-.01-.57-.024-.848A13.087 13.087 0 0 0 32 6.078z"/>
    </symbol>
    <symbol id="icon-youtube" viewBox="0 0 32 32">
      <path d="M31.681 9.6c0 0-0.313-2.206-1.275-3.175-1.219-1.275-2.581-1.281-3.206-1.356-4.475-0.325-11.194-0.325-11.194-0.325h-0.012c0 0-6.719 0-11.194 0.325-0.625 0.075-1.987 0.081-3.206 1.356-0.963 0.969-1.269 3.175-1.269 3.175s-0.319 2.588-0.319 5.181v2.425c0 2.587 0.319 5.181 0.319 5.181s0.313 2.206 1.269 3.175c1.219 1.275 2.819 1.231 3.531 1.369 2.563 0.244 10.881 0.319 10.881 0.319s6.725-0.012 11.2-0.331c0.625-0.075 1.988-0.081 3.206-1.356 0.962-0.969 1.275-3.175 1.275-3.175s0.319-2.587 0.319-5.181v-2.425c-0.006-2.588-0.325-5.181-0.325-5.181zM12.694 20.15v-8.994l8.644 4.513-8.644 4.481z"></path>
    </symbol>
    <symbol id="icon-youtube-2" viewBox="0 0 32 32">
      <path d="M26.141 9.327c-0.101-0.397-0.389-0.697-0.719-0.789-0.583-0.164-3.423-0.537-9.423-0.537s-8.837 0.373-9.425 0.537c-0.325 0.091-0.613 0.391-0.716 0.789-0.145 0.565-0.525 2.935-0.525 6.673s0.38 6.107 0.525 6.675c0.101 0.396 0.389 0.696 0.717 0.787 0.587 0.165 3.424 0.539 9.424 0.539s8.839-0.373 9.425-0.537c0.325-0.091 0.613-0.391 0.716-0.789 0.145-0.565 0.525-2.94 0.525-6.673s-0.38-6.107-0.525-6.673zM28.724 8.664c0.609 2.376 0.609 7.336 0.609 7.336s0 4.96-0.609 7.336c-0.339 1.313-1.329 2.347-2.584 2.696-2.279 0.635-10.14 0.635-10.14 0.635s-7.857 0-10.14-0.635c-1.26-0.355-2.249-1.387-2.584-2.696-0.609-2.376-0.609-7.336-0.609-7.336s0-4.96 0.609-7.336c0.339-1.313 1.329-2.347 2.584-2.696 2.283-0.635 10.14-0.635 10.14-0.635s7.861 0 10.14 0.635c1.26 0.355 2.249 1.387 2.584 2.696zM13.333 20.667v-9.333l8 4.667-8 4.667z"></path>
    </symbol>
    <symbol id="icon-call" viewBox="0 0 32 32">
      <path d="m27.419 20.852-4.201-.48a3.293 3.293 0 0 0-2.713.943l-3.044 3.044A24.888 24.888 0 0 1 6.56 13.458l3.06-3.06a3.293 3.293 0 0 0 .943-2.713l-.48-4.168A3.31 3.31 0 0 0 6.791.589H3.929C2.06.589.505 2.144.621 4.013c.877 14.126 12.174 25.407 26.284 26.284 1.869.116 3.424-1.439 3.424-3.308v-2.862c.016-1.671-1.241-3.077-2.911-3.275z"/>
    </symbol>
    <symbol id="icon-head" viewBox="0 0 32 32">
      <path d="M16 16c4.42 0 8-3.58 8-8s-3.58-8-8-8-8 3.58-8 8 3.58 8 8 8zm0 4c-5.34 0-16 2.68-16 8v2c0 1.1.9 2 2 2h28c1.1 0 2-.9 2-2v-2c0-5.32-10.66-8-16-8z"/>
    </symbol>
    <symbol id="icon-send" viewBox="0 0 32 32">
      <path d="M32 0 0 18l10.227 3.788L26 7 14.002 23.186l.01.004-.012-.004V32l5.735-6.691L27 28l5-28z"/>
    </symbol>
    <symbol id="icon-subscribe" viewBox="0 0 32 32">
      <path stroke-width=".492" d="m4.817 15.389-.169-.162-2.544 2.41 8.962 8.55L29.895 8.225l-2.527-2.411L11.066 21.35l-6.249-5.962z"/>
    </symbol>
    <symbol id="icon-close" viewBox="0 0 32 32">
<path d="M32 3.223l-3.223-3.223-12.777 12.777-12.777-12.777-3.223 3.223 12.777 12.777-12.777 12.777 3.223 3.223 12.777-12.777 12.777 12.777 3.223-3.223-12.777-12.777 12.777-12.777z"></path>
</symbol>
<symbol id="icon-close_40px" viewBox="0 0 32 32">
<path d="M23.733 10.304l-1.504-1.504-5.963 5.963-5.963-5.963-1.504 1.504 5.963 5.963-5.963 5.963 1.504 1.504 5.963-5.963 5.963 5.963 1.504-1.504-5.963-5.963 5.963-5.963z"></path>
</symbol>
<symbol id="icon-menu_40px" viewBox="0 0 32 32">
<path d="M6.4 11.733v-2.133h19.2v2.133h-19.2zM6.4 17.067h19.2v-2.133h-19.2v2.133zM6.4 22.4h19.2v-2.133h-19.2v2.133z"></path>
</symbol>
<symbol id="icon-shower" viewBox="0 0 32 32">
<path d="M17.494 27.205c0 0.97 0.785 1.755 1.755 1.755s1.755-0.785 1.755-1.755c0-0.635-0.649-1.379-1.165-2.128-0.282-0.41-0.886-0.41-1.169-0-0.516 0.747-1.176 1.495-1.176 2.128z"></path>
<path d="M22.337 23.112c0 0.97 0.785 1.755 1.755 1.755s1.755-0.785 1.755-1.755c0-0.634-0.649-1.379-1.165-2.128-0.282-0.41-0.886-0.41-1.169-0-0.516 0.747-1.176 1.495-1.176 2.128z"></path>
<path d="M12.652 23.112c0 0.97 0.785 1.755 1.755 1.755s1.755-0.785 1.755-1.755c0-0.634-0.649-1.379-1.165-2.128-0.282-0.41-0.886-0.41-1.169-0-0.516 0.747-1.176 1.495-1.176 2.128z"></path>
<path d="M17.412 7.511c-3.646 0.66-6.405 3.234-6.581 6.36-0.004 0.082 0.025 0.163 0.082 0.223s0.136 0.094 0.219 0.094h16.237c0.082 0 0.162-0.034 0.217-0.094 0.057-0.060 0.087-0.141 0.083-0.223-0.181-3.214-3.091-5.847-6.89-6.412-0.662-4.218-4.31-7.459-8.712-7.459-4.869 0-8.83 3.961-8.83 8.83v21.525c0 0.909 0.737 1.645 1.646 1.645s1.646-0.736 1.646-1.645v-21.525c0-3.054 2.484-5.539 5.539-5.539 2.579 0 4.733 1.78 5.347 4.22z"></path>
<path d="M27.667 15.746h-16.836c-0.606 0-1.097 0.491-1.097 1.097s0.491 1.097 1.097 1.097h16.836c0.606 0 1.097-0.491 1.097-1.097s-0.491-1.097-1.097-1.097z"></path>
</symbol>
<symbol id="icon-aromatherapy" viewBox="0 0 32 32">
<path d="M20.885 11.998h-0.941c0.059-0.165 0.097-0.341 0.097-0.527 0-0.864-0.7-1.564-1.564-1.564h-0.895l2.28-8.182c0.116-0.416-0.128-0.847-0.544-0.963-0.414-0.115-0.847 0.127-0.963 0.544l-1.573 5.645v-6.168c0-0.432-0.35-0.782-0.782-0.782s-0.782 0.35-0.782 0.782v7.919l-1.686-6.56c-0.108-0.418-0.533-0.671-0.952-0.563s-0.671 0.534-0.563 0.952l1.896 7.377h-0.389c-0.864 0-1.564 0.7-1.564 1.564 0 0.186 0.038 0.362 0.097 0.527h-0.941c-1.378 0-2.499 1.121-2.499 2.499v15.003c0 1.378 1.121 2.499 2.499 2.499h9.77c1.378 0 2.499-1.121 2.499-2.499v-15.003c0-1.378-1.121-2.499-2.499-2.499zM14.088 22.448l1.13-4.055v4.055h-1.13zM16.782 21.074l0.353 1.373h-0.353v-1.373zM21.298 29.501c0 0.228-0.185 0.413-0.413 0.413h-9.77c-0.228 0-0.413-0.185-0.413-0.413v-15.003c0-0.228 0.185-0.413 0.413-0.413h3.679l-2.331 8.364h-0.557v5.836c0 0.168 0.135 0.304 0.303 0.304h7.581c0.168 0 0.303-0.136 0.303-0.304v-5.836h-1.343l-1.968-7.659v-0.705h4.103c0.228 0 0.413 0.185 0.413 0.413v15.003z"></path>
</symbol>
<symbol id="icon-hairbrush" viewBox="0 0 32 32">
<path d="M7.227 5.243c2.568 5.719 5.277 7.906 11.247 10.568 0.040-0.128 0.079-0.255 0.109-0.392l2.624-0.585c0.673-0.15 1.098-0.818 0.947-1.491s-0.815-1.101-1.491-0.947l-2.023 0.452c-0.055-0.385-0.133-0.777-0.241-1.175l2.303-1.409c0.589-0.36 0.773-1.129 0.414-1.717-0.361-0.589-1.131-0.773-1.717-0.414l-1.945 1.189c-0.314-0.583-0.69-1.153-1.127-1.699l1.958-1.958c0.487-0.488 0.487-1.279 0-1.766-0.489-0.488-1.278-0.488-1.767 0l-1.957 1.958c-0.546-0.437-1.117-0.813-1.701-1.128l1.19-1.944c0.359-0.588 0.174-1.357-0.414-1.717-0.587-0.359-1.356-0.175-1.717 0.414l-1.409 2.303c-0.396-0.107-0.788-0.185-1.172-0.24l0.452-2.023c0.151-0.673-0.274-1.341-0.946-1.491-0.679-0.153-1.341 0.273-1.492 0.947l-0.586 2.624c-0.246 0.055-0.473 0.13-0.691 0.214 0.48 0.366 0.888 0.838 1.152 1.427z"></path>
<path d="M30.162 29.056c-0.132-0.32-3.32-7.88-11.285-11.303-6.819-2.931-10.149-5.225-13.124-11.847-0.482-1.075-1.747-1.554-2.818-1.071-1.074 0.482-1.554 1.744-1.071 2.818 3.516 7.829 7.744 10.758 15.328 14.018 6.33 2.72 9.004 8.953 9.027 9.010 0.339 0.823 1.135 1.32 1.972 1.32 0.271 0 0.545-0.051 0.811-0.161 1.089-0.448 1.607-1.694 1.16-2.783z"></path>
</symbol>
<symbol id="icon-slippers" viewBox="0 0 32 32">
<path d="M7.143 8.517c2.465-0.379 4.961 3.435 6.659 6.795 0.533-1.342 0.742-2.885 0.493-4.487-0.66-4.249-4.166-7.233-7.829-6.664s-6.098 4.476-5.437 8.725c0.249 1.603 0.917 3.010 1.832 4.128 0.6-3.719 1.823-8.115 4.282-8.497z"></path>
<path d="M14.169 21.582c-0.518-0.756-0.834-1.607-0.969-2.484-1.98-4.646-4.662-8.644-5.731-8.472-1.066 0.165-2.413 4.787-2.889 9.816 0.138 0.876 0.094 1.782-0.169 2.656-0.3 0.997-0.387 2.105-0.21 3.242 0.556 3.571 3.502 6.079 6.581 5.601s5.126-3.763 4.57-7.334c-0.177-1.137-0.595-2.166-1.183-3.025z"></path>
<path d="M27.419 16.351c-0.476-5.029-1.823-9.651-2.889-9.816-1.077-0.196-3.754 3.827-5.731 8.472-0.134 0.877-0.451 1.728-0.969 2.484-0.588 0.859-1.007 1.889-1.184 3.025-0.556 3.571 1.491 6.855 4.57 7.334s6.026-2.030 6.581-5.601c0.177-1.137 0.090-2.245-0.21-3.242-0.263-0.874-0.306-1.781-0.169-2.656z"></path>
<path d="M25.535 0.070c-3.664-0.569-7.169 2.414-7.829 6.664-0.249 1.603-0.039 3.146 0.494 4.489 1.7-3.358 4.198-7.172 6.658-6.797 2.46 0.382 3.683 4.778 4.282 8.497 0.915-1.118 1.583-2.524 1.832-4.127 0.66-4.249-1.774-8.155-5.437-8.725z"></path>
</symbol>
<symbol id="icon-bathrobe-spa" viewBox="0 0 32 32">
<path d="M31.695 14.201l-0.841-1.223c-0.262-0.381-0.657-0.638-1.113-0.722-0.081-0.015-0.162-0.024-0.243-0.027l-5.904-8.183c-0.771-1.161-2.061-1.853-3.453-1.853h-1.711c-0.008 0-0.016 0.001-0.024 0.001-0.124 0.003-0.244 0.027-0.358 0.075-0.618 0.255-1.176 0.414-2.048 0.414-0.868 0-1.404-0.152-2.038-0.414-0.013-0.005-0.026-0.010-0.039-0.015-0.085-0.029-0.173-0.050-0.263-0.057-0.027-0.002-0.054-0.004-0.080-0.004h-1.711c-1.313 0-2.561 0.632-3.34 1.691-0.002 0.002-0.003 0.005-0.005 0.007l-6.022 8.338c-0.081 0.004-0.162 0.012-0.243 0.027-0.455 0.084-0.851 0.34-1.113 0.722l-0.842 1.223c-0.541 0.787-0.342 1.868 0.445 2.41l3.407 2.345c0.292 0.201 0.631 0.306 0.979 0.306 0.106 0 0.212-0.010 0.318-0.029 0.455-0.084 0.85-0.34 1.113-0.722l0.842-1.223c0.308-0.448 0.376-0.99 0.233-1.474l1.123-1.556 0.35 2.645-1.086 11.814c-0.026 0.28 0.068 0.557 0.257 0.765s0.457 0.326 0.738 0.326h14.265c0.283 0 0.553-0.12 0.742-0.33s0.281-0.491 0.251-0.772l-1.226-11.753 0.296-2.537 1.009 1.398c-0.143 0.484-0.075 1.027 0.233 1.475l0.841 1.223c0.262 0.381 0.657 0.638 1.113 0.722 0.106 0.020 0.212 0.029 0.318 0.029 0.347 0 0.686-0.105 0.979-0.306l3.407-2.345c0.787-0.542 0.986-1.622 0.445-2.41zM19.207 4.19h0.934c0.064 0 0.128 0.004 0.192 0.010l-2.148 7.075c-0.081 0.267-0.317 0.461-0.592 0.49h-0.304l1.919-7.575zM11.869 4.19l0.934-0 1.919 7.575h-0.304c-0.275-0.030-0.511-0.224-0.592-0.49l-2.149-7.075c0.063-0.006 0.127-0.009 0.192-0.009zM5.071 17.16l-2.971-2.045 0.542-0.787 2.971 2.045-0.541 0.787zM15.006 27.81h-4.889l0.91-9.897h2.349l-1.533 4.295c-0.185 0.52 0.085 1.091 0.605 1.276 0.111 0.040 0.224 0.058 0.336 0.058 0.41 0 0.795-0.255 0.941-0.663l1.283-3.593v8.524zM15.006 15.915h-4.008l-0.584-4.412c-0.054-0.406-0.349-0.738-0.746-0.837s-0.814 0.052-1.054 0.384l-2.393 3.317-1.87-1.287 5.586-7.735 1.977 6.51c0.323 1.064 1.285 1.829 2.394 1.905 0.023 0.002 0.045 0.002 0.068 0.002h0.63v2.153zM14.971 4.612c0.31 0.042 0.65 0.067 1.029 0.067 0.368 0 0.709-0.021 1.040-0.067l-1.034 4.083-1.035-4.084zM17.004 27.81v-9.897h0.071l1.106 3.2c0.143 0.413 0.53 0.673 0.944 0.673 0.108 0 0.218-0.018 0.326-0.055 0.521-0.18 0.798-0.749 0.618-1.27l-0.88-2.547h1.959l1.032 9.897h-5.175zM23.466 11.162c-0.241-0.334-0.663-0.486-1.061-0.382s-0.693 0.442-0.741 0.851l-0.5 4.285h-4.161v-2.153h0.63c0.023 0 0.045-0.001 0.068-0.002 1.109-0.076 2.071-0.841 2.394-1.905l1.976-6.506 5.578 7.731-1.87 1.287-2.313-3.206zM26.929 17.16l-0.541-0.787 2.971-2.045 0.542 0.787-2.971 2.045z"></path>
</symbol>
<symbol id="icon-viber" viewBox="0 0 32 32">
<path d="M15.197 0.003c-2.567 0.035-8.089 0.456-11.179 3.287-2.293 2.28-3.095 5.641-3.188 9.804-0.080 4.147-0.173 11.933 7.333 14.055v3.227c0 0-0.051 1.293 0.803 1.56 1.053 0.333 1.653-0.665 2.653-1.732l1.867-2.107c5.133 0.427 9.067-0.559 9.52-0.705 1.040-0.333 6.908-1.081 7.868-8.869 0.987-8.041-0.48-13.108-3.12-15.401l-0.013-0.003c-0.8-0.733-4-3.067-11.16-3.093 0 0-0.528-0.033-1.384-0.021zM15.287 2.265c0.727-0.004 1.173 0.027 1.173 0.027 6.053 0.013 8.948 1.84 9.628 2.453 2.227 1.905 3.371 6.475 2.533 13.189-0.8 6.507-5.56 6.92-6.44 7.2-0.373 0.12-3.84 0.973-8.203 0.693 0 0-3.252 3.921-4.265 4.935-0.16 0.173-0.347 0.227-0.467 0.2-0.173-0.040-0.227-0.253-0.213-0.547l0.027-5.359c-6.361-1.76-5.988-8.403-5.921-11.869 0.080-3.467 0.733-6.309 2.667-8.229 2.609-2.36 7.3-2.68 9.481-2.693zM15.767 5.732c-0 0-0.001 0-0.001 0-0.22 0-0.399 0.178-0.399 0.399 0 0 0 0 0 0v0c0 0.221 0.179 0.4 0.4 0.4v0c0.043-0.001 0.093-0.001 0.143-0.001 2.034 0 3.88 0.809 5.232 2.123l-0.002-0.002c1.453 1.413 2.161 3.307 2.188 5.787 0 0.221 0.179 0.4 0.4 0.4v0-0.012c0.221 0 0.4-0.179 0.4-0.4v0c0.005-0.109 0.008-0.236 0.008-0.364 0-2.326-0.923-4.436-2.423-5.985l0.002 0.002c-1.587-1.547-3.589-2.347-5.948-2.347zM10.495 6.652c-0.054-0.008-0.116-0.013-0.18-0.013-0.236 0-0.457 0.064-0.646 0.176l0.006-0.003h-0.016c-0.547 0.32-1.051 0.72-1.531 1.253-0.36 0.427-0.561 0.852-0.615 1.265-0.009 0.064-0.014 0.137-0.014 0.212 0 0.182 0.029 0.357 0.084 0.521l-0.003-0.012 0.027 0.013c0.458 1.331 0.998 2.476 1.646 3.549l-0.046-0.082c0.895 1.608 1.922 2.996 3.101 4.237l-0.008-0.009 0.040 0.053 0.053 0.040 0.080 0.080c1.236 1.174 2.628 2.205 4.136 3.053l0.104 0.054c1.76 0.96 2.829 1.413 3.469 1.6v0.013c0.187 0.053 0.357 0.080 0.531 0.080 0.57-0.043 1.079-0.274 1.471-0.631l-0.002 0.002c0.52-0.467 0.933-0.984 1.24-1.531v-0.013c0.307-0.573 0.2-1.121-0.24-1.495-0.845-0.742-1.782-1.421-2.781-2.007l-0.085-0.046c-0.68-0.373-1.373-0.147-1.653 0.227l-0.6 0.759c-0.307 0.373-0.867 0.32-0.867 0.32l-0.016 0.013c-4.16-1.067-5.267-5.279-5.267-5.279s-0.053-0.573 0.333-0.867l0.747-0.6c0.36-0.293 0.613-0.987 0.227-1.667-0.631-1.084-1.31-2.022-2.071-2.887l0.017 0.020c-0.166-0.204-0.399-0.349-0.665-0.399l-0.007-0.001zM16.459 7.839c-0.22 0.001-0.399 0.18-0.399 0.4s0.179 0.4 0.4 0.4c0 0 0.001 0 0.001 0h-0c1.388 0.025 2.636 0.607 3.532 1.532l0.001 0.001c0.75 0.825 1.209 1.926 1.209 3.134 0 0.103-0.003 0.205-0.010 0.306l0.001-0.014c0.001 0.22 0.18 0.399 0.4 0.399 0 0 0 0 0 0v0l0.013 0.016c0 0 0 0 0 0 0.221 0 0.4-0.179 0.4-0.4 0-0 0-0.001 0-0.001v0c0.040-1.587-0.453-2.92-1.427-3.987s-2.333-1.667-4.067-1.787c-0.008-0.001-0.018-0.001-0.028-0.001s-0.020 0-0.029 0.001l0.001-0zM17.112 9.997c-0.004-0-0.008-0-0.012-0-0.225 0-0.407 0.182-0.407 0.408 0 0.221 0.176 0.401 0.395 0.407h0.001c1.32 0.067 1.96 0.733 2.040 2.107 0.007 0.215 0.184 0.387 0.4 0.387 0 0 0 0 0 0h0.013c0.215-0.007 0.388-0.183 0.388-0.4 0-0.009-0-0.019-0.001-0.028l0 0.001c-0.093-1.787-1.067-2.788-2.8-2.881-0.002-0-0.005-0-0.008-0s-0.006 0-0.008 0h0z"></path>
</symbol>
<symbol id="icon-telegram1" viewBox="0 0 32 32">
<path d="M31.88 5.053l-4.813 22.733c-0.333 1.613-1.307 2-2.667 1.253l-7.333-5.427-3.547 3.427c-0.4 0.4-0.733 0.747-1.467 0.747-0.96 0-0.8-0.36-1.12-1.267l-2.533-8.253-7.267-2.267c-1.573-0.467-1.587-1.547 0.347-2.333l28.347-10.933c1.293-0.573 2.533 0.32 2.053 2.32z"></path>
</symbol>
<symbol id="icon-telegram" viewBox="0 0 32 32">
<path d="M18.578 20.422l2.297-10.828c0.203-0.953-0.344-1.328-0.969-1.094l-13.5 5.203c-0.922 0.359-0.906 0.875-0.156 1.109l3.453 1.078 8.016-5.047c0.375-0.25 0.719-0.109 0.438 0.141l-6.484 5.859-0.25 3.563c0.359 0 0.516-0.156 0.703-0.344l1.687-1.625 3.5 2.578c0.641 0.359 1.094 0.172 1.266-0.594zM28 14c0 7.734-6.266 14-14 14s-14-6.266-14-14 6.266-14 14-14 14 6.266 14 14z"></path>
</symbol>
<symbol id="icon-google-forms" viewBox="0 0 32 32">
<path d="M18.5 1.26c-0.027 0.005-0.055 0.012-0.080 0.020h-11.060c-1.225 0-2.24 0.997-2.24 2.22v24.6c0 1.442 1.195 2.62 2.64 2.62h16.48c1.445 0 2.64-1.177 2.64-2.62v-18.38c0.017-0.085 0.017-0.175 0-0.26v-0.18c0.005-0.17-0.060-0.338-0.18-0.46l-7.36-7.36c-0.122-0.12-0.29-0.185-0.46-0.18h-0.2c-0.058-0.015-0.12-0.022-0.18-0.020zM7.36 2.56h10.56v5.34c0 1.287 1.052 2.34 2.34 2.34h5.34v17.86c0 0.747-0.605 1.34-1.36 1.34h-16.48c-0.755 0-1.36-0.593-1.36-1.34v-24.6c0-0.527 0.423-0.94 0.96-0.94zM19.2 3.16l5.8 5.8h-4.74c-0.598 0-1.060-0.463-1.060-1.060zM10.88 16c-0.352 0-0.64 0.288-0.64 0.64s0.287 0.64 0.64 0.64c0.352 0 0.64-0.288 0.64-0.64s-0.287-0.64-0.64-0.64zM13.44 16v1.28h7.68v-1.28zM10.88 19.2c-0.352 0-0.64 0.288-0.64 0.64s0.287 0.64 0.64 0.64c0.352 0 0.64-0.288 0.64-0.64s-0.287-0.64-0.64-0.64zM13.44 19.2v1.28h7.68v-1.28zM10.88 22.4c-0.352 0-0.64 0.288-0.64 0.64s0.287 0.64 0.64 0.64c0.352 0 0.64-0.288 0.64-0.64s-0.287-0.64-0.64-0.64zM13.44 22.4v1.28h7.68v-1.28z"></path>
</symbol>
<symbol id="icon-telegram-app" viewBox="0 0 32 32">
<path d="M26.831 4.25c-0.347 0.015-0.67 0.116-0.954 0.231-0.266 0.107-1.284 0.544-2.887 1.231-1.605 0.688-3.729 1.6-5.996 2.575-4.533 1.949-9.629 4.144-12.24 5.267-0.098 0.042-0.441 0.152-0.804 0.435s-0.75 0.872-0.75 1.527c0 0.528 0.252 1.053 0.569 1.367s0.652 0.468 0.94 0.585c1.042 0.425 4.275 1.748 4.885 1.998 0.215 0.658 1.385 4.237 1.656 5.115 0.179 0.579 0.349 0.941 0.571 1.229 0.111 0.144 0.24 0.27 0.396 0.369 0.062 0.040 0.131 0.070 0.2 0.098l0.004 0.002c0.016 0.006 0.030 0.017 0.046 0.023 0.030 0.011 0.051 0.012 0.092 0.021 0.162 0.052 0.327 0.085 0.473 0.085 0.624 0 1.006-0.344 1.006-0.344l0.023-0.017 3.21-2.777 3.894 3.683c0.055 0.078 0.566 0.779 1.694 0.779 0.67 0 1.201-0.336 1.542-0.694s0.553-0.734 0.644-1.206v-0.002c0.084-0.447 3.673-18.869 3.673-18.869l-0.006 0.025c0.105-0.479 0.133-0.926 0.017-1.367s-0.421-0.863-0.8-1.090c-0.379-0.227-0.749-0.297-1.096-0.281zM26.631 6.479c-0.005 0.031 0.004 0.015-0.004 0.052l-0.004 0.025c0 0-3.544 18.187-3.675 18.879 0.010-0.052-0.034 0.052-0.079 0.115-0.064-0.044-0.194-0.1-0.194-0.1l-0.021-0.023-5.319-5.031-3.76 3.25 1.119-4.479c0 0 6.993-7.239 7.415-7.66 0.339-0.337 0.41-0.455 0.41-0.571 0-0.156-0.081-0.269-0.262-0.269-0.163 0-0.383 0.159-0.5 0.233-1.529 0.974-8.24 4.886-11.248 6.635-0.478-0.196-3.799-1.555-4.925-2.015 0.009-0.004 0.006-0.002 0.015-0.006 2.611-1.123 7.705-3.318 12.238-5.267 2.266-0.975 4.392-1.887 5.996-2.575 1.579-0.677 2.676-1.143 2.8-1.194z"></path>
</symbol>
<symbol id="icon-viber-app" viewBox="0 0 32 32">
<path d="M15.699 4c-1.9 0-6.6 0.2-9.1 2.6-1.8 1.7-2.5 4.3-2.6 7.4-0.2 4.9 0.899 8 2.699 9.6 0.4 0.3 1.401 1.101 3.301 1.701v2.5c0 0-0 0.999 0.6 1.199 0.1 0 0.201 0.1 0.301 0.1 0.6 0 1.099-0.7 1.799-1.4 0.6-0.7 1.1-1.199 1.4-1.699h2.201c1.9 0 6.6-0.2 9.1-2.6 1.8-1.8 2.5-4.401 2.5-7.701 0.1-0.5 0.1-1.099 0.1-1.699-0.1-3.7-1.199-6.2-2.699-7.6-0.6-0.5-3.201-2.4-8.801-2.4h-0.801zM15.5 5.9h0.9c5.3 0 7.3 1.7 7.5 1.9 1.2 1 1.9 3.2 2 6.1v0.4c0.1 0.6 0.1 1.098 0.1 1.398-0.1 3-0.7 5.001-1.9 6.301-2.1 1.9-6.499 2-7.699 2h-1.9l-1.6 1.801-1 1.1-0.201 0.299c-0.2 0.2-0.499 0.601-0.699 0.701v-4.5c-2-0.5-2.8-1.2-3-1.4-1.4-1.2-2.2-4.1-2-8v-1c0.2-2.4 0.801-4 1.801-5.1 2.1-1.9 6.499-2 7.699-2zM15.4 8.1c-0.5 0-0.5 0.701 0 0.701 3.7 0 6.9 2.499 6.9 7.199 0 0.5 0.699 0.5 0.699 0 0-5.1-3.4-8-7.6-7.9zM11.438 9.025c-0.213-0.025-0.437 0.024-0.637 0.174-1 0.5-2.001 1.502-1.701 2.602 0 0 0.201 0.899 1.301 2.799 0.6 0.9 1.1 1.701 1.6 2.301 0.5 0.7 1.3 1.5 2.1 2.1 1.6 1.3 4.101 2.6 5.201 2.9 1 0.3 2.1-0.701 2.6-1.701 0.2-0.4 0.099-0.899-0.301-1.199-0.6-0.6-1.599-1.299-2.299-1.699-0.5-0.3-1.101-0.101-1.301 0.199l-0.5 0.6c-0.2 0.3-0.699 0.301-0.699 0.301-3.3-0.9-4.201-4.301-4.201-4.301s0.001-0.399 0.301-0.699l0.6-0.5c0.3-0.2 0.499-0.801 0.199-1.301-0.2-0.3-0.499-0.899-0.799-1.199-0.3-0.4-0.9-1.1-0.9-1.1-0.15-0.15-0.35-0.25-0.563-0.275zM16.1 10.1c-0.5-0.1-0.6 0.701-0.1 0.701 2.8 0.2 4.401 2.1 4.301 4.5-0.1 0.5 0.699 0.5 0.699 0 0.1-2.8-1.7-5.101-4.9-5.201zM16.4 12c-0.5-0.1-0.5 0.699 0 0.699 1.2 0 1.799 0.7 1.799 1.9 0.1 0.5 0.801 0.5 0.801 0-0.1-1.6-1-2.6-2.6-2.6z"></path>
</symbol>
<symbol id="icon-phone-call" viewBox="0 0 32 32">
<path d="M19.812 7.975c1.257 0.245 2.32 0.911 3.080 1.832 0.56 0.68 0.955 1.499 1.136 2.391 0.145 0.721 0.849 1.188 1.571 1.043s1.188-0.849 1.043-1.571c-0.267-1.323-0.853-2.543-1.692-3.559-1.139-1.381-2.743-2.385-4.627-2.752-0.723-0.141-1.423 0.331-1.564 1.053s0.331 1.423 1.053 1.564zM19.92 2.659c2.667 0.296 4.991 1.549 6.673 3.392 1.491 1.632 2.477 3.725 2.749 6.025 0.087 0.731 0.749 1.255 1.48 1.168s1.255-0.749 1.168-1.48c-0.337-2.863-1.568-5.475-3.428-7.512-2.104-2.304-5.016-3.875-8.348-4.244-0.732-0.081-1.391 0.447-1.472 1.177s0.447 1.391 1.177 1.472zM30.667 22.56c0.021-0.952-0.315-1.872-0.897-2.591-0.613-0.755-1.505-1.289-2.567-1.44-1.067-0.131-2.26-0.419-3.448-0.861-0.577-0.212-1.191-0.291-1.792-0.232-0.884 0.085-1.743 0.465-2.425 1.14l-0.96 0.96c-2.36-1.489-4.48-3.556-6.111-6.119l0.968-0.968c0.429-0.44 0.751-0.968 0.943-1.541 0.283-0.843 0.285-1.781-0.052-2.681-0.385-1.004-0.691-2.192-0.859-3.46-0.139-0.952-0.608-1.793-1.284-2.405-0.719-0.648-1.675-1.039-2.703-1.028h-3.995c-0.117 0-0.243 0.005-0.364 0.016-1.099 0.1-2.056 0.637-2.711 1.421s-1.011 1.823-0.911 2.932c0.4 4.101 1.82 8.324 4.288 12.136 2.003 3.217 4.864 6.164 8.397 8.408 3.424 2.263 7.579 3.816 12.115 4.308 0.123 0.012 0.255 0.017 0.384 0.017 1.104-0.004 2.104-0.457 2.824-1.183s1.164-1.729 1.16-2.828zM28 22.56v4c0.001 0.373-0.145 0.707-0.387 0.949s-0.572 0.393-0.941 0.395c-4.199-0.448-7.948-1.855-11.017-3.883-3.237-2.057-5.812-4.716-7.603-7.592-2.263-3.493-3.54-7.308-3.899-10.984-0.032-0.357 0.085-0.701 0.305-0.965s0.537-0.44 0.904-0.473l4.117-0.007c0.361-0.004 0.676 0.125 0.916 0.341 0.227 0.205 0.384 0.488 0.431 0.811 0.189 1.429 0.544 2.823 1.009 4.033 0.108 0.288 0.107 0.596 0.013 0.877-0.065 0.193-0.175 0.375-0.323 0.527l-1.683 1.681c-0.432 0.432-0.505 1.085-0.216 1.601 2.112 3.713 5.119 6.609 8.508 8.504 0.529 0.296 1.176 0.192 1.593-0.221l1.693-1.693c0.221-0.219 0.503-0.343 0.797-0.372 0.203-0.020 0.413 0.007 0.612 0.080 1.363 0.508 2.76 0.848 4.045 1.005 0.321 0.045 0.616 0.221 0.82 0.473 0.196 0.241 0.308 0.549 0.301 0.909z"></path>
</symbol>
<symbol id="icon-linkedin" viewBox="0 0 32 32">
<path d="M22.679 29.333h-13.359c-3.669 0-6.654-2.985-6.654-6.654v-13.359c0-3.669 2.985-6.654 6.654-6.654h13.358c3.669 0 6.655 2.985 6.655 6.654v13.358c0 3.669-2.985 6.655-6.654 6.655zM9.321 5.333c-2.201 0.003-3.984 1.786-3.987 3.987v13.358c0.003 2.201 1.786 3.985 3.987 3.988h13.358c2.201-0.003 3.985-1.786 3.988-3.987v-13.359c-0.003-2.201-1.786-3.984-3.987-3.987h-13.359z"></path>
<path d="M11.333 10c0 0.736-0.597 1.333-1.333 1.333s-1.333-0.597-1.333-1.333c0-0.736 0.597-1.333 1.333-1.333s1.333 0.597 1.333 1.333z"></path>
<path d="M8.667 13.333h2.667v10h-2.667zM23.333 23.333h-2.667v-4.981c0-1.658-0.635-2.431-2-2.431l-2.667 0.052v7.359h-2.667v-9.974l5.308-0.104c2.282 0 4.692 1.339 4.692 5.097v4.981z"></path>
</symbol>
<symbol id="icon-tiktok" viewBox="0 0 32 32">
<path d="M26.119 8.915c-2.714-0.596-4.759-2.855-5.025-5.634l-0.002-0.026v-0.588h-4.593v18.229c-0.008 2.127-1.734 3.848-3.861 3.848-1.25 0-2.361-0.594-3.067-1.514l-0.007-0.009c-0.491-0.641-0.786-1.453-0.786-2.335 0-2.132 1.728-3.86 3.86-3.86 0.418 0 0.821 0.066 1.198 0.189l-0.027-0.008v-4.667c-0.347-0.051-0.748-0.079-1.156-0.079-4.661 0-8.439 3.778-8.439 8.439 0 2.296 0.917 4.377 2.404 5.898l-0.002-0.002c1.534 1.568 3.671 2.541 6.036 2.541 4.661 0 8.44-3.778 8.44-8.439v-9.315c1.761 1.272 3.964 2.035 6.345 2.035 0.007 0 0.014 0 0.020-0h-0.001v-4.564c-0.002 0-0.005 0-0.008 0-0.471 0-0.93-0.050-1.372-0.146l0.042 0.008z"></path>
</symbol>

  </defs>
</svg>
