<svg aria-hidden="true" style="position: absolute; width: 0; height: 0; overflow: hidden;" version="1.1" xmlns="http://www.w3.org/2000/svg" xmlns:xlink="http://www.w3.org/1999/xlink">
<defs>
<symbol id="icon-two-feet" viewBox="0 0 32 32">
<path d="M14.915 25.743c0.571 2.365 0.614 3.312 0.202 4.408-0.435 1.157-1.776 1.573-2.009 1.638-0.137 0.047-0.661 0.21-1.327 0.21-1.288 0-2.309-0.623-2.875-1.754-0.43-0.859-0.684-1.602-0.93-2.32-0.381-1.114-0.775-2.266-1.871-4.014-0.414-0.661-0.754-1.189-1.054-1.655-1.026-1.595-1.494-2.323-2.277-4.247-0.719-1.767-1.576-4.11-1.58-5.236-0.002-0.733 0.236-1.126 0.436-1.327 0.115-0.115 0.249-0.2 0.392-0.25 0.006-0.417 0.156-0.801 0.53-1.073 0.188-0.136 0.377-0.234 0.565-0.291-0.039-0.295-0.033-0.616 0.079-0.909 0.127-0.333 0.37-0.583 0.703-0.722 0.162-0.068 0.319-0.112 0.469-0.133 0.022-0.269 0.089-0.54 0.232-0.777 0.19-0.313 0.485-0.524 0.853-0.611 0.309-0.073 0.608-0.073 0.856-0.016 0.066-0.267 0.179-0.539 0.365-0.778 0.23-0.296 0.666-0.657 1.437-0.696 2.094-0.107 2.482 1.797 2.628 2.5 0.070 0.341 0.079 0.688 0.087 1.023 0.010 0.417 0.019 0.81 0.149 1.047 0.067 0.123 0.166 0.285 0.28 0.473 0.418 0.688 1.051 1.729 1.301 2.747 0.157 0.639 0.004 1.559-0.19 2.724-0.223 1.34-0.476 2.859-0.235 4.013 0.217 1.041 0.758 1.942 1.33 2.896 0.575 0.957 1.169 1.947 1.454 3.13zM30.79 6.758c-0.105-0.952-0.568-1.374-1.001-1.473-0.053-0.414-0.245-0.779-0.648-1.006-0.202-0.114-0.401-0.189-0.594-0.226 0.006-0.298-0.037-0.616-0.182-0.895-0.164-0.317-0.434-0.538-0.78-0.638-0.169-0.049-0.33-0.076-0.481-0.079-0.052-0.265-0.149-0.527-0.319-0.746-0.224-0.29-0.541-0.466-0.917-0.511-0.323-0.038-0.616-0.003-0.852 0.080-0.090-0.242-0.221-0.482-0.412-0.69-0.345-0.376-0.824-0.575-1.385-0.575-0.052 0-0.105 0.002-0.16 0.005-2.088 0.131-2.263 2.056-2.328 2.781-0.032 0.347-0.001 0.692 0.029 1.026 0.037 0.415 0.072 0.807-0.030 1.056-0.053 0.13-0.133 0.302-0.225 0.502-0.338 0.731-0.848 1.836-0.982 2.876-0.083 0.644 0.142 1.549 0.427 2.694 0.329 1.323 0.701 2.822 0.592 4.004-0.099 1.071-0.498 2.020-0.92 3.025-0.419 0.998-0.852 2.029-1 3.226-0.3 2.414-0.236 3.361 0.298 4.403 0.563 1.101 1.944 1.363 2.182 1.4 0.103 0.023 0.43 0.086 0.863 0.086 1.529 0 2.643-0.744 3.137-2.094 0.33-0.903 0.499-1.669 0.662-2.411 0.253-1.15 0.514-2.339 1.405-4.199 0.337-0.703 0.615-1.267 0.86-1.764 0.839-1.701 1.222-2.477 1.782-4.476 0.514-1.837 1.102-4.261 0.978-5.381z"></path>
</symbol>
<symbol id="icon-hand-holding" viewBox="0 0 32 32">
<path d="M29.064 19.701c-0.421-0.177-0.91-0.28-1.423-0.28-0.577 0-1.123 0.13-1.611 0.362l0.023-0.010-5.778 2.595c0.003-0.047 0.026-0.087 0.026-0.134-0.015-1.371-1.129-2.476-2.502-2.476-0.069 0-0.137 0.003-0.204 0.008l0.009-0.001h-3.783l-4.76-1.395c-0.062-0.020-0.133-0.031-0.207-0.031-0.001 0-0.003 0-0.004 0h-2.169v-0.757c0-0.414-0.336-0.75-0.75-0.75h-3.883c-0.414 0-0.75 0.336-0.75 0.75v0 12.208c0 0.414 0.336 0.75 0.75 0.75h3.883c0.414 0 0.75-0.336 0.75-0.75v0-1.005c1.818 0.284 3.445 0.742 4.987 1.367l-0.149-0.054c1.15 0.416 2.478 0.656 3.862 0.656 0.007 0 0.014 0 0.021 0h-0.001c0.005 0 0.011 0 0.017 0 1.604 0 3.133-0.319 4.528-0.898l-0.078 0.029c1.243-0.553 2.298-1.136 3.297-1.799l-0.082 0.051c0.338-0.209 0.674-0.418 1.014-0.619 1.633-0.967 2.945-1.816 4.129-2.672 0.579-0.412 1.083-0.819 1.563-1.253l-0.014 0.013c0.373-0.302 0.671-0.682 0.871-1.116l0.008-0.019c0.031-0.079 0.048-0.17 0.048-0.266 0-0.057-0.006-0.112-0.018-0.165l0.001 0.005c-0.146-1.017-0.755-1.866-1.603-2.337l-0.016-0.008zM5.181 29.041h-2.383v-10.709h2.383zM28.719 22.541c-0.412 0.37-0.86 0.729-1.328 1.062l-0.047 0.032c-1.143 0.826-2.418 1.65-4.014 2.596-0.348 0.205-0.691 0.418-1.037 0.631-0.854 0.573-1.837 1.12-2.864 1.586l-0.13 0.053c-1.152 0.474-2.49 0.748-3.892 0.748-1.203 0-2.359-0.203-3.436-0.575l0.074 0.022c-1.555-0.648-3.363-1.145-5.248-1.407l-0.117-0.013v-7.436h2.062l4.76 1.395c0.062 0.020 0.133 0.031 0.207 0.031 0.001 0 0.003 0 0.004 0h3.89c0.883 0 1.197 0.521 1.197 0.969s-0.314 0.969-1.197 0.969h-6.809c-0.414 0-0.75 0.336-0.75 0.75s0.336 0.75 0.75 0.75v0h7.781c0.001 0 0.003 0 0.004 0 0.11 0 0.214-0.024 0.307-0.068l-0.004 0.002 7.795-3.5c0.288-0.132 0.625-0.209 0.98-0.209 0.265 0 0.52 0.043 0.758 0.122l-0.017-0.005c0.383 0.23 0.658 0.604 0.752 1.046l0.002 0.011c-0.136 0.159-0.278 0.302-0.429 0.435l-0.005 0.004zM29.951 1.506h-3.883c-0.414 0-0.75 0.336-0.75 0.75v0 1.011c-1.814-0.279-3.443-0.74-4.981-1.374l0.143 0.052c-1.159-0.415-2.496-0.654-3.89-0.654-1.606 0-3.138 0.319-4.536 0.896l0.079-0.029c-1.242 0.552-2.297 1.136-3.295 1.8l0.081-0.051c-0.337 0.208-0.674 0.417-1.014 0.618-1.646 0.975-2.958 1.823-4.127 2.671-0.576 0.408-1.078 0.812-1.555 1.244l0.014-0.012c-0.377 0.304-0.678 0.686-0.882 1.123l-0.008 0.019c-0.032 0.081-0.051 0.175-0.051 0.273 0 0.056 0.006 0.11 0.017 0.162l-0.001-0.005c0.147 1.016 0.756 1.864 1.604 2.336l0.016 0.008c0.377 0.186 0.82 0.295 1.289 0.295 0.013 0 0.026 0 0.039 0h-0.002c0.612-0.008 1.191-0.142 1.715-0.377l-0.027 0.011 5.778-2.597c-0.003 0.047-0.026 0.088-0.026 0.135 0.014 1.371 1.129 2.477 2.502 2.477 0.069 0 0.136-0.003 0.204-0.008l-0.009 0.001h3.783l4.76 1.395c0.062 0.019 0.134 0.030 0.208 0.030 0.001 0 0.002 0 0.003 0h2.168v0.757c0 0.414 0.336 0.75 0.75 0.75h3.883c0.414 0 0.75-0.336 0.75-0.75v0-12.207c0-0.414-0.336-0.75-0.75-0.75v0zM23.258 12.206l-4.76-1.394c-0.062-0.019-0.134-0.030-0.208-0.030-0.001 0-0.002 0-0.003 0h-3.89c-0.883 0-1.196-0.522-1.196-0.97s0.313-0.97 1.196-0.97h6.809c0.414 0 0.75-0.336 0.75-0.75s-0.336-0.75-0.75-0.75v0h-7.782c-0.111 0-0.217 0.024-0.312 0.067l0.005-0.002-7.793 3.503c-0.287 0.132-0.624 0.21-0.978 0.21-0.266 0-0.522-0.043-0.76-0.124l0.017 0.005c-0.382-0.229-0.657-0.604-0.751-1.045l-0.002-0.011c0.136-0.159 0.278-0.303 0.431-0.435l0.005-0.004c0.413-0.373 0.861-0.732 1.33-1.063l0.045-0.030c1.132-0.821 2.407-1.646 4.013-2.596 0.348-0.207 0.693-0.421 1.038-0.634 0.854-0.573 1.836-1.119 2.864-1.583l0.129-0.052c1.153-0.474 2.491-0.75 3.894-0.75 1.202 0 2.357 0.202 3.433 0.575l-0.074-0.022c1.554 0.647 3.362 1.145 5.245 1.409l0.118 0.014v7.434zM29.201 13.713h-2.383v-10.707h2.383z"></path>
</symbol>
<symbol id="icon-stone-massage" viewBox="0 0 32 32">
<path d="M16.467 25.964c0.396 0 0.717 0.321 0.717 0.717s-0.321 0.717-0.717 0.717h-0.91c-0.396 0-0.717-0.321-0.717-0.717s0.321-0.717 0.717-0.717h0.91zM19.197 13.349c0.182 0 0.364-0.069 0.504-0.207 0.281-0.278 0.284-0.732 0.005-1.014-1.547-1.563-1.872-3.473-1.873-4.799-0-0.396-0.321-0.716-0.717-0.716-0 0-0 0-0 0-0.396 0-0.716 0.321-0.716 0.717 0.001 2.255 0.814 4.317 2.288 5.806 0.14 0.142 0.325 0.213 0.509 0.213zM16.762 24.135h-1.499c-0.992 0-1.799-0.807-1.799-1.799s0.807-1.799 1.799-1.799h1.499c0.992 0 1.799 0.807 1.799 1.799s-0.807 1.799-1.799 1.799zM17.128 22.336c0-0.198-0.168-0.366-0.366-0.366h-1.499c-0.198 0-0.366 0.168-0.366 0.366s0.168 0.366 0.366 0.366h1.499c0.198 0 0.366-0.168 0.366-0.366zM17.086 19.213h-2.147c-1.25 0-2.267-1.017-2.267-2.267s1.017-2.267 2.267-2.267h2.147c1.25 0 2.267 1.017 2.267 2.267s-1.017 2.267-2.267 2.267zM17.919 16.946c0-0.459-0.374-0.833-0.833-0.833h-2.147c-0.46 0-0.833 0.374-0.833 0.833s0.374 0.834 0.833 0.834h2.147c0.459 0 0.833-0.374 0.833-0.833zM23.999 9.68c0.101-0.167 0.187-0.342 0.255-0.522 0.14-0.37-0.046-0.784-0.416-0.924s-0.784 0.046-0.924 0.416c-0.051 0.133-0.118 0.262-0.201 0.384-0.013 0.016-0.025 0.033-0.036 0.051-0.299 0.413-0.772 0.749-1.339 0.938-0.375 0.125-0.579 0.531-0.454 0.906s0.531 0.579 0.906 0.454c0.261-0.087 0.51-0.196 0.744-0.325-0.078 1.809-0.286 3.579-0.489 5.303-0.438 3.719-0.891 7.565-0.006 11.707 0.072 0.337 0.369 0.567 0.7 0.567 0.050 0 0.1-0.005 0.15-0.016 0.387-0.083 0.634-0.463 0.551-0.851-0.835-3.911-0.416-7.471 0.028-11.241 0.259-2.201 0.527-4.475 0.531-6.848zM25.075 25.981c-0.378-0.117-0.779 0.095-0.896 0.473s0.095 0.779 0.473 0.896c1.653 0.512 2.011 1.002 2.011 1.096 0 0.122-0.496 0.739-2.786 1.311-2.092 0.522-4.884 0.81-7.864 0.81s-5.772-0.288-7.864-0.81c-2.29-0.572-2.786-1.189-2.786-1.311 0-0.094 0.358-0.584 2.011-1.096 0.378-0.117 0.59-0.518 0.473-0.896s-0.518-0.59-0.896-0.473c-2.004 0.62-3.020 1.449-3.020 2.465 0 1.151 1.303 2.060 3.872 2.702 2.202 0.55 5.118 0.853 8.211 0.853s6.009-0.303 8.211-0.853c2.569-0.641 3.872-1.55 3.872-2.702-0-1.015-1.016-1.845-3.021-2.465zM12.324 13.142c0.14 0.138 0.322 0.207 0.504 0.207 0.185 0 0.369-0.071 0.509-0.213 1.474-1.49 2.286-3.552 2.287-5.806 0-0.396-0.32-0.717-0.716-0.717-0 0-0 0-0 0-0.396 0-0.716 0.321-0.717 0.716-0.001 1.326-0.326 3.236-1.873 4.799-0.278 0.281-0.276 0.735 0.005 1.013zM27.102 4.257c-0.937-0.948-2.265-1.514-3.553-1.514h-2.017c-0.62 0-1.525-0.845-1.808-1.976l-0.056-0.225c-0.096-0.384-0.486-0.617-0.869-0.521s-0.617 0.486-0.521 0.87l0.056 0.224c0.43 1.716 1.835 3.060 3.198 3.060h2.017c0.899 0 1.87 0.417 2.533 1.088 0.945 0.957 1.21 1.916 0.977 3.54l-2.139 14.923c-0.056 0.392 0.216 0.755 0.608 0.811 0.035 0.005 0.069 0.007 0.103 0.007 0.351 0 0.657-0.258 0.709-0.615l2.139-14.924c0.295-2.056-0.117-3.476-1.376-4.751zM11.14 10.928c0.125-0.376-0.078-0.781-0.454-0.906-0.567-0.189-1.041-0.525-1.339-0.938-0.011-0.017-0.023-0.034-0.035-0.051-0.083-0.122-0.151-0.251-0.202-0.384-0.14-0.37-0.554-0.556-0.924-0.416s-0.556 0.554-0.415 0.924c0.068 0.18 0.154 0.355 0.255 0.522 0.004 2.372 0.271 4.646 0.531 6.848 0.444 3.769 0.863 7.33 0.028 11.241-0.083 0.387 0.164 0.768 0.551 0.851 0.050 0.011 0.101 0.016 0.15 0.016 0.331 0 0.628-0.231 0.7-0.567 0.885-4.143 0.432-7.989-0.006-11.708-0.203-1.724-0.412-3.494-0.489-5.303 0.233 0.129 0.482 0.238 0.743 0.325 0.376 0.125 0.781-0.078 0.906-0.454zM6.37 24.546c0.034 0 0.068-0.002 0.103-0.007 0.392-0.056 0.664-0.419 0.608-0.811l-2.139-14.923c-0.233-1.624 0.032-2.584 0.977-3.54 0.663-0.671 1.634-1.088 2.533-1.088h2.016c1.364 0 2.769-1.344 3.198-3.060l0.056-0.225c0.096-0.384-0.137-0.773-0.521-0.87s-0.773 0.137-0.87 0.52l-0.057 0.225c-0.283 1.131-1.188 1.975-1.808 1.975h-2.016c-1.288 0-2.616 0.566-3.553 1.514-1.259 1.275-1.671 2.696-1.376 4.751l2.139 14.924c0.051 0.357 0.358 0.615 0.708 0.615z"></path>
</symbol>
<symbol id="icon-massage-old" viewBox="0 0 32 32">
<path d="M20.837 30.265h-20.837v-1.943c0.379 0.301 0.863 0.484 1.384 0.484h18.014l1.439 1.459zM9.017 1.735c-1.117 0-2.024 0.907-2.024 2.024 0 0.694 0.349 1.307 0.883 1.672 0.23-0.636 0.603-1.222 1.097-1.716s1.080-0.867 1.716-1.097c-0.366-0.535-0.978-0.883-1.672-0.883zM8.438 7.039c0 2.132 1.73 3.859 3.859 3.859s3.859-1.73 3.859-3.859c0-2.132-1.73-3.859-3.859-3.859-0.454 0-0.887 0.078-1.29 0.22-1.093 0.389-1.963 1.256-2.349 2.349-0.142 0.406-0.22 0.839-0.22 1.29zM6.343 12.363c-0.904 2.004-2.874 7.125-3.415 8.415h6.722c0.149-0.366 0.315-0.721 0.498-1.056 0.633-1.181 2.61-1.767 2.139-3.415-0.003-0.014-0.010-0.027-0.014-0.044l1.77 1.679c0.132 0.125 0.291 0.227 0.46 0.291l4.84 1.848c0.162 0.061 0.332 0.091 0.498 0.091 0.562 0 1.090-0.342 1.3-0.897 0.274-0.718-0.085-1.523-0.806-1.797l-4.278-1.635c-0.2-0.078-0.383-0.193-0.538-0.338 0 0-3.767-3.574-3.771-3.578-0.159-0.152-0.366-0.25-0.582-0.322-0.051-0.017-0.105-0.034-0.159-0.047-0.058-0.017-0.118-0.034-0.179-0.047-0.941-0.25-1.987-0.464-2.955-0.379-0.318 0.027-0.667 0.108-0.938 0.294-0.311 0.223-0.44 0.602-0.592 0.938zM1.384 27.96h18.366l1.76 1.784c0.166 0.169 0.366 0.301 0.579 0.389 0.21 0.085 0.433 0.132 0.663 0.132h7.501c0.975 0 1.76-0.799 1.747-1.774-0.017-0.958-0.816-1.716-1.774-1.716h-6.743l-4.583-4.651c-0.355-0.362-0.565-0.511-1.202-0.511-1.097 0-16.315 0.010-16.315 0.010-0.765 0-1.384 0.619-1.384 1.384v3.568c0 0.765 0.619 1.384 1.384 1.384zM29.482 21.576c0-2.21-1.794-4.004-4.004-4.004s-4.004 1.794-4.004 4.004c0 2.21 1.794 4.004 4.004 4.004s4.004-1.791 4.004-4.004z"></path>
</symbol>
<symbol id="icon-hand" viewBox="0 0 32 32">
<path d="M26.479 3.94c0-0.784-0.637-1.421-1.42-1.421s-1.419 0.636-1.419 1.421v7.014c-0.287-0.070-0.593-0.136-0.915-0.203v-8.82c0-0.784-0.638-1.419-1.42-1.419-0.784 0-1.42 0.634-1.42 1.419v8.23c-0.306-0.067-0.611-0.131-0.914-0.19v-8.552c-0-0.781-0.636-1.419-1.418-1.419-0.787 0-1.42 0.638-1.42 1.419v8.206c-0.322 0-0.622 0.028-0.914 0.074v-5.731c0-0.782-0.638-1.417-1.42-1.417-0.785 0-1.419 0.635-1.419 1.417 0 0-0.010 9.866-0.006 10.084-0.164 1.372-2.636-1.404-4.802-1.993-2.295-0.626-2.876 1.555-0.625 3.338 3.802 3.018 7.086 9.538 7.086 12.041v4.562h9.827l-0.147-3.915c0-2.327 2.769-4.913 2.769-11.12v-13.025z"></path>
</symbol>
<symbol id="icon-waist" viewBox="0 0 32 32">
<path d="M24.875 19.53c-0.004-0.007-0.009-0.014-0.013-0.021-1.189-1.837-1.818-3.965-1.818-6.154 0-1.527 0.302-3.013 0.898-4.419 1.104-2.605 1.663-5.36 1.663-8.19 0-0.412-0.334-0.745-0.745-0.745s-0.745 0.334-0.745 0.745c0 2.023-0.309 4.005-0.919 5.915-4.669-1.539-9.722-1.539-14.391-0-0.61-1.909-0.919-3.891-0.919-5.915 0-0.412-0.334-0.745-0.745-0.745s-0.745 0.334-0.745 0.745c0 2.829 0.56 5.585 1.663 8.19 0.596 1.406 0.898 2.893 0.898 4.419 0 2.189-0.629 4.317-1.818 6.154-0.005 0.007-0.009 0.014-0.013 0.021-1.337 2.074-2.043 4.474-2.043 6.943v4.782c0 0.412 0.334 0.745 0.745 0.745s0.745-0.334 0.745-0.745v-3.78c1.086-0.848 3.057-0.814 4.834 0.12 0.971 0.51 1.798 1.237 2.35 2.063v1.597c0 0.412 0.334 0.745 0.745 0.745s0.745-0.334 0.745-0.745v-1.042c0.501 0.012 1.003 0.012 1.503 0v1.042c0 0.412 0.334 0.745 0.745 0.745s0.745-0.334 0.745-0.745v-1.597c0.551-0.825 1.379-1.552 2.351-2.063 1.777-0.933 3.748-0.968 4.834-0.12v3.78c0 0.412 0.334 0.745 0.745 0.745s0.745-0.334 0.745-0.745v-4.782c0-2.469-0.706-4.869-2.043-6.943zM10.447 13.354c0-1.728-0.342-3.41-1.016-5.001-0.041-0.097-0.080-0.194-0.119-0.291 4.341-1.421 9.035-1.421 13.376 0-0.039 0.097-0.078 0.194-0.119 0.291-0.674 1.591-1.016 3.273-1.016 5.001 0 2.469 0.707 4.87 2.044 6.944 0 0 0 0 0 0.001-2.433 0.921-4.984 1.389-7.597 1.389s-5.164-0.468-7.597-1.388c0-0 0-0 0-0.001 1.337-2.074 2.044-4.475 2.044-6.944zM19.9 26.275c-1.143 0.6-2.13 1.456-2.816 2.436-0.721 0.026-1.447 0.026-2.168 0-0.687-0.98-1.673-1.836-2.816-2.436-1.899-0.997-3.963-1.158-5.503-0.518 0.091-1.441 0.455-2.844 1.072-4.142 2.664 1.037 5.463 1.563 8.331 1.563s5.668-0.526 8.331-1.563c0.617 1.298 0.981 2.701 1.072 4.142-1.541-0.64-3.605-0.479-5.503 0.518z"></path>
<path d="M16.727 16.721c0 0.401-0.325 0.727-0.727 0.727s-0.727-0.325-0.727-0.727c0-0.401 0.325-0.727 0.727-0.727s0.727 0.325 0.727 0.727z"></path>
</symbol>
<symbol id="icon-standing-human-body" viewBox="0 0 32 32">
<path d="M16.171 18.295c-0.047 0.555 0.33 3.494 0.524 4.646 0.093 0.546 0.346 1.435 0.255 1.908-0.13 0.658-0.168 1.51-0.096 2.006 0.045 0.301 0.188 1.69-0.016 2.198-0.107 0.266-0.302 1.632-0.302 1.632-0.509 1.286-0.222 1.223-0.222 1.223 0.158 0.194 0.428 0.015 0.428 0.015 0.206 0.131 0.348-0.031 0.348-0.031 0.177 0.146 0.383-0.018 0.383-0.018 0.222 0.115 0.428-0.097 0.428-0.097 0.128 0.064 0.159-0.017 0.159-0.017 0.382-0.024-0.213-1.248-0.213-1.248-0.143-1.099 0.142-1.711 0.142-1.711 0.931-2.761 0.979-3.494 0.606-4.535-0.105-0.3-0.131-0.419-0.083-0.55 0.111-0.301 0.030-1.512 0.166-1.993 0.262-0.927 0.521-3.279 0.656-4.376 0.181-1.478-0.642-3.46-0.642-3.46-0.18-0.806 0.084-3.68 0.084-3.68 0.369 0.575 0.355 1.589 0.355 1.589-0.059 1.064 0.859 2.69 0.859 2.69 0.441 0.672 0.608 1.309 0.608 1.357 0 0.194-0.042 0.662-0.042 0.662l0.017 0.408c0.008 0.104 0.066 0.462 0.057 0.635-0.069 1.064 0.1 0.864 0.1 0.864 0.143 0 0.299-0.856 0.299-0.856 0 0.221-0.054 0.882 0.065 1.131 0.143 0.297 0.247-0.051 0.249-0.121 0.038-1.355 0.119-1 0.119-1 0.079 1.099 0.177 1.348 0.351 1.262 0.132-0.063 0.011-1.319 0.011-1.319 0.227 0.746 0.398 0.865 0.398 0.865 0.374 0.263 0.143-0.463 0.091-0.606-0.277-0.763-0.285-1.027-0.285-1.027 0.346 0.686 0.606 0.66 0.606 0.66 0.337-0.108-0.295-1.079-0.665-1.544-0.189-0.237-0.433-0.554-0.503-0.743-0.115-0.319-0.202-1.345-0.202-1.345-0.035-1.211-0.334-1.737-0.334-1.737-0.512-0.819-0.608-2.347-0.608-2.347l-0.023-2.58c-0.179-1.76-1.476-1.773-1.476-1.773-1.311-0.195-1.493-0.619-1.493-0.619-0.278-0.4-0.119-1.165-0.119-1.165 0.23-0.187 0.319-0.685 0.319-0.685 0.382-0.293 0.364-0.722 0.187-0.718-0.142 0.004-0.11-0.114-0.11-0.114 0.239-1.932-1.476-2.030-1.476-2.030h-0.262c0 0-1.716 0.099-1.477 2.030 0 0 0.032 0.118-0.111 0.114-0.176-0.005-0.193 0.425 0.188 0.718 0 0 0.089 0.497 0.319 0.685 0 0 0.159 0.766-0.119 1.165 0 0-0.182 0.423-1.493 0.619 0 0-1.299 0.013-1.476 1.773l-0.024 2.58c0 0-0.094 1.528-0.608 2.347 0 0-0.298 0.526-0.332 1.737 0 0-0.087 1.026-0.202 1.345-0.070 0.188-0.313 0.505-0.504 0.743-0.373 0.464-1.001 1.433-0.665 1.544 0 0 0.262 0.025 0.606-0.66 0 0-0.007 0.263-0.283 1.027-0.054 0.142-0.285 0.867 0.089 0.606 0 0 0.173-0.119 0.398-0.865 0 0-0.121 1.256 0.014 1.319 0.176 0.086 0.272-0.162 0.351-1.262 0 0 0.081-0.355 0.119 1 0.002 0.070 0.104 0.418 0.248 0.121 0.121-0.249 0.067-0.909 0.067-1.131 0 0 0.155 0.856 0.3 0.856 0 0 0.17 0.2 0.101-0.864-0.011-0.174 0.050-0.531 0.057-0.635l0.016-0.408c0 0-0.043-0.467-0.043-0.662 0-0.048 0.167-0.685 0.608-1.357 0 0 0.917-1.627 0.858-2.69 0 0-0.013-1.014 0.357-1.589 0 0 0.262 2.873 0.085 3.68 0 0-0.825 1.982-0.643 3.46 0.134 1.1 0.392 3.449 0.655 4.376 0.137 0.48 0.056 1.69 0.166 1.993 0.050 0.131 0.024 0.252-0.083 0.55-0.37 1.041-0.323 1.774 0.608 4.535 0 0 0.287 0.612 0.142 1.711 0 0-0.595 1.224-0.214 1.248 0 0 0.030 0.081 0.159 0.017 0 0 0.206 0.212 0.428 0.097 0 0 0.206 0.164 0.382 0.018 0 0 0.141 0.162 0.347 0.031 0 0 0.27 0.182 0.431-0.015 0 0 0.285 0.063-0.223-1.223 0 0-0.194-1.364-0.302-1.632-0.204-0.508-0.060-1.9-0.016-2.198 0.070-0.499 0.033-1.349-0.096-2.006-0.094-0.471 0.161-1.361 0.255-1.908 0.193-1.151 0.572-4.090 0.524-4.646l0.156 0.055c0.112 0 0.183-0.054 0.183-0.054z"></path>
</symbol>
<symbol id="icon-massage" viewBox="0 0 47 32">
<path fill="#BDBAB8" style="fill: var(--color1, #BDBAB8)" d="M27.745 5.273c0 2.912-2.361 5.273-5.273 5.273s-5.273-2.361-5.273-5.273c0-2.912 2.361-5.273 5.273-5.273s5.273 2.361 5.273 5.273z"></path>
<path fill="#BDBAB8" style="fill: var(--color1, #BDBAB8)" d="M42.316 12.9c2.059 2.059 2.059 5.398 0 7.457s-5.398 2.059-7.457 0c-2.059-2.059-2.059-5.398 0-7.457s5.398-2.059 7.457 0z"></path>
<path fill="#BDBAB8" style="fill: var(--color1, #BDBAB8)" d="M2.583 20.378h8.275c0.111 0 0.205 0.090 0.205 0.205v4.538c0 0.111-0.090 0.205-0.205 0.205h-8.386c-0.686 0-1.302-0.275-1.75-0.723-0.435-0.439-0.71-1.043-0.723-1.708-0.025-1.384 1.195-2.517 2.583-2.517z"></path>
<path fill="#BDBAB8" style="fill: var(--color1, #BDBAB8)" d="M45.959 26.904l-5.15 3.45-1.864 1.261c-1.031 0.698-2.435 0.427-3.125-0.608l-3.745-5.593c-0.037-0.053-0.099-0.086-0.16-0.086h-9.15c-0.086 0-0.156-0.070-0.156-0.156v-4.637c0-0.086 0.070-0.156 0.156-0.156h10.267c0.69 0 1.339 0.345 1.721 0.92l3.405 5.088c0.082 0.119 0.238 0.152 0.357 0.074l4.932-3.298c1.035-0.694 2.435-0.419 3.129 0.616s0.419 2.435-0.616 3.129z"></path>
<path fill="#BDBAB8" style="fill: var(--color1, #BDBAB8)" d="M29.786 15.955l-4.583-0.378c-0.255-0.021-0.493-0.131-0.674-0.312l-3.446-3.446c-0.509-1.179-1.68-2-3.043-2-1.832 0-3.314 1.483-3.314 3.314v6.086c0 0.168 0.14 0.308 0.308 0.308h6.016c0.168 0 0.308-0.14 0.308-0.308v-1.823l1.429 1.437c0.181 0.181 0.423 0.296 0.678 0.316l6.021 0.497c1.018 0.086 1.914-0.674 1.996-1.692v0c0.086-1.018-0.674-1.914-1.692-1.996z"></path>
<path fill="#BDBAB8" style="fill: var(--color1, #BDBAB8)" d="M1.006 26.329h9.885c0.094 0 0.168 0.074 0.168 0.168v2.246c0 0.094-0.074 0.168-0.168 0.168h-9.885c-0.209 0-0.378-0.168-0.378-0.382v-1.819c0-0.214 0.168-0.382 0.378-0.382z"></path>
<path fill="#BDBAB8" style="fill: var(--color1, #BDBAB8)" d="M32.090 26.715v1.819c0 0.214-0.168 0.382-0.378 0.382h-8.916c-0.103 0-0.185-0.082-0.185-0.185v-2.214c0-0.103 0.082-0.185 0.185-0.185h8.916c0.209 0 0.378 0.168 0.378 0.382z"></path>
<path fill="#BDBAB8" style="fill: var(--color1, #BDBAB8)" d="M21.405 20.382h-9.142c-0.094 0-0.172 0.074-0.172 0.172v10.279c0 0.094 0.078 0.172 0.172 0.172h9.142c0.094 0 0.172-0.078 0.172-0.172v-10.279c0-0.099-0.078-0.172-0.172-0.172zM17.651 28.526s-0.008 0.021-0.021 0.021h-1.967s-0.821 0-1.175-0.542c0 0-0.197-0.3-0.086-0.743 0.103-0.411 0.628-0.595 1.199-0.661 0.025 0 0.025-0.033 0.004-0.037-0.238-0.066-0.747-0.255-0.903-0.706-0.209-0.595 0.201-0.883 0.435-0.986 0.234-0.107 0.542-0.144 0.871-0.148h0.776s0.021 0.008 0.021 0.021v1.532s-0.016 0.164-0.127 0.226c-0.090 0.049-0.205 0.053-0.255 0.053-0.008 0-0.021-0.008-0.021-0.021v-1.388s0.012-0.312-0.234-0.333h-0.214s-0.46 0.045-0.456 0.846c0.004 0.825 0.472 0.891 0.472 0.891s0.152 0.025 0.259 0.021c0.012-0.004 0.025 0.008 0.025 0.021v0.037s-0.012 0.021-0.021 0.021h-0.205s-0.345 0.029-0.53 0.201c-0.193 0.181-0.357 0.587-0.14 1.203 0.008 0.021 0.164 0.361 0.542 0.382 0.39 0.021 0.448-0.103 0.448-0.103s0.053-0.086 0.053-0.287v-1.355s0.012-0.021 0.021-0.021h0.809s0.021 0.012 0.021 0.021v1.458c0 0.062 0.016 0.32 0.378 0.3 0.008 0 0.021 0.008 0.021 0.021v0.058zM18.242 26.649s-0.012 0.021-0.021 0.021h-0.936s-0.021-0.008-0.021-0.021v-1.528c0-0.168 0.136-0.304 0.304-0.304h0.078s0.021 0.008 0.021 0.021v1.351s0 0.353 0.329 0.357h0.226s0.021 0.008 0.021 0.021v0.082zM18.628 25.515h-0.070s-0.021-0.008-0.021-0.016c-0.016-0.103-0.136-0.632-0.559-0.686h-0.16s-0.021-0.008-0.021-0.021v-0.074s0.012-0.021 0.021-0.021h0.144c0.025 0 0.246-0.008 0.415-0.304 0.127-0.226 0.14-0.337 0.14-0.378 0-0.012 0.008-0.021 0.021-0.021h0.058s0.021 0.008 0.021 0.021c0 0.131-0.021 0.871 0.033 1.474 0 0.012-0.008 0.025-0.021 0.025zM19.273 24.021s-0.008 0.025-0.021 0.025h-0.062s-0.021-0.008-0.021-0.016c-0.016-0.144-0.152-1.088-0.805-1.088h-0.452s-0.25-0.008-0.246 0.341v1.392s-0.008 0.021-0.021 0.021h-0.821s-0.021-0.008-0.021-0.021v-1.433s0.029-0.308-0.267-0.32h-0.094s-0.021-0.008-0.021-0.021v-0.041s0.008-0.021 0.021-0.021h2.834s0.021 0.008 0.021 0.021c-0.008 0.136-0.058 0.867-0.025 1.162z"></path>
</symbol>
<symbol id="icon-cream" viewBox="0 0 34 32">
<path fill="#BDBAB8" style="fill: var(--color2, #BDBAB8)" d="M18.132 23.836h-10.768c-0.366 0-0.725 0.078-1.054 0.226l-3.958 1.772c-0.196 0.089-0.325 0.289-0.325 0.507v1.694c0 2.19 1.776 3.965 3.965 3.965h8.87c2.19 0 3.962-1.772 3.962-3.962v-3.507c0-0.381-0.307-0.695-0.692-0.695zM11.123 30.335s-0.007 0.018-0.018 0.018h-1.676s-0.699-0.004-1.002-0.466c0 0-0.166-0.255-0.074-0.633 0.089-0.351 0.54-0.507 1.025-0.562 0.018 0 0.022-0.030 0.004-0.033-0.203-0.055-0.636-0.215-0.773-0.599-0.174-0.51 0.174-0.755 0.374-0.843s0.462-0.122 0.744-0.126h0.658s0.018 0.007 0.018 0.015v1.306s-0.015 0.144-0.107 0.196c-0.078 0.041-0.178 0.044-0.218 0.044-0.007 0-0.015-0.007-0.015-0.018v-1.18s0.007-0.27-0.2-0.285h-0.181s-0.392 0.037-0.392 0.71v0.011c0.004 0.703 0.403 0.762 0.403 0.762s0.129 0.018 0.222 0.015c0.011 0 0.018 0.007 0.018 0.015v0.033s-0.007 0.018-0.018 0.018h-0.174s-0.292 0.022-0.451 0.174c-0.163 0.152-0.303 0.499-0.118 1.025 0.007 0.015 0.141 0.307 0.462 0.326 0.333 0.018 0.381-0.089 0.381-0.089s0.044-0.074 0.048-0.244v-1.154s0.007-0.018 0.015-0.018h0.692s0.018 0.007 0.018 0.018v1.232s-0.018 0.285 0.318 0.266c0.011 0 0.018 0.007 0.018 0.015v0.052zM11.626 28.734s-0.007 0.018-0.018 0.018h-0.795s-0.018-0.007-0.018-0.018v-1.302c0-0.144 0.118-0.263 0.263-0.263h0.063s0.018 0.011 0.018 0.018v1.154s0 0.3 0.277 0.303h0.192s0.018 0.007 0.018 0.018v0.070zM11.955 27.765h-0.059s-0.015-0.004-0.015-0.015c-0.015-0.085-0.115-0.536-0.477-0.581h-0.133s-0.018-0.007-0.018-0.015v-0.063s0.007-0.018 0.018-0.018h0.118s0.207-0.004 0.355-0.263c0.107-0.192 0.118-0.285 0.118-0.322 0-0.007 0.007-0.018 0.018-0.018h0.048s0.018 0.011 0.018 0.018c-0.004 0.115-0.018 0.744 0.026 1.258 0 0.011-0.007 0.018-0.018 0.018zM12.51 26.496s-0.007 0.018-0.018 0.018h-0.056s-0.015-0.007-0.015-0.015c-0.015-0.122-0.133-0.928-0.688-0.928h-0.385s-0.215-0.007-0.211 0.292v1.187s-0.007 0.018-0.018 0.018h-0.699s-0.018-0.007-0.018-0.018v-1.221s0.026-0.266-0.229-0.277h-0.078s-0.018-0.007-0.018-0.015v-0.037s0.007-0.015 0.018-0.015h2.415s0.018 0.007 0.018 0.018c-0.007 0.115-0.048 0.736-0.018 0.991z"></path>
<path fill="#BDBAB8" style="fill: var(--color2, #BDBAB8)" d="M10.132 22.183l4.283-1.864c0.566-0.248 1.228-0.096 1.631 0.37l0.581 0.673c0.37 0.429 0.067 1.091-0.499 1.091h-5.941c-0.152 0-0.196-0.211-0.056-0.27z"></path>
<path fill="#BDBAB8" style="fill: var(--color2, #BDBAB8)" d="M1.323 20.539l11.314-5.073c1.127-0.505 2.449 0.001 2.953 1.125v0c0.2 0.446-0.001 0.965-0.443 1.163l-13.785 6.181c-0.446 0.2-0.965-0.001-1.163-0.443v0c-0.505-1.127 0.001-2.449 1.125-2.953z"></path>
<path fill="#BDBAB8" style="fill: var(--color2, #BDBAB8)" d="M21.743 26.722h9.71c0.222 0 0.403 0.181 0.403 0.403v2.471c0 1.328-1.080 2.408-2.408 2.408h-5.696c-1.328 0-2.408-1.080-2.408-2.408v-2.471c0-0.222 0.181-0.403 0.403-0.403z"></path>
<path fill="#BDBAB8" style="fill: var(--color2, #BDBAB8)" d="M33.409 3.917h-13.664c-0.166 0-0.3 0.144-0.285 0.311l1.853 20.603c0.015 0.17 0.159 0.303 0.333 0.303h9.902c0.174 0 0.318-0.133 0.333-0.307l1.809-20.6c0.015-0.166-0.115-0.311-0.281-0.311zM27.828 18.136s-0.015 0.026-0.030 0.026h-2.504s-1.043-0.004-1.494-0.692c0 0-0.252-0.381-0.111-0.947 0.129-0.525 0.803-0.758 1.531-0.84 0.026-0.004 0.030-0.044 0.004-0.052-0.303-0.081-0.951-0.318-1.154-0.895-0.263-0.758 0.259-1.128 0.559-1.258 0.3-0.133 0.688-0.185 1.11-0.189h0.984s0.026 0.011 0.026 0.026v1.949s-0.022 0.215-0.159 0.289c-0.115 0.063-0.266 0.070-0.326 0.070-0.015 0-0.026-0.015-0.026-0.026v-1.764s0.015-0.403-0.296-0.425h-0.274c-0.026 0-0.588 0.052-0.581 1.076 0.007 1.050 0.599 1.136 0.599 1.136s0.192 0.030 0.333 0.022c0.015 0 0.026 0.011 0.026 0.026v0.048s-0.011 0.030-0.026 0.030h-0.259s-0.118 0.007-0.255 0.044c-0.137 0.037-0.3 0.1-0.418 0.211-0.244 0.229-0.459 0.747-0.178 1.531v0c0.011 0.026 0.207 0.459 0.688 0.485 0.496 0.030 0.57-0.129 0.57-0.129s0.070-0.107 0.070-0.363v-1.727s0.011-0.026 0.026-0.026h1.032s0.026 0.011 0.026 0.026v1.857c0 0.089 0.022 0.407 0.477 0.381 0.015 0 0.030 0.011 0.030 0.026v0.074zM28.578 15.747s-0.015 0.026-0.026 0.026h-1.191s-0.026-0.011-0.026-0.026v-1.949c0-0.215 0.174-0.388 0.388-0.388h0.096s0.026 0.011 0.026 0.026v1.727s0 0.444 0.418 0.451h0.289s0.026 0.011 0.026 0.026v0.107zM29.070 14.3h-0.089s-0.022-0.011-0.026-0.022c-0.022-0.129-0.17-0.806-0.71-0.869h-0.203s-0.026-0.011-0.026-0.026v-0.092s0.011-0.030 0.026-0.030h0.181c0.022 0 0.311-0.007 0.529-0.388 0.163-0.289 0.178-0.425 0.178-0.481 0-0.015 0.011-0.026 0.026-0.026h0.074s0.026 0.011 0.026 0.026c-0.004 0.17-0.026 1.11 0.041 1.879 0 0.015-0.011 0.030-0.026 0.030zM29.895 12.399s-0.011 0.030-0.026 0.030h-0.081s-0.026-0.011-0.026-0.022c-0.022-0.185-0.192-1.383-1.025-1.383h-0.577s-0.322-0.015-0.314 0.433v1.776s-0.011 0.026-0.026 0.026h-1.047s-0.026-0.011-0.026-0.026v-1.827c0.004-0.022 0.037-0.396-0.34-0.407h-0.118s-0.026-0.015-0.026-0.026v-0.056s0.011-0.026 0.026-0.026h3.61s0.026 0.015 0.026 0.030c-0.011 0.174-0.074 1.099-0.030 1.48z"></path>
<path fill="#BDBAB8" style="fill: var(--color2, #BDBAB8)" d="M20.43 0h12.321c0.721 0 1.306 0.584 1.306 1.306v0.769c0 0.207-0.17 0.377-0.377 0.377h-14.178c-0.207 0-0.377-0.17-0.377-0.377v-0.769c0-0.721 0.584-1.306 1.306-1.306z"></path>
</symbol>
<symbol id="icon-time" viewBox="0 0 43 32">
<path fill="#BDBAB8" style="fill: var(--color1, #BDBAB8)" d="M39.405 10.006l1.383-1.798c0.24-0.314 0.185-0.762-0.129-1.002l-2.12-1.635c-0.314-0.24-0.762-0.185-1.002 0.129l-1.524 1.975c-0.873-0.411-1.798-0.725-2.767-0.928-0.248-0.148-0.455-0.366-0.477-0.688-0.056-0.851 0.607-0.943 0.607-0.943h0.832c0.444 0 0.803-0.359 0.803-0.803v-3.51c0-0.444-0.359-0.803-0.803-0.803h-7.698c-0.444 0-0.803 0.359-0.803 0.803v3.51c0 0.444 0.359 0.803 0.803 0.803h1.076s0.662 0.096 0.607 0.943c-0.026 0.392-0.329 0.633-0.651 0.777-0.259 0.063-0.514 0.133-0.766 0.211 0 0 0 0 0 0v0c-0.67 0.207-1.309 0.473-1.927 0.784l-1.642-2.127c-0.24-0.314-0.692-0.37-1.002-0.129l-2.12 1.635c-0.314 0.24-0.37 0.692-0.129 1.002l1.568 2.034c-2.29 2.308-3.703 5.482-3.703 8.989 0 7.050 5.715 12.765 12.765 12.765s12.765-5.715 12.765-12.765c0-3.629-1.517-6.902-3.951-9.229zM30.591 28.978c-5.382 0-9.743-4.361-9.743-9.743s4.361-9.743 9.743-9.743 9.743 4.361 9.743 9.743-4.361 9.743-9.743 9.743z"></path>
<path fill="#BDBAB8" style="fill: var(--color1, #BDBAB8)" d="M30.765 10.757v8.478h-8.659c0 4.687 3.799 8.486 8.486 8.486s8.486-3.799 8.486-8.486-3.703-8.386-8.308-8.478z"></path>
<path fill="#BDBAB8" style="fill: var(--color1, #BDBAB8)" d="M7.198 10.757c0.756 0 1.369 0.613 1.369 1.369v11.659c0 0.756-0.613 1.369-1.369 1.369s-1.369-0.613-1.369-1.369v-11.659c0-0.756 0.613-1.369 1.369-1.369z"></path>
<path fill="#BDBAB8" style="fill: var(--color1, #BDBAB8)" d="M14.4 17.981c0 0.756-0.613 1.369-1.369 1.369h-11.659c-0.756 0-1.369-0.613-1.369-1.369s0.613-1.369 1.369-1.369h11.659c0.756 0 1.369 0.613 1.369 1.369z"></path>
</symbol>
<symbol id="icon-oil" viewBox="0 0 18 32">
<path fill="#BDBAB8" style="fill: var(--color2, #BDBAB8)" d="M8.152 15.353v-1.286c0.214-0.015 0.38-0.188 0.38-0.402s-0.166-0.387-0.38-0.398v-1.017c0-0.365-0.295-0.66-0.66-0.66h-4.242c-0.365 0-0.66 0.295-0.66 0.66v1.017c-0.214 0.007-0.383 0.184-0.383 0.398s0.17 0.394 0.383 0.402v1.305c-1.209 0.38-2.082 1.507-2.082 2.838v12.438c0 0.748 0.604 1.356 1.356 1.356h7.065c0.752 0 1.356-0.608 1.356-1.356v-12.438c0-1.353-0.903-2.495-2.138-2.856zM9.317 29.973c0 0.575-0.464 1.047-1.043 1.047h-5.745c-0.575 0-1.043-0.468-1.043-1.047v-9.387c0-0.575 0.464-1.047 1.043-1.047h5.745c0.575 0 1.043 0.468 1.043 1.047v9.387z"></path>
<path fill="#BDBAB8" style="fill: var(--color2, #BDBAB8)" d="M17.668 17.697l-8.502-9.346 1.12-1.021c0.328-0.298 0.35-0.803 0.052-1.128l-2.819-3.099c-0.298-0.328-0.803-0.35-1.128-0.052l-0.453 0.413-2.572-2.83c-0.719-0.792-1.942-0.848-2.731-0.129-0.792 0.719-0.848 1.938-0.129 2.731l2.572 2.827-0.453 0.413c-0.328 0.298-0.35 0.803-0.052 1.128l2.819 3.099c0.298 0.328 0.803 0.35 1.128 0.052l0.98-0.892 8.502 9.346c0.42 0.461 1.131 0.494 1.592 0.074s0.494-1.131 0.074-1.592z"></path>
<path fill="#BDBAB8" style="fill: var(--color2, #BDBAB8)" d="M16.289 22.418c0-0.52 0.943-2.093 0.943-2.093s0.943 1.574 0.943 2.093-0.42 0.943-0.943 0.943-0.943-0.42-0.943-0.943z"></path>
<path fill="#BDBAB8" style="fill: var(--color2, #BDBAB8)" d="M4.157 22.308c-0.007 2.067 0.785 4.452 2.48 5.694-0.649-0.059-3.040-0.424-3.398-2.558-0.295-1.743 0.608-2.403 0.77-3.943 0.807 1.323 2.075 0.461 2.956 1.909 0.851 1.404-0.409 2.856-0.188 4.448-1.592-1.349-2.274-3.542-2.62-5.55z"></path>
<path fill="#BDBAB8" style="fill: var(--color2, #BDBAB8)" d="M6.637 28.005c0.103 0.007 0.162 0.011 0.162 0.011-0.011-0.052-0.018-0.107-0.026-0.158 0.17 0.144 0.346 0.276 0.542 0.398 0.265 0.203 0.586 0.317 0.881 0.475-0.586-0.14-1.106-0.391-1.559-0.726z"></path>
</symbol>
<symbol id="icon-foot" viewBox="0 0 19 32">
<path fill="#BDBAB8" style="fill: var(--color3, #BDBAB8)" d="M15.508 6.514c-0.641-0.476-0.571 0.291-0.973 0-0.199-0.147 0.457-1.047-0.195-1.574-0.763-0.619-0.929 0.387-1.169 0.181-0.321-0.276 0.512-1.629-0.833-1.976-1.084-0.28-0.682 0.767-1.198 0.723-0.361-0.030 0.512-2.363-1.504-2.643-1.489-0.206-1.084 1.53-1.449 1.5-0.361-0.026 0.251-2.643-1.806-2.728-2.057-0.081-2.503 1.806-2.197 3.48 0.306 1.67 0.38 1.81-0.096 3.981-0.361 1.651 0.122 3.141 0.472 3.874 0.015 0.030 0.236 0.409 0.236 0.409 1.025-1.95 2.374-4.081 3.513-3.443 1.773 0.988 0.324 3.067-0.306 5.201-0.512 1.744-0.774 4.033-1.342 5.201-0.464 0.947-0.546 3.056-0.671 3.808-0.634 3.937-1.404 8.534 2.558 9.098 1.74 0.247 2.72-0.059 3.483-1.231v0c-0.435-1.257-1.065-3.292-2.094-4.921-1.183-1.884-2.016-3.531-0.833-4.423 0.973-0.737 2.978 1.139 4.438 3.111 0.015-0.151 0 0 0 0-0.203-4.147 0.291-5.891 1.368-9.134 1.592-4.788 1.231-8.018 0.593-8.489zM9.599 20.038c-1.327 0-1.736 0.509-1.95 1.78-1.047-2.094 0.634-3.096 2.433-1.795-0.166 0.015-0.328 0.015-0.483 0.015zM10.13 9.016c-0.214-1.272-0.619-1.777-1.95-1.777-0.159 0-0.313 0-0.483-0.015 1.581-1.283 3.248-0.265 2.433 1.795z"></path>
<path fill="#BDBAB8" style="fill: var(--color3, #BDBAB8)" d="M3.314 8.6c0.004-0.044-0.044-0.077-0.081-0.052-0.483 0.328-2.706 2.050-3.052 6.060-0.391 4.508-0.361 4.202 2.308 5.341s3.782-2.392 4.033-3.255 0.251-2.448 0.877-3.896 1.552-3.174 0.652-3.657-2.58 3.152-2.934 3.97c-0.033 0.081-0.136 0.103-0.199 0.041-0.442-0.431-1.847-2.009-1.603-4.556z"></path>
<path fill="#BDBAB8" style="fill: var(--color3, #BDBAB8)" d="M14.229 20.934c0-0.085 0.085-0.147 0.162-0.118 0.638 0.247 2.938 1.386 3.852 5.153 1.069 4.394 0.995 4.095-1.471 5.629s-4.103-1.788-4.482-2.602-0.619-2.381-1.46-3.716-2.016-2.901-1.202-3.517c0.855-0.649 3.535 3.137 4.073 3.918 0.070 0.1 0.221 0.085 0.265-0.026 0.144-0.365 0.321-1.463 0.258-4.718z"></path>
</symbol>
<symbol id="icon-hands" viewBox="0 0 36 32">
<path fill="#BDBAB8" style="fill: var(--color3, #BDBAB8)" d="M23.294 24.218c0.436 1.087 1.206 3.114 2.508 5.174-0.129 1.65-0.503 2.674-1.365 2.6-2.153-0.192-1.646-5.012-1.594-8.603 0.192 0.296 0.348 0.573 0.448 0.828z"></path>
<path fill="#BDBAB8" style="fill: var(--color3, #BDBAB8)" d="M35.861 14.75c-2.193-2.082-4.638-5.396-5.359-7.345-1.128-3.033-3.488-7.656-10.397-7.393-3.144 0.118-5.851-0.917-7.46 7.623 0 0 5.411-3.244 6.68-0.906 1.442 2.663-4.342 5.015-5.925 6.887-0.518 0.614-1.65 1.849-2.785 2.918-0.244 0.233-0.544 0.751-0.636 1.080-1.324 4.594-2.16 6.887-0.921 7.416 1.89 0.806 3.491-8.621 5.037-8.141 1.546 0.473-3.314 11.321-0.655 12.187 2.656 0.862 2.807-10.153 4.268-9.89s-1.964 12.634 0.936 12.812c2.837 0.166 1.846-7.412 2.508-10.781-1.761-2.071-3-4.364-1.687-5.437 1.675-1.372 4.353 0.677 6.265 3 0.059 0.070 0.252 0.074 0.259-0.015 0.248-2.929-0.092-5.33 0.521-7.282 0.070-0.222-0.063-0.459-0.288-0.521-2.578-0.699-3.34-2.707-3.384-2.833 0.122 0.115 2.053 1.968 3.784 1.897 0.588-0.022 1.128 0.595 1.849 1.468 1.195 1.439 2.874 3.562 6.069 4.586 0.27 0.089 0.551 0.166 0.84 0.237 0.828 0.2 1.483-0.607 0.477-1.561zM20.139 14.199c-1.779 0.096-2.234 1.272-2.334 2.877-1.372-2.116-0.355-4.050 2.352-3.147 0.729 0.218 0.755 0.244-0.018 0.27zM20.841 8.562c0.34-1.576 0.226-2.826-1.461-3.406-0.203-0.067-0.407-0.133-0.618-0.226 0.222-0.030 0.444-0.033 0.673-0.041 2.493-0.222 3.111 1.842 1.405 3.673z"></path>
<path fill="#BDBAB8" style="fill: var(--color3, #BDBAB8)" d="M28.963 22.291s-1.705-0.525-3.576-2.556-3.773-4.139-5.056-3.088c-1.546 1.265 2.737 4.579 3.469 6.406s2.559 6.75 7.038 8.244c0.355 0.118 0.747 0.052 1.039-0.185l3.621-2.918c0.351-0.285 0.518-0.74 0.429-1.184-0.518-2.656-2.741-11.699-9.195-13.396-0.030 3.51-0.207 5.884-0.207 5.884 0.71 0.577 1.524 1.675 2.101 2.386l0.333 0.411z"></path>
<path fill="#BDBAB8" style="fill: var(--color3, #BDBAB8)" d="M8.259 10.138s0.88-0.144 2.352-0.662c0.529-0.189 1.209-0.281 1.849-0.632 2.319-1.283 4.886-2.737 5.773-1.335 1.065 1.687-4.043 3.48-5.315 4.982s-4.56 5.596-9.283 5.6c-0.374 0-0.725-0.189-0.928-0.503l-2.515-3.913c-0.244-0.381-0.259-0.865-0.033-1.261 1.317-2.33 6.188-10.064 12.738-9.82 0.107 0.004 0.181 0.115 0.148 0.218-0.854 2.656-1.431 4.808-1.613 5.496-0.037 0.148-0.144 0.263-0.289 0.318v0c-0.854 0.322-1.672 0.732-2.441 1.228l-0.448 0.285z"></path>
</symbol>
<symbol id="icon-candles" viewBox="0 0 26 32">
<path fill="none" stroke="#BDBAB8" style="stroke: var(--color3, #BDBAB8)" stroke-linejoin="miter" stroke-linecap="butt" stroke-miterlimit="10" stroke-width="1.499" d="M25.49 3.079c0 1.286-5.538 2.329-12.37 2.329s-12.37-1.043-12.37-2.329c0-1.286 5.538-2.329 12.37-2.329s12.37 1.043 12.37 2.329z"></path>
<path fill="none" stroke="#BDBAB8" style="stroke: var(--color3, #BDBAB8)" stroke-linejoin="miter" stroke-linecap="butt" stroke-miterlimit="10" stroke-width="1.499" d="M0.749 3.079v25.155c0 1.664 1.348 3.016 3.016 3.016h18.711c1.664 0 3.016-1.348 3.016-3.016v-25.155"></path>
<path fill="none" stroke="#BDBAB8" style="stroke: var(--color3, #BDBAB8)" stroke-linejoin="miter" stroke-linecap="butt" stroke-miterlimit="10" stroke-width="1.499" d="M0.749 3.079v21c0 3.96 3.211 7.172 7.172 7.172h10.401c3.96 0 7.172-3.211 7.172-7.172v-21"></path>
<path fill="#BDBAB8" style="fill: var(--color3, #BDBAB8)" d="M24.759 27.183l-4.196 3.714h2.311l1.58-0.143 0.926-1.099 0.191-1.374-0.812-1.099z"></path>
<path fill="#BDBAB8" style="fill: var(--color3, #BDBAB8)" d="M1.084 27.136l4.993 4.192-3.273-0.235-2.054-1.613 0.334-2.344z"></path>
<path fill="#BDBAB8" style="fill: var(--color3, #BDBAB8)" d="M4.023 19.986h18.149c0.573 0 1.040 0.467 1.040 1.040v3.262c0 2.726-2.215 4.941-4.941 4.941h-10.346c-2.726 0-4.941-2.215-4.941-4.941v-3.262c0-0.573 0.467-1.040 1.040-1.040z"></path>
<path fill="#BDBAB8" style="fill: var(--color3, #BDBAB8)" d="M13.167 18.954c-2.072 0-3.38-1.708-2.054-4.607s2.594-3.097 2.535-5.996c-0.301 4.787 1.007 5.393 1.708 7.183s-0.040 3.42-2.193 3.42z"></path>
</symbol>
</defs>
</svg>
