<svg aria-hidden="true" style="position: absolute; width: 0; height: 0; overflow: hidden;" version="1.1" xmlns="http://www.w3.org/2000/svg" xmlns:xlink="http://www.w3.org/1999/xlink">
<defs>
<symbol id="icon-cream-lotion-svgrepo-com-1" viewBox="0 0 32 32">
<path d="M8.167 12.292c0 0.35-0.283 0.633-0.633 0.633s-0.633-0.283-0.633-0.633c0-0.35 0.283-0.633 0.633-0.633s0.633 0.283 0.633 0.633z"></path>
<path d="M28.926 11.629c-0.398-0.457-0.987-0.719-1.615-0.719h-5.117v-1.083c0-1.586-1.291-2.877-2.877-2.877h-0.496v-0.081c0-1.134-0.899-2.061-2.021-2.107v-1.078c0.47-0.11 0.878-0.268 1.221-0.476 0.638-0.387 0.914-0.854 1.033-1.178 0.266-0.723-0.014-1.552-0.638-1.886-0.176-0.094-0.364-0.142-0.559-0.142-0.423 0-0.821 0.235-1.061 0.619-0.121 0.079-0.585 0.319-1.767 0.319h-2.945c-1.496 0-2.425 1.023-2.425 2.669 0 0.807 0.582 1.464 1.296 1.464 0.637 0 1.168-0.521 1.276-1.206h1.414v0.896c-1.122 0.047-2.021 0.974-2.021 2.107v0.081h-0.496c-1.586 0-2.877 1.291-2.877 2.877v0.043h-1.854c-0.822 0-1.492 0.669-1.492 1.492v2.819c-0.449 0.384-0.735 0.955-0.735 1.591v0.929c-0.852 0.609-1.433 1.581-1.507 2.697-0.033 0.491-0.055 1.009-0.067 1.541-0.006 0.269 0.208 0.492 0.477 0.498s0.493-0.208 0.498-0.477c0.011-0.518 0.033-1.022 0.065-1.498 0.065-0.985 0.672-1.817 1.516-2.211 0.006-0.003 0.012-0.006 0.018-0.008 0.338-0.153 0.711-0.236 1.082-0.236h2.557c0.372 0 0.744 0.082 1.082 0.236 0.006 0.003 0.012 0.006 0.018 0.008 0.853 0.396 1.454 1.271 1.516 2.211 0.049 0.741 0.074 1.502 0.074 2.261 0 0.359-0.010 0.718-0.017 1.077-0 0.013-0.001 0.025-0.001 0.038-0.004 0.127-0.357 0.477-0.431 0.608-0.121 0.215-0.219 0.443-0.292 0.679-0.165 0.536-0.2 1.102-0.21 1.659-0.014 0.835 0.069 1.674 0.253 2.489 0.001 0.003 0.001 0.007 0.002 0.011-0.308 0.847-1.101 1.408-2.009 1.408h-2.526c-1.004 0-1.885-0.716-2.094-1.703-0.332-1.565-0.531-3.282-0.591-5.104-0.009-0.269-0.236-0.481-0.504-0.471-0.269 0.009-0.48 0.235-0.471 0.504 0.063 1.878 0.269 3.653 0.612 5.274 0.304 1.435 1.586 2.477 3.048 2.477h2.526c0.95 0 1.812-0.42 2.389-1.113 0.308 0.82 0.723 1.582 1.236 2.254 0.092 0.121 0.236 0.192 0.388 0.192h9.205c0.152 0 0.296-0.071 0.388-0.192 0.148-0.195 0.289-0.397 0.421-0.605h4.194c0.269 0 0.488-0.218 0.488-0.488v-4.027l1.158-8.366c0.037-0.267-0.149-0.513-0.416-0.55s-0.513 0.149-0.55 0.416l-0.926 6.693h-2.55c-0.033-0.32-0.103-0.637-0.217-0.939-0.347-0.926-1.058-1.657-1.951-2.038 0 0-0.018-0.128-0.018-0.128s-1.215-8.778-1.215-8.778c-0.004-0.031-0.007-0.063-0.008-0.094-0-0.002-0-0.003-0-0.005-0.009-0.316 0.16-0.6 0.407-0.787 0.198-0.15 0.458-0.226 0.705-0.226h5.386c0.346 0 0.666 0.14 0.879 0.385 0.181 0.208 0.261 0.467 0.225 0.728l-0.448 3.238c-0.037 0.267 0.149 0.513 0.416 0.55s0.513-0.15 0.55-0.416l0.448-3.239c0.076-0.545-0.087-1.078-0.456-1.502zM12.086 2.889v0c-0.225 0-0.504 0.026-0.666 0.203-0.127 0.139-0.142 0.335-0.142 0.514 0 0.288-0.169 0.488-0.321 0.488s-0.321-0.2-0.321-0.488c0-1.473 0.908-1.693 1.449-1.693 0 0 2.944 0 2.945 0 0.455 0 0.928-0.029 1.379-0.127 0.389-0.084 0.825-0.209 1.111-0.502 0.105-0.107 0.155-0.309 0.337-0.309 0.032 0 0.064 0.009 0.097 0.026 0.172 0.092 0.287 0.407 0.183 0.689-0.084 0.227-0.447 0.871-1.894 1.108-0.003 0.001-0.007 0.001-0.011 0.001-0.397 0.065-0.802 0.088-1.204 0.088h-2.944zM15.825 3.833v0.926h-1.201c0 0 0-0.894 0-0.894 0.001 0.021 1.201-0.022 1.201-0.032zM13.737 5.735h2.976c0.625 0 1.134 0.509 1.134 1.134v0.081h-5.243v-0.081h-0c0-0.625 0.509-1.134 1.134-1.134zM5.885 11.363c0-0.001 0-0.002 0-0.002 0-0.284 0.231-0.516 0.516-0.516h2.267c0.011 0 0.022 0.001 0.032 0.002 0.002 0 0.004 0.001 0.006 0.001 0.572 0.042 0.477 0.707 0.477 1.108 0 0.486 0 0.971 0 1.457 0 0.1 0 0.201 0 0.301-0.126-0.023-0.254-0.035-0.382-0.035 0 0-2.534 0-2.535 0-0.118 0-0.256 0.034-0.38 0.030-0.038-0.777-0.002-1.566-0.002-2.345zM9.919 16.206c-0-0.142-0.969-0.175-1.106-0.175h-2.557c-0.374 0-0.75 0.059-1.106 0.175 0 0 0-0.435 0-0.435 0-0.603 0.514-1.117 1.117-1.117h2.535c0.367 0 0.721 0.19 0.926 0.493 0.214 0.317 0.191 0.694 0.191 1.059zM23.576 29.767c0.007-0.024 0.013-0.043 0.017-0.055 0.17-0.479 0.321-0.966 0.432-1.462 0.175-0.784 0.26-1.59 0.251-2.394h2.254v4.371c0 0-3.172 0-3.174 0 0.084 0 0.177-0.318 0.22-0.46zM23.053 24.193h-2.304c-0.269 0-0.488 0.218-0.488 0.488s0.218 0.488 0.488 0.488h2.519c0.002 0.021 0.003 0.042 0.005 0.063 0.152 2.021-0.317 4.129-1.503 5.793h-8.713c-0.598-0.839-1.031-1.823-1.282-2.886-0.228-0.968-0.299-1.979-0.217-2.97h7.239c0.269 0 0.488-0.218 0.488-0.488s-0.218-0.488-0.488-0.488h-7.025c0.127-0.299 0.309-0.574 0.541-0.811 0.487-0.497 1.182-0.794 1.887-0.794 0 0 6.425 0 6.426 0 0.223 0 0.443 0.029 0.655 0.084 0.781 0.204 1.452 0.762 1.772 1.521zM21.219 11.025c0-0.003-0.582 0.302-0.637 0.346-0.957 0.763-0.711 1.878-0.565 2.931l1.015 7.333c-0.003-0-0.006-0-0.010-0.001-0.056-0.006-0.112-0.011-0.168-0.014-0.012-0.001-0.025-0.002-0.037-0.003-0.063-0.003-0.127-0.005-0.191-0.005h-6.426c-0.309 0-0.618 0.040-0.917 0.118-0.146 0.038-0.289 0.085-0.429 0.14-0.051 0.020-0.377 0.133-0.377 0.176 0.001-0.108 0.002-0.216 0.002-0.324 0-0.781-0.026-1.564-0.076-2.326-0.037-0.556-0.207-1.104-0.488-1.584-0.127-0.218-0.278-0.423-0.448-0.61-0.088-0.097-0.181-0.188-0.279-0.275-0.037-0.032-0.292-0.197-0.292-0.232 0 0 0-0.926 0-0.926 0-0.602-0.272-1.199-0.735-1.593v-2.818c0-0.035-0.002-0.069-0.004-0.104-0.001-0.007-0.001-0.014-0.002-0.021-0.047-0.569-0.416-1.049-0.923-1.256v-0.153c0-1.048 0.853-1.901 1.901-1.901h8.186c1.048 0 1.901 0.853 1.901 1.901 0-0 0 1.199 0 1.199z"></path>
</symbol>
<symbol id="icon-ok-hand-svgrepo-com" viewBox="0 0 32 32">
<path d="M27.433 19.742h0.005c-0.073-1.685-0.363-7.431-1.063-10.598-0.202-0.918-1.056-1.976-2.137-3.316-0.869-1.077-1.854-2.299-2.589-3.594-0.588-1.035-1.455-1.456-2.317-1.122-0.964 0.371-1.746 1.669-1.806 3.434-0.982-1.090-1.623-1.114-2.298-0.673-0.955 0.621-1.377 2.494-0.428 4.554 0.45 0.978 1.164 1.546 1.792 2.047 0.473 0.377 0.88 0.701 1.069 1.114l0.18 0.412c-0.46-0.224-0.889-0.428-1.273-0.609-0.931-0.441-1.61-0.636-2.204-0.636-0.804 0-1.385 0.354-2.12 0.802-0.923 0.562-2.186 1.33-4.717 1.969-0.753 0.19-1.279 0.566-1.519 1.089s-0.185 1.145 0.167 1.851l0.010 0.018c-2.242 0.555-1.226 3.305-1.597 5.985-0.098 0.703-0.206 1.252 0.263 1.986 2.935 4.587 6.485 6.544 11.871 6.544 2.152 0 3.671-0.052 5.121-0.743 1.81-0.862 5.107-5.227 5.596-8.773 0.087-0.623 0.081-1.205-0.005-1.742zM19.018 2.708c0.412-1.198 1.475-1.089 1.913-0.292 0.756 1.377 1.779 2.752 2.673 3.86 0.919 1.138 1.849 2.294 2.001 2.983 0.485 2.197 0.71 6.17 0.86 8.61-0.954-1.25-2.646-2.423-3.793-3.169-0.157-0.966-0.456-2.65-0.966-4.9-0.34-1.505-2.15-2.383-2.631-4.484-0.222-0.974-0.303-1.891-0.056-2.608zM15.659 7.479c-0.261-0.528-0.554-2.521 0.186-3.073 0.688-0.514 1.24 0.489 1.729 1.282 0.23 1.458 1.108 2.755 1.727 3.495 0.482 0.576 0.898 1.073 1.018 1.65 0.149 0.713 0.354 1.883 0.498 2.734-0.22-0.137-0.657-0.381-1.099-0.618l-0.238-0.117c-0.529-1.27-0.962-2.198-1.421-3.111l0.131 0.288c-0.451-0.919-1.896-1.248-2.531-2.53zM21.092 28.78c-1.29 0.616-2.622 0.671-4.721 0.671-4.774 0-9.515-2.377-11.002-5.719-0.253-0.567-0.010-1.372-0.010-2.442 0-2.562 0.063-4.078 1.36-4.078 0.623 0 2.59 1.5 2.59 5.307l4.73 2.136c1.38-1.415 5.303-3.642 5.303-3.642-0.617-0.785-0.284-3.022-0.284-3.022-1.294-0.166-4.044-1.47-4.992-3.293-1.21 1.043-6.833 2.986-7.196 0.531-0.107-0.726 0.545-0.982 0.802-1.047 2.678-0.676 3.972-1.454 4.893-2.015 0.671-0.409 1.306-0.75 1.829-0.75 0.438 0 1.117 0.22 1.907 0.594 2.244 1.061 5.98 2.731 9.302 5.64 0.309 0.271 0.703 0.867 0.828 1.25 1.133 3.462-3.551 9.023-5.341 9.88zM18.273 21.055c-0.901 0.477-3.006 1.644-4.268 2.79l-3.5-2.256c0-1.909-0.415-3.29-1.020-4.183 1.531-0.099 3.426-0.5 4.387-1.014 0.679 0.708 2.407 2.317 4.295 2.573-0.071 0.555-0.117 1.398 0.105 2.091z"></path>
</symbol>
<symbol id="icon-calendar-svgrepo-com-1" viewBox="0 0 32 32">
<path d="M29.213 3.924h-4.718v-1.086c0-0.505-0.41-0.914-0.914-0.914s-0.914 0.41-0.914 0.914v1.086h-2.286v-1.086c0-0.505-0.41-0.914-0.914-0.914s-0.914 0.41-0.914 0.914v1.086h-2.286v-1.086c0-0.505-0.41-0.914-0.914-0.914s-0.914 0.41-0.914 0.914v1.086h-2.286v-1.086c0-0.505-0.41-0.914-0.914-0.914s-0.914 0.41-0.914 0.914v1.086h-2.286v-1.086c0-0.505-0.41-0.914-0.914-0.914s-0.914 0.41-0.914 0.914v1.086h-2.597c-1.010 0-2.432 1.216-2.432 2.226v22.4c0 1.010 1.422 1.431 2.432 1.431h25.6c1.010 0 1.225-0.422 1.225-1.431v-22.4c0-1.010-0.215-2.226-1.225-2.226zM6.209 5.752v1.2c0 0.505 0.41 0.914 0.914 0.914s0.914-0.41 0.914-0.914v-1.2h2.286v1.2c0 0.505 0.41 0.914 0.914 0.914s0.914-0.41 0.914-0.914v-1.2h2.286v1.2c0 0.505 0.41 0.914 0.914 0.914s0.914-0.41 0.914-0.914v-1.2h2.286v1.2c0 0.505 0.41 0.914 0.914 0.914s0.914-0.41 0.914-0.914v-1.2h2.286v1.2c0 0.505 0.41 0.914 0.914 0.914s0.914-0.41 0.914-0.914v-1.2h4.114v4.571h-25.6v-4.571h3.2zM3.009 28.152v-16.914h25.6v16.914h-25.6z"></path>
<path d="M13.908 19.163c1.121-0.678 2.286-1.37 2.286-2.858 0-1.347-0.996-2.211-2.44-2.211-1.477 0-2.515 1.013-2.515 2.522v0.109h1.042c0.021-0.914 0.345-1.871 1.488-1.871 0.873 0 1.477 0.618 1.477 1.469 0 1.11-1.002 1.686-1.822 2.203-1.326 0.83-2.179 1.399-2.275 3.228h4.662v-0.914h-3.606c0.206-0.914 1.003-1.255 1.704-1.675z"></path>
<path d="M22.209 13.981h-5.029v0.914h4.191c-1.618 1.829-2.826 4.114-2.997 6.857h1.013c0.313-3.2 1.45-5.040 2.822-6.722v-1.050z"></path>
<path d="M26.781 22.495c-0.253 0-0.457 0.205-0.457 0.457v3.371h-2.362c-0.253 0-0.457 0.204-0.457 0.457s0.204 0.457 0.457 0.457h3.2c0.253 0 0.076 0.081 0.076-0.171v-4.114c0-0.252-0.204-0.457-0.457-0.457z"></path>
<path d="M22.134 26.324h-0.914c-0.253 0-0.457 0.204-0.457 0.457s0.204 0.457 0.457 0.457h0.914c0.253 0 0.457-0.204 0.457-0.457s-0.204-0.457-0.457-0.457z"></path>
</symbol>
<symbol id="icon-low-bars-svgrepo-com" viewBox="0 0 32 32">
<path d="M12.667 14c0-1.105 0.895-2 2-2h2.667c1.105 0 2 0.895 2 2v12c0 1.105-0.895 2-2 2h-2.667c-1.105 0-2-0.895-2-2v-12zM14.667 13.333c-0.368 0-0.667 0.298-0.667 0.667v12c0 0.368 0.298 0.667 0.667 0.667h2.667c0.368 0 0.667-0.298 0.667-0.667v-12c0-0.368-0.298-0.667-0.667-0.667h-2.667z"></path>
<path d="M4 22c0-1.105 0.895-2 2-2h2.667c1.105 0 2 0.895 2 2v4c0 1.105-0.895 2-2 2h-2.667c-1.105 0-2-0.895-2-2v-4z"></path>
<path d="M21.333 6c0-1.105 0.895-2 2-2h2.667c1.105 0 2 0.895 2 2v20c0 1.105-0.895 2-2 2h-2.667c-1.105 0-2-0.895-2-2v-20zM23.333 5.333c-0.368 0-0.667 0.298-0.667 0.667v20c0 0.368 0.298 0.667 0.667 0.667h2.667c0.368 0 0.667-0.298 0.667-0.667v-20c0-0.368-0.298-0.667-0.667-0.667h-2.667z"></path>
</symbol>
<symbol id="icon-body-svgrepo-com" viewBox="0 0 32 32">
<path fill="#f8bf00" style="fill: var(--color1, #f8bf00)" d="M0.674 18.962c0.263-0.050 0.435-0.305 0.385-0.567-0.007-0.035-0.643-3.514 1.592-6.208 0.111-0.135 0.142-0.319 0.080-0.483-0.013-0.033-1.259-3.374 0.334-5.865 1.044-1.634 3.091-2.567 6.084-2.773 0.11-0.008 0.213-0.052 0.294-0.127 0.015-0.014 1.532-1.391 3.039-1.485 0.268-0.017 0.47-0.247 0.454-0.514s-0.261-0.485-0.514-0.454c-1.578 0.099-3.060 1.249-3.503 1.623-3.229 0.253-5.473 1.331-6.671 3.207-1.588 2.486-0.807 5.547-0.515 6.466-2.32 3.004-1.656 6.639-1.627 6.795 0.045 0.233 0.247 0.394 0.476 0.394 0.030-0.001 0.061-0.003 0.091-0.009z"></path>
<path fill="#f8bf00" style="fill: var(--color1, #f8bf00)" d="M8.052 31.364c0.095 0.1 0.223 0.151 0.352 0.151 0.119 0 0.239-0.044 0.333-0.133 0.195-0.183 0.204-0.491 0.019-0.686-0.711-0.753-0.569-3.19-0.305-4.618 0.005-0.103 0.104-2.563-0.801-4.79-0.629-1.55-0.706-3.625-0.706-4.532 0.007-0.159 0.010-0.32 0.008-0.483-0.003-0.263-0.213-0.475-0.476-0.48-0.25 0-0.481 0.2-0.494 0.463-0.001 0.029-0.010 0.211-0.010 0.502-0.144 2.934-1.824 5.23-1.841 5.253-0.16 0.215-0.115 0.519 0.1 0.678 0.214 0.162 0.518 0.116 0.678-0.099 0.051-0.067 0.785-1.066 1.359-2.605 0.113 0.569 0.27 1.141 0.484 1.669 0.815 2.006 0.733 4.314 0.739 4.313-0.079 0.412-0.721 4.039 0.561 5.396z"></path>
<path fill="#f8bf00" style="fill: var(--color1, #f8bf00)" d="M29.752 5.316c-1.199-1.875-3.442-2.954-6.671-3.207-0.443-0.374-1.925-1.524-3.503-1.624-0.249-0.030-0.497 0.186-0.514 0.454s0.186 0.497 0.454 0.514c1.5 0.095 3.024 1.472 3.039 1.486 0.081 0.074 0.184 0.118 0.294 0.126 2.99 0.207 5.036 1.138 6.081 2.768 1.591 2.483 0.349 5.838 0.337 5.871-0.062 0.163-0.031 0.347 0.081 0.482 2.225 2.683 1.599 6.173 1.592 6.208-0.049 0.263 0.123 0.517 0.386 0.567 0.031 0.006 0.061 0.009 0.091 0.009 0.228 0 0.431-0.162 0.475-0.394 0.030-0.156 0.692-3.791-1.627-6.795 0.292-0.918 1.073-3.978-0.515-6.465z"></path>
<path fill="#f8bf00" style="fill: var(--color1, #f8bf00)" d="M25.732 19.985c0.574 1.539 1.308 2.537 1.36 2.605 0.161 0.215 0.465 0.261 0.678 0.099 0.215-0.159 0.259-0.463 0.1-0.678-0.018-0.023-1.698-2.319-1.841-5.253 0-0.291-0.009-0.472-0.010-0.502-0.013-0.263-0.228-0.461-0.494-0.463-0.263 0.005-0.473 0.218-0.476 0.48-0.001 0.165 0.001 0.328 0.008 0.489 0 0.91-0.076 2.978-0.706 4.527-0.905 2.228-0.806 4.688-0.792 4.859 0.257 1.359 0.399 3.794-0.313 4.549-0.184 0.195-0.175 0.502 0.019 0.686 0.092 0.089 0.211 0.133 0.332 0.133 0.129 0 0.257-0.051 0.352-0.151 1.282-1.357 0.639-4.987 0.569-5.328-0.001-0.022-0.092-2.355 0.73-4.382 0.215-0.527 0.371-1.1 0.485-1.669z"></path>
<path fill="#f8bf00" style="fill: var(--color1, #f8bf00)" d="M25.824 10.573c-0.268 0-0.485 0.217-0.485 0.485 0 2.658-2.205 4.821-4.916 4.821-1.564 0-3.001-0.71-3.941-1.95-0.183-0.241-0.589-0.241-0.773 0.001-0.94 1.238-2.377 1.949-3.941 1.949-2.71 0-4.916-2.162-4.916-4.821 0-0.268-0.217-0.485-0.485-0.485s-0.485 0.217-0.485 0.485c0 3.193 2.64 5.791 5.886 5.791 1.668 0 3.215-0.676 4.328-1.873 1.113 1.197 2.66 1.873 4.328 1.873 3.246 0 5.886-2.598 5.886-5.791-0.001-0.268-0.217-0.485-0.486-0.485z"></path>
<path fill="#f8bf00" style="fill: var(--color1, #f8bf00)" d="M20.301 5.74c-1.522 0.399-3.358 1.687-4.107 2.247-1.817-1.661-4.21-2.226-4.317-2.251-0.263-0.059-0.522 0.103-0.582 0.364s0.103 0.522 0.364 0.582c0.025 0.006 2.505 0.591 4.15 2.283 0.095 0.098 0.221 0.146 0.347 0.146 0.107 0 0.213-0.035 0.303-0.106 0.023-0.019 2.36-1.875 4.086-2.327 0.259-0.067 0.414-0.333 0.346-0.591s-0.331-0.417-0.591-0.346z"></path>
</symbol>
<symbol id="icon-time-so-svgrepo-com-1" viewBox="0 0 32 32">
<path d="M16 0c8.837 0 16 7.163 16 16s-7.163 16-16 16-16-7.163-16-16 7.163-16 16-16zM16 2c-7.732 0-14 6.268-14 14s6.268 14 14 14 14-6.268 14-14-6.268-14-14-14zM17 9l0.001 6.585 6.242 6.243-1.414 1.414-6.829-6.829-0.002-0.483 0.002-0.003-0-6.928z"></path>
</symbol>
<symbol id="icon-intensity-high" viewBox="0 0 32 32">
<path fill="#fdc103" style="fill: var(--color1, #fdc103)" opacity="0.5" d="M23.047 1.618l3.994 11.77c1.534-0.445 3.134-0.717 4.793-0.791v-12.414c-3.053 0.081-5.999 0.577-8.787 1.434zM12.428 7.183c-2.328 1.828-4.403 3.969-6.154 6.356l10.233 7.136c0.971-1.287 2.244-2.619 3.491-3.638l-7.566-9.854zM0.997 24.633c-0.589 2.295-0.934 4.697-0.997 7.161h12.509c0.055-1.229 0.221-2.428 0.486-3.59l-11.998-3.572zM5.219 15.055c-1.571 2.406-2.825 5.028-3.711 7.812l11.98 3.568c0.497-1.501 1.287-3.182 2.104-4.498l-10.372-6.878zM21.297 2.214c-2.637 0.982-5.12 2.284-7.382 3.869l7.404 10.012c1.232-0.842 2.865-1.707 4.274-2.266l-4.296-11.616z"></path>
<path fill="#fdc103" style="fill: var(--color1, #fdc103)" d="M23.047 1.618l3.994 11.77c1.534-0.445 3.134-0.717 4.793-0.791v-12.414c-3.053 0.081-5.999 0.577-8.787 1.434zM12.428 7.183c-2.328 1.828-4.403 3.969-6.154 6.356l10.233 7.136c0.971-1.287 2.244-2.619 3.491-3.638l-7.566-9.854zM0.997 24.633c-0.589 2.295-0.934 4.697-0.997 7.161h12.509c0.055-1.229 0.221-2.428 0.486-3.59l-11.998-3.572zM5.219 15.055c-1.571 2.406-2.825 5.028-3.711 7.812l11.98 3.568c0.497-1.501 1.287-3.182 2.104-4.498l-10.372-6.878zM21.297 2.214c-2.637 0.982-5.12 2.284-7.382 3.869l7.404 10.012c1.232-0.842 2.865-1.707 4.274-2.266l-4.296-11.616z"></path>
<path fill="#fdc103" style="fill: var(--color1, #fdc103)" d="M12.428 7.187c-2.328 1.828-4.403 3.969-6.154 6.356l10.233 7.136c0.971-1.287 2.244-2.619 3.491-3.638l-7.566-9.854zM0.997 24.633c-0.589 2.295-0.934 4.697-0.997 7.161h12.509c0.055-1.229 0.221-2.428 0.486-3.59l-11.998-3.572zM5.219 15.055c-1.571 2.406-2.825 5.028-3.711 7.812l11.98 3.568c0.497-1.501 1.287-3.182 2.104-4.498l-10.372-6.878z"></path>
<path fill="#fdc103" style="fill: var(--color1, #fdc103)" d="M0.997 24.633c-0.589 2.295-0.934 4.697-0.997 7.161h12.509c0.055-1.229 0.28-2.88 0.548-4.042l-12.061-3.119z"></path>
</symbol>
<symbol id="icon-cream-lotion-svgrepo-com-2" viewBox="0 0 32 32">
<path fill="#ffc000" style="fill: var(--color2, #ffc000)" d="M19.042 9.732h-10.924c0.147-0.603 0.386-1.059 0.743-1.332 1.839-1.401 2.211-2.034 2.284-2.523 0.037-0.239 0.239-0.419 0.482-0.419h3.914c0.243 0 0.445 0.18 0.482 0.419 0.074 0.489 0.445 1.118 2.284 2.523 0.357 0.272 0.592 0.728 0.739 1.332z"></path>
<path fill="#ffc000" style="fill: var(--color2, #ffc000)" d="M8.989 27.211h5.19v3.524c0 0.261-0.21 0.471-0.471 0.474-0.945 0-3.068 0-3.987 0-0.246 0-0.452-0.191-0.471-0.438-0.048-0.633-0.14-1.92-0.261-3.564z"></path>
<path fill="#ffc000" style="fill: var(--color2, #ffc000)" d="M19.248 12.326h-1.571c-0.184 0-0.335 0.151-0.335 0.335v2.611c0 0.026 0 0.052 0.011 0.074-0.522 0.092-1.012 0.305-1.442 0.611 0.004-0.305 0.026-0.64 0.033-0.728 0-0.011-0.007-0.018-0.018-0.018h-2.832s-0.022 0.007-0.022 0.018v0.040s0.011 0.018 0.022 0.018h0.092c0.294 0.011 0.272 0.302 0.268 0.324v1.434s0.011 0.018 0.018 0.018h0.82s0.018-0.007 0.018-0.018v-1.394c-0.004-0.349 0.246-0.338 0.246-0.338h0.452c0.449 0 0.651 0.441 0.739 0.765-0.177 0.136-0.342 0.294-0.489 0.46 0-0.070 0-0.121 0-0.151 0-0.011-0.007-0.018-0.018-0.018h-0.059s-0.022 0.011-0.022 0.018c0 0.044-0.011 0.151-0.136 0.379-0.169 0.302-0.397 0.305-0.412 0.305h-0.143s-0.018 0.011-0.018 0.018v0.074s0.007 0.022 0.018 0.022h0.158c0.052 0.004 0.092 0.018 0.136 0.037-0.199 0.338-0.349 0.71-0.449 1.103v-1.122s-0.007-0.018-0.018-0.018h-0.074c-0.169 0-0.305 0.136-0.305 0.305v1.526s0.011 0.022 0.018 0.022h0.265c-0.011 0.121-0.015 0.246-0.015 0.372v1.401c-0.298-0.026-0.28-0.294-0.28-0.309v0-1.442s-0.011-0.018-0.022-0.018h-0.809s-0.018 0.007-0.018 0.018v1.354c0 0.199-0.055 0.287-0.055 0.287s-0.059 0.121-0.445 0.103c-0.379-0.022-0.533-0.364-0.541-0.383v0c-0.221-0.618-0.052-1.026 0.136-1.203 0.184-0.177 0.511-0.202 0.53-0.202h0.206s0.018-0.011 0.018-0.018v-0.040s-0.011-0.018-0.022-0.018c-0.107 0.004-0.257-0.018-0.257-0.018s-0.467-0.066-0.474-0.89c-0.004-0.806 0.438-0.846 0.456-0.846h0.217c0.243 0.015 0.232 0.331 0.232 0.331v1.387s0.011 0.022 0.018 0.022c0.048 0 0.166-0.004 0.254-0.055 0.107-0.059 0.121-0.213 0.125-0.224v-1.534s-0.011-0.018-0.018-0.018h-0.772c-0.331 0.004-0.636 0.044-0.872 0.147-0.235 0.107-0.644 0.394-0.438 0.989 0.158 0.452 0.666 0.64 0.905 0.703 0.018 0.004 0.018 0.037 0 0.040-0.57 0.063-1.1 0.246-1.203 0.658-0.11 0.445 0.088 0.743 0.088 0.743 0.357 0.541 1.173 0.544 1.173 0.544h1.872v5.297h-5.271c-0.132-1.857-0.287-4.050-0.445-6.253-0.25-3.56-0.721-6.985-0.515-9.225h11.24c0.044 0.482 0.059 1.011 0.048 1.589z"></path>
<path fill="#fff" style="fill: var(--color3, #fff)" d="M18.354 25.096s-0.018-0.004-0.029-0.011c0 0.018 0 0.037-0.004 0.059 0.011 0 0.022 0 0.033-0.004 0.026 0 0.026-0.037 0-0.044zM18.24 24.125c0 0.265 0.044 0.456 0.107 0.592 0.033-0.438 0.066-0.883 0.096-1.343-0.107 0.125-0.206 0.349-0.202 0.75zM18.24 25.409c-0.206 0.195-0.383 0.636-0.147 1.298 0 0.011 0.037 0.081 0.103 0.158 0.033-0.478 0.070-0.982 0.107-1.508-0.022 0.015-0.044 0.033-0.063 0.052z"></path>
<path fill="#ffc000" style="fill: var(--color2, #ffc000)" d="M24.25 19.145v0.287h-9.251v-0.287c0-1.766 1.431-3.196 3.196-3.196h2.858c1.766 0 3.196 1.431 3.196 3.196z"></path>
<path fill="#ffc000" style="fill: var(--color2, #ffc000)" d="M15 20.182v7.647h9.251v-7.647h-9.251zM20.362 26.689s-0.007 0.018-0.018 0.018h-1.777s-0.739-0.004-1.059-0.489c0 0-0.177-0.272-0.081-0.673 0.092-0.372 0.57-0.537 1.085-0.596 0.018 0 0.022-0.029 0-0.037-0.213-0.059-0.673-0.228-0.817-0.636-0.184-0.537 0.184-0.798 0.397-0.89 0.21-0.092 0.489-0.129 0.787-0.136h0.699s0.018 0.011 0.018 0.018v1.379s-0.015 0.154-0.114 0.21c-0.081 0.044-0.188 0.048-0.232 0.048-0.011 0-0.018-0.007-0.018-0.018v-1.254s0.011-0.287-0.21-0.302h-0.195s-0.416 0.037-0.412 0.765c0.004 0.747 0.427 0.806 0.427 0.806s0.136 0.022 0.235 0.018c0.011 0 0.018 0.007 0.018 0.018v0.037s-0.007 0.018-0.018 0.018h-0.184s-0.309 0.026-0.474 0.184c-0.173 0.162-0.324 0.53-0.125 1.089 0 0.011 0.040 0.092 0.121 0.169 0.077 0.081 0.199 0.162 0.368 0.173 0.349 0.018 0.405-0.092 0.405-0.092s0.048-0.077 0.052-0.257v-1.221s0.007-0.018 0.018-0.018h0.732s0.018 0.011 0.018 0.018v1.317c0 0.059 0.015 0.287 0.338 0.272 0.011 0 0.018 0.007 0.018 0.018v0.052zM20.896 24.997s-0.011 0.018-0.018 0.018h-0.842s-0.018-0.007-0.018-0.018v-1.383c0-0.151 0.125-0.272 0.276-0.272h0.070s0.018 0.007 0.018 0.018v1.221s0 0.316 0.294 0.32h0.202s0.018 0.007 0.018 0.018v0.074zM21.245 23.971h-0.063s-0.015-0.004-0.018-0.015c-0.018-0.092-0.121-0.57-0.504-0.618h-0.143s-0.018-0.007-0.018-0.018v-0.066s0.011-0.018 0.018-0.018h0.129s0.221-0.004 0.372-0.276c0.114-0.206 0.129-0.302 0.125-0.342 0-0.011 0.007-0.018 0.018-0.018h0.052s0.018 0.011 0.018 0.018c0 0.121-0.018 0.783 0.029 1.331 0 0.011-0.007 0.018-0.018 0.018zM21.83 22.624s-0.007 0.018-0.018 0.018h-0.059s-0.018-0.007-0.018-0.018c-0.015-0.129-0.136-0.978-0.728-0.978h-0.408s-0.228-0.011-0.224 0.305v1.262s-0.007 0.018-0.018 0.018h-0.743s-0.018-0.007-0.018-0.018v-1.295s0.026-0.28-0.239-0.291h-0.085s-0.018-0.007-0.018-0.018v-0.037s0.011-0.018 0.018-0.018h2.56s0.018 0.007 0.018 0.018c-0.007 0.121-0.052 0.78-0.018 1.048z"></path>
<path fill="#ffc000" style="fill: var(--color2, #ffc000)" d="M15 28.583h9.251v2.483c0 0.482-0.39 0.875-0.875 0.875h-7.503c-0.482 0-0.875-0.394-0.875-0.875v-2.483z"></path>
<path fill="#ffc000" style="fill: var(--color2, #ffc000)" d="M18.435 12.914h2.38c0.274 0 0.497 0.222 0.497 0.497v1.295c0 0.274-0.222 0.497-0.497 0.497h-2.38c-0.274 0-0.497-0.222-0.497-0.497v-1.295c0-0.274 0.222-0.497 0.497-0.497z"></path>
<path fill="#fff" style="fill: var(--color3, #fff)" d="M14.297 20.833v0.059s-0.011 0.022-0.018 0.022h-0.099v-0.103c0.029 0.004 0.059 0.004 0.096 0 0.011 0 0.022 0.007 0.022 0.018z"></path>
<path fill="#ffc000" style="fill: var(--color2, #ffc000)" d="M11.182 2.729h4.796c0.23 0 0.416 0.186 0.416 0.416v1.471c0 0.23-0.186 0.416-0.416 0.416h-4.796c-0.23 0-0.416-0.186-0.416-0.416v-1.471c0-0.23 0.186-0.416 0.416-0.416z"></path>
<path fill="#ffc000" style="fill: var(--color2, #ffc000)" d="M15.864 1.74h-1.284v-0.783h-1.997v0.783h-1.284c-0.081 0-0.147 0.066-0.147 0.147v0.394c0 0.081 0.066 0.147 0.147 0.147h4.568c0.081 0 0.147-0.066 0.147-0.147v-0.394c0-0.081-0.066-0.147-0.147-0.147z"></path>
<path fill="#ffc000" style="fill: var(--color2, #ffc000)" d="M12.737 1.339s-1.438 0.335-1.39-0.625 1.501-0.813 7.577-0.368c0.577 0.063 0.706 0.555-0.416 0.537-0.886-0.015-3.851 0.007-4.932 0.342s-0.842 0.11-0.842 0.11z"></path>
</symbol>
<symbol id="icon-cream-lotion-svgrepo-com" viewBox="0 0 34 32">
<path fill="#ffbe00" style="fill: var(--color2, #ffbe00)" d="M18.132 23.836h-10.768c-0.366 0-0.725 0.078-1.054 0.226l-3.958 1.772c-0.196 0.089-0.325 0.289-0.325 0.507v1.694c0 2.19 1.776 3.965 3.965 3.965h8.87c2.19 0 3.962-1.772 3.962-3.962v-3.507c0-0.381-0.307-0.695-0.692-0.695zM11.123 30.335s-0.007 0.018-0.018 0.018h-1.676s-0.699-0.004-1.002-0.466c0 0-0.166-0.255-0.074-0.633 0.089-0.351 0.54-0.507 1.025-0.562 0.018 0 0.022-0.030 0.004-0.033-0.203-0.055-0.636-0.215-0.773-0.599-0.174-0.51 0.174-0.755 0.374-0.843s0.462-0.122 0.744-0.126h0.658s0.018 0.007 0.018 0.015v1.306s-0.015 0.144-0.107 0.196c-0.078 0.041-0.178 0.044-0.218 0.044-0.007 0-0.015-0.007-0.015-0.018v-1.18s0.007-0.27-0.2-0.285h-0.181s-0.392 0.037-0.392 0.71v0.011c0.004 0.703 0.403 0.762 0.403 0.762s0.129 0.018 0.222 0.015c0.011 0 0.018 0.007 0.018 0.015v0.033s-0.007 0.018-0.018 0.018h-0.174s-0.292 0.022-0.451 0.174c-0.163 0.152-0.303 0.499-0.118 1.025 0.007 0.015 0.141 0.307 0.462 0.326 0.333 0.018 0.381-0.089 0.381-0.089s0.044-0.074 0.048-0.244v-1.154s0.007-0.018 0.015-0.018h0.692s0.018 0.007 0.018 0.018v1.232s-0.018 0.285 0.318 0.266c0.011 0 0.018 0.007 0.018 0.015v0.052zM11.626 28.734s-0.007 0.018-0.018 0.018h-0.795s-0.018-0.007-0.018-0.018v-1.302c0-0.144 0.118-0.263 0.263-0.263h0.063s0.018 0.011 0.018 0.018v1.154s0 0.3 0.277 0.303h0.192s0.018 0.007 0.018 0.018v0.070zM11.955 27.765h-0.059s-0.015-0.004-0.015-0.015c-0.015-0.085-0.115-0.536-0.477-0.581h-0.133s-0.018-0.007-0.018-0.015v-0.063s0.007-0.018 0.018-0.018h0.118s0.207-0.004 0.355-0.263c0.107-0.192 0.118-0.285 0.118-0.322 0-0.007 0.007-0.018 0.018-0.018h0.048s0.018 0.011 0.018 0.018c-0.004 0.115-0.018 0.744 0.026 1.258 0 0.011-0.007 0.018-0.018 0.018zM12.51 26.496s-0.007 0.018-0.018 0.018h-0.056s-0.015-0.007-0.015-0.015c-0.015-0.122-0.133-0.928-0.688-0.928h-0.385s-0.215-0.007-0.211 0.292v1.187s-0.007 0.018-0.018 0.018h-0.699s-0.018-0.007-0.018-0.018v-1.221s0.026-0.266-0.229-0.277h-0.078s-0.018-0.007-0.018-0.015v-0.037s0.007-0.015 0.018-0.015h2.415s0.018 0.007 0.018 0.018c-0.007 0.115-0.048 0.736-0.018 0.991z"></path>
<path fill="#ffbe00" style="fill: var(--color2, #ffbe00)" d="M10.132 22.183l4.283-1.864c0.566-0.248 1.228-0.096 1.631 0.37l0.581 0.673c0.37 0.429 0.067 1.091-0.499 1.091h-5.941c-0.152 0-0.196-0.211-0.056-0.27z"></path>
<path fill="#ffbe00" style="fill: var(--color2, #ffbe00)" d="M1.323 20.539l11.314-5.073c1.127-0.505 2.449 0.001 2.953 1.125v0c0.2 0.446-0.001 0.965-0.443 1.163l-13.785 6.181c-0.446 0.2-0.965-0.001-1.163-0.443v0c-0.505-1.127 0.001-2.449 1.125-2.953z"></path>
<path fill="#ffbe00" style="fill: var(--color2, #ffbe00)" d="M21.743 26.722h9.71c0.222 0 0.403 0.181 0.403 0.403v2.471c0 1.328-1.080 2.408-2.408 2.408h-5.696c-1.328 0-2.408-1.080-2.408-2.408v-2.471c0-0.222 0.181-0.403 0.403-0.403z"></path>
<path fill="#ffbe00" style="fill: var(--color2, #ffbe00)" d="M33.409 3.917h-13.664c-0.166 0-0.3 0.144-0.285 0.311l1.853 20.603c0.015 0.17 0.159 0.303 0.333 0.303h9.902c0.174 0 0.318-0.133 0.333-0.307l1.809-20.6c0.015-0.166-0.115-0.311-0.281-0.311zM27.828 18.136s-0.015 0.026-0.030 0.026h-2.504s-1.043-0.004-1.494-0.692c0 0-0.252-0.381-0.111-0.947 0.129-0.525 0.803-0.758 1.531-0.84 0.026-0.004 0.030-0.044 0.004-0.052-0.303-0.081-0.951-0.318-1.154-0.895-0.263-0.758 0.259-1.128 0.559-1.258 0.3-0.133 0.688-0.185 1.11-0.189h0.984s0.026 0.011 0.026 0.026v1.949s-0.022 0.215-0.159 0.289c-0.115 0.063-0.266 0.070-0.326 0.070-0.015 0-0.026-0.015-0.026-0.026v-1.764s0.015-0.403-0.296-0.425h-0.274c-0.026 0-0.588 0.052-0.581 1.076 0.007 1.050 0.599 1.136 0.599 1.136s0.192 0.030 0.333 0.022c0.015 0 0.026 0.011 0.026 0.026v0.048s-0.011 0.030-0.026 0.030h-0.259s-0.118 0.007-0.255 0.044c-0.137 0.037-0.3 0.1-0.418 0.211-0.244 0.229-0.459 0.747-0.178 1.531v0c0.011 0.026 0.207 0.459 0.688 0.485 0.496 0.030 0.57-0.129 0.57-0.129s0.070-0.107 0.070-0.363v-1.727s0.011-0.026 0.026-0.026h1.032s0.026 0.011 0.026 0.026v1.857c0 0.089 0.022 0.407 0.477 0.381 0.015 0 0.030 0.011 0.030 0.026v0.074zM28.578 15.747s-0.015 0.026-0.026 0.026h-1.191s-0.026-0.011-0.026-0.026v-1.949c0-0.215 0.174-0.388 0.388-0.388h0.096s0.026 0.011 0.026 0.026v1.727s0 0.444 0.418 0.451h0.289s0.026 0.011 0.026 0.026v0.107zM29.070 14.3h-0.089s-0.022-0.011-0.026-0.022c-0.022-0.129-0.17-0.806-0.71-0.869h-0.203s-0.026-0.011-0.026-0.026v-0.092s0.011-0.030 0.026-0.030h0.181c0.022 0 0.311-0.007 0.529-0.388 0.163-0.289 0.178-0.425 0.178-0.481 0-0.015 0.011-0.026 0.026-0.026h0.074s0.026 0.011 0.026 0.026c-0.004 0.17-0.026 1.11 0.041 1.879 0 0.015-0.011 0.030-0.026 0.030zM29.895 12.399s-0.011 0.030-0.026 0.030h-0.081s-0.026-0.011-0.026-0.022c-0.022-0.185-0.192-1.383-1.025-1.383h-0.577s-0.322-0.015-0.314 0.433v1.776s-0.011 0.026-0.026 0.026h-1.047s-0.026-0.011-0.026-0.026v-1.827c0.004-0.022 0.037-0.396-0.34-0.407h-0.118s-0.026-0.015-0.026-0.026v-0.056s0.011-0.026 0.026-0.026h3.61s0.026 0.015 0.026 0.030c-0.011 0.174-0.074 1.099-0.030 1.48z"></path>
<path fill="#ffbe00" style="fill: var(--color2, #ffbe00)" d="M20.43 0h12.321c0.721 0 1.306 0.584 1.306 1.306v0.769c0 0.207-0.17 0.377-0.377 0.377h-14.178c-0.207 0-0.377-0.17-0.377-0.377v-0.769c0-0.721 0.584-1.306 1.306-1.306z"></path>
</symbol>
<symbol id="icon-intensity-low" viewBox="0 0 32 32">
<path fill="#fdc103" style="fill: var(--color1, #fdc103)" opacity="0.5" d="M23.047 1.618l3.994 11.77c1.534-0.445 3.134-0.717 4.793-0.791v-12.414c-3.053 0.081-5.999 0.577-8.787 1.434zM12.428 7.183c-2.328 1.828-4.403 3.969-6.154 6.356l10.233 7.136c0.971-1.287 2.244-2.619 3.491-3.638l-7.566-9.854zM0.997 24.633c-0.589 2.295-0.934 4.697-0.997 7.161h12.509c0.055-1.229 0.221-2.428 0.486-3.59l-11.998-3.572zM5.219 15.055c-1.571 2.406-2.825 5.028-3.711 7.812l11.98 3.568c0.497-1.501 1.287-3.182 2.104-4.498l-10.372-6.878zM21.297 2.214c-2.637 0.982-5.12 2.284-7.382 3.869l7.404 10.012c1.232-0.842 2.865-1.707 4.274-2.266l-4.296-11.616z"></path>
<path fill="#fdc103" style="fill: var(--color1, #fdc103)" d="M0.997 24.633c-0.589 2.295-0.934 4.697-0.997 7.161h12.509c0.055-1.229 0.28-2.88 0.548-4.042l-12.061-3.119z"></path>
</symbol>
<symbol id="icon-calendar-svgrepo-com" viewBox="0 0 32 32">
<path fill="#ffc000" style="fill: var(--color2, #ffc000)" d="M15.867 26.398c-2.948 0-5.605-1.222-7.507-3.182l2.948-3.171c0.568-0.611 0.119-1.647-0.716-1.647h-4.196s-2.333 0-4.059 0c-0.917 0-1.632-0.007-1.783 0.050-0.32 0.111-0.561 0.46-0.547 0.816l0.219 5.771 0.173 4.189c0.036 0.841 1.061 1.23 1.643 0.622l2.837-2.948c2.815 2.815 6.702 4.563 10.995 4.563 7.468 0 13.717-5.275 15.213-12.3 0.079-0.37-0.194-0.723-0.575-0.723h-4.013c-0.266 0-0.489 0.18-0.564 0.431-1.276 4.351-5.296 7.525-10.060 7.525z"></path>
<path fill="#ffc000" style="fill: var(--color2, #ffc000)" d="M31.867 12.771l-0.219-5.771-0.173-4.189c-0.036-0.841-1.061-1.23-1.643-0.622l-2.797 2.905c-2.826-2.92-6.785-4.735-11.168-4.735-7.558 0-13.861 5.4-15.256 12.548-0.072 0.36 0.216 0.69 0.582 0.69h3.995c0.27 0 0.496-0.183 0.568-0.446 1.208-4.455 5.278-7.727 10.114-7.727 3.035 0 5.764 1.294 7.68 3.358l-2.981 3.207c-0.568 0.611-0.133 1.607 0.701 1.607h4.829s0 0 0 0c0 0 4.75 0.047 5.152-0.022 0.367-0.083 0.64-0.417 0.626-0.809z"></path>
</symbol>
<symbol id="icon-ok-hand-svgrepo-com-1" viewBox="0 0 32 32">
<path fill="#ffc000" style="fill: var(--color2, #ffc000)" d="M16 0c-8.838 0-16 7.162-16 16s7.162 16 16 16 16-7.162 16-16-7.166-16-16-16zM16 29.881c-7.668 0-13.881-6.213-13.881-13.881s6.213-13.881 13.881-13.881 13.881 6.213 13.881 13.881-6.213 13.881-13.881 13.881z"></path>
<path fill="#ffc000" style="fill: var(--color2, #ffc000)" d="M16 3.625c-6.834 0-12.375 5.542-12.375 12.375s5.542 12.375 12.375 12.375 12.375-5.542 12.375-12.375-5.542-12.375-12.375-12.375zM13.412 23.744l-5.74-4.715 2.83-2.83 2.729 2.44 6.903-10.437 3.466 2.599-10.188 12.942z"></path>
</symbol>
<symbol id="icon-intensity-medium" viewBox="0 0 32 32">
<path fill="#fdc103" style="fill: var(--color1, #fdc103)" opacity="0.5" d="M23.047 1.618l3.994 11.77c1.534-0.445 3.134-0.717 4.793-0.791v-12.414c-3.053 0.081-5.999 0.577-8.787 1.434zM12.428 7.183c-2.328 1.828-4.403 3.969-6.154 6.356l10.233 7.136c0.971-1.287 2.244-2.619 3.491-3.638l-7.566-9.854zM0.997 24.633c-0.589 2.295-0.934 4.697-0.997 7.161h12.509c0.055-1.229 0.221-2.428 0.486-3.59l-11.998-3.572zM5.219 15.055c-1.571 2.406-2.825 5.028-3.711 7.812l11.98 3.568c0.497-1.501 1.287-3.182 2.104-4.498l-10.372-6.878zM21.297 2.214c-2.637 0.982-5.12 2.284-7.382 3.869l7.404 10.012c1.232-0.842 2.865-1.707 4.274-2.266l-4.296-11.616z"></path>
<path fill="#fdc103" style="fill: var(--color1, #fdc103)" d="M12.428 7.187c-2.328 1.828-4.403 3.969-6.154 6.356l10.233 7.136c0.971-1.287 2.244-2.619 3.491-3.638l-7.566-9.854zM0.997 24.633c-0.589 2.295-0.934 4.697-0.997 7.161h12.509c0.055-1.229 0.221-2.428 0.486-3.59l-11.998-3.572zM5.219 15.055c-1.571 2.406-2.825 5.028-3.711 7.812l11.98 3.568c0.497-1.501 1.287-3.182 2.104-4.498l-10.372-6.878z"></path>
<path fill="#fdc103" style="fill: var(--color1, #fdc103)" d="M0.997 24.633c-0.589 2.295-0.934 4.697-0.997 7.161h12.509c0.055-1.229 0.28-2.88 0.548-4.042l-12.061-3.119z"></path>
</symbol>
<symbol id="icon-time-so-svgrepo-com" viewBox="0 0 32 32">
<path fill="#ffc000" style="fill: var(--color2, #ffc000)" d="M24.769 9.949l1.376-1.788c0.239-0.313 0.184-0.758-0.129-0.997l-2.108-1.626c-0.313-0.239-0.758-0.184-0.997 0.129l-1.515 1.964c-0.868-0.408-1.788-0.721-2.751-0.923-0.246-0.147-0.452-0.364-0.474-0.684-0.055-0.846 0.603-0.938 0.603-0.938h0.828c0.441 0 0.798-0.357 0.798-0.798v-3.491c0-0.441-0.357-0.798-0.798-0.798h-7.654c-0.441 0-0.798 0.357-0.798 0.798v3.491c0 0.441 0.357 0.798 0.798 0.798h1.070s0.658 0.096 0.603 0.938c-0.026 0.39-0.327 0.629-0.647 0.772-0.257 0.063-0.511 0.132-0.761 0.21 0 0 0 0 0 0v0c-0.666 0.206-1.302 0.471-1.916 0.78l-1.633-2.115c-0.239-0.313-0.688-0.368-0.997-0.129l-2.108 1.626c-0.313 0.239-0.368 0.688-0.129 0.997l1.56 2.023c-2.273 2.295-3.678 5.451-3.678 8.938 0 7.011 5.683 12.693 12.693 12.693s12.693-5.683 12.693-12.693c0-3.608-1.508-6.863-3.928-9.177zM16.004 28.815c-5.352 0-9.688-4.337-9.688-9.688s4.337-9.688 9.688-9.688 9.688 4.337 9.688 9.688-4.337 9.688-9.688 9.688z"></path>
<path fill="#ffc000" style="fill: var(--color2, #ffc000)" d="M16.18 10.696v8.43h-8.614c0 4.66 3.777 8.438 8.438 8.438s8.438-3.777 8.438-8.438-3.682-8.338-8.261-8.43z"></path>
</symbol>

</defs>
</svg>
