<svg aria-hidden="true" style="position: absolute; width: 0; height: 0; overflow: hidden;" version="1.1" xmlns="http://www.w3.org/2000/svg" xmlns:xlink="http://www.w3.org/1999/xlink">
<defs>
<symbol id="icon-time-add" viewBox="0 0 32 32">
<path d="M30.667 24h-4v-4c0-0.736-0.597-1.333-1.333-1.333s-1.333 0.597-1.333 1.333v0 4h-4c-0.736 0-1.333 0.597-1.333 1.333s0.597 1.333 1.333 1.333v0h4v4c0 0.736 0.597 1.333 1.333 1.333s1.333-0.597 1.333-1.333v0-4h4c0.736 0 1.333-0.597 1.333-1.333s-0.597-1.333-1.333-1.333v0zM14.667 9.333v6.115l-3.609 3.609c-0.251 0.243-0.407 0.583-0.407 0.959 0 0.736 0.597 1.333 1.333 1.333 0.376 0 0.716-0.156 0.959-0.407l4-4c0.241-0.241 0.391-0.575 0.391-0.943v-6.667c0-0.736-0.597-1.333-1.333-1.333s-1.333 0.597-1.333 1.333v0zM19.637 28.832c-1.082 0.317-2.326 0.499-3.611 0.499-7.353 0-13.313-5.961-13.313-13.313s5.961-13.313 13.313-13.313c7.353 0 13.313 5.961 13.313 13.313 0 1.289-0.183 2.536-0.525 3.715l0.023-0.094c-0.040 0.121-0.063 0.26-0.063 0.404 0 0.736 0.597 1.333 1.333 1.333 0.623 0 1.147-0.428 1.293-1.006l0.002-0.009c0.382-1.302 0.602-2.799 0.602-4.347 0-8.828-7.157-15.985-15.985-15.985s-15.985 7.157-15.985 15.985c0 8.828 7.157 15.985 15.985 15.985 1.548 0 3.045-0.22 4.461-0.631l-0.113 0.028c0.58-0.153 1.001-0.673 1.001-1.291 0-0.736-0.597-1.333-1.333-1.333-0.14 0-0.276 0.022-0.403 0.062l0.009-0.003z"></path>
</symbol>
<symbol id="icon-cream" viewBox="0 0 32 32">
<path d="M30.946 15.316h-1.043v-1.738c0-1.725-1.403-3.128-3.128-3.128h-0.038c1.805-3.23 1.376-7.28-1.287-10.12-0.644-0.687-1.803-0.231-1.803 0.713 0 2.164-1.622 3.15-3.128 3.15h-6.952c-3.671 0-6.717 2.724-7.224 6.256h-1.117c-1.725 0-3.128 1.403-3.128 3.128v1.738h-1.043c-0.576 0-1.043 0.467-1.043 1.043v10.427c0 2.875 2.339 5.214 5.214 5.214h21.55c2.875 0 5.214-2.339 5.214-5.214v-10.427c0-0.576-0.467-1.043-1.043-1.043zM13.567 6.279h6.952c1.945 0 3.738-0.977 4.628-2.715 1.026 2.241 0.716 4.894-0.928 6.886h-15.761c0.484-2.377 2.591-4.171 5.109-4.171zM4.182 13.578v0c0-0.575 0.468-1.043 1.043-1.043 0.632 0 21.025 0 21.55 0 0.575 0 1.043 0.468 1.043 1.043v1.738h-23.636v-1.738zM29.903 26.786c0 1.725-1.403 3.128-3.128 3.128h-21.55c-1.725 0-3.128-1.403-3.128-3.128v-9.385c0.716 0 27.085 0 27.806 0v9.385z"></path>
<path d="M23.647 19.487h-15.294c-1.725 0-3.128 1.403-3.128 3.128v2.085c0 1.725 1.403 3.128 3.128 3.128h15.294c1.725 0 3.128-1.403 3.128-3.128v-2.085c-0-1.725-1.403-3.128-3.128-3.128zM24.689 24.701c0 0.575-0.468 1.043-1.043 1.043h-15.294c-0.575 0-1.043-0.468-1.043-1.043v-2.085c0-0.575 0.468-1.043 1.043-1.043h15.294c0.575 0 1.043 0.468 1.043 1.043v2.085z"></path>
</symbol>
<symbol id="icon-cream-lotion" viewBox="0 0 32 32">
<path d="M21.217 8.348h-2.087v-1.043c0-1.36-0.872-2.52-2.087-2.951v-2.267h3.13c0.575 0 1.044 0.468 1.044 1.044v2.087c0 0.576 0.467 1.043 1.044 1.043s1.044-0.467 1.044-1.043v-2.087c-0-1.726-1.404-3.13-3.131-3.13h-10.435c-0.576 0-1.043 0.467-1.043 1.044s0.467 1.044 1.043 1.044h5.217v2.266c-1.215 0.431-2.087 1.591-2.087 2.951v1.043h-2.087c-2.877 0-5.217 2.341-5.217 5.217v15.304c0 1.726 1.404 3.13 3.13 3.13h14.609c1.726 0 3.13-1.404 3.13-3.13v-15.304c0-2.877-2.341-5.217-5.217-5.217zM14.957 7.304c0-0.575 0.468-1.043 1.043-1.043s1.044 0.468 1.044 1.043v1.043h-2.087v-1.043zM24.348 28.87c0 0.575-0.468 1.044-1.044 1.044h-14.609c-0.575 0-1.043-0.468-1.043-1.044v-15.304c0-1.726 1.404-3.13 3.13-3.13 1.040 0 9.412 0 10.435 0 1.726 0 3.13 1.404 3.13 3.13v15.304z"></path>
<path d="M20.373 24.115c0.562-0.846 0.864-1.839 0.864-2.878 0-1.394-0.543-2.704-1.528-3.689-0.863-0.863-2.476-1.402-4.934-1.649-1.688-0.17-3.149-0.133-3.211-0.131-0.554 0.015-1 0.461-1.015 1.015-0.002 0.061-0.038 1.523 0.132 3.21 0.247 2.457 0.787 4.071 1.649 4.934 1.017 1.017 2.353 1.526 3.689 1.526 1.004 0 2.008-0.287 2.877-0.862l0.534 0.534c0.407 0.407 1.068 0.407 1.476 0s0.407-1.068 0-1.476l-0.533-0.533zM18.846 22.587l-2.088-2.088c-0.407-0.407-1.068-0.407-1.476 0s-0.408 1.068 0 1.476l2.087 2.087c-1.163 0.554-2.601 0.351-3.562-0.611-0.774-0.774-1.123-3.46-1.171-5.598 2.139 0.048 4.824 0.397 5.598 1.171 0.591 0.591 0.917 1.377 0.917 2.213 0 0.475-0.105 0.934-0.305 1.35z"></path>
</symbol>
</defs>
</svg>
