<svg aria-hidden="true" style="position: absolute; width: 0; height: 0; overflow: hidden;" version="1.1" xmlns="http://www.w3.org/2000/svg" xmlns:xlink="http://www.w3.org/1999/xlink">
<defs>
<symbol id="icon-warning-circle-svgrepo-com-1" viewBox="0 0 32 32">
<path fill="#bfbfbf" style="fill: var(--color1, #bfbfbf)" d="M1.667 16c0-7.916 6.417-14.333 14.333-14.333s14.333 6.417 14.333 14.333c0 7.916-6.417 14.333-14.333 14.333s-14.333-6.417-14.333-14.333z"></path>
<path fill="#000" style="fill: var(--color2, #000)" d="M16 8.333c0.552 0 1 0.448 1 1v9.473c0 0.552-0.448 1-1 1s-1-0.448-1-1v-9.473c0-0.552 0.448-1 1-1z"></path>
<path fill="#000" style="fill: var(--color2, #000)" d="M14.667 22.667c0-0.736 0.597-1.333 1.333-1.333h0.013c0.736 0 1.333 0.597 1.333 1.333s-0.597 1.333-1.333 1.333h-0.013c-0.736 0-1.333-0.597-1.333-1.333z"></path>
</symbol>
<symbol id="icon-warning-filled-svgrepo-com" viewBox="0 0 32 32">
<path d="M16 2c7.732 0 14 6.268 14 14s-6.268 14-14 14v0c-7.732 0-14-6.268-14-14s6.268-14 14-14v0zM16 8c-0 0-0.001 0-0.002 0-1.008 0-1.826 0.818-1.826 1.826 0 0.058 0.003 0.116 0.008 0.173l-0.001-0.007 0.73 8.012c0.060 0.554 0.525 0.981 1.090 0.981s1.030-0.427 1.090-0.977l0-0.005 0.728-8.012c0.005-0.050 0.008-0.108 0.008-0.166 0-1.008-0.817-1.826-1.826-1.826h-0zM16 24c0.884 0 1.6-0.716 1.6-1.6s-0.716-1.6-1.6-1.6v0c-0.884 0-1.6 0.716-1.6 1.6s0.716 1.6 1.6 1.6v0z"></path>
</symbol>
<symbol id="icon-warning-svgrepo-com" viewBox="0 0 32 32">
<path d="M16 0c8.837 0 16 7.163 16 16s-7.163 16-16 16-16-7.163-16-16 7.163-16 16-16zM16 1.684c-7.906 0-14.316 6.409-14.316 14.316s6.409 14.316 14.316 14.316 14.316-6.409 14.316-14.316-6.409-14.316-14.316-14.316zM15.845 22.042c-1.334 0-2.419 1.085-2.419 2.419s1.085 2.419 2.419 2.419c1.334 0 2.419-1.085 2.419-2.419s-1.085-2.419-2.419-2.419zM19.058 5.895h-6.426l1.565 14.189h3.296l1.565-14.189z"></path>
</symbol>
<symbol id="icon-warning-circle-svgrepo-com-2" viewBox="0 0 32 32">
<path fill="#ffc000" style="fill: var(--color1, #ffc000)" d="M30.427 22.924c1.010-2.097 1.573-4.444 1.573-6.924 0-8.836-7.164-16-16-16s-16 7.164-16 16 7.164 16 16 16c2.543 0 4.941-0.597 7.079-1.651l7.348 1.419c0.593 0.114 1.124-0.387 1.047-0.988l-1.043-7.856z"></path>
<path fill="none" stroke="#fff" style="stroke: var(--color2, #fff)" stroke-linejoin="miter" stroke-linecap="butt" stroke-miterlimit="10" stroke-width="1.3413" d="M27.928 15.875c0 6.472-5.246 11.718-11.718 11.718s-11.718-5.246-11.718-11.718c0-6.472 5.246-11.718 11.718-11.718s11.718 5.246 11.718 11.718z"></path>
<path fill="none" stroke="#fff" style="stroke: var(--color2, #fff)" stroke-linejoin="miter" stroke-linecap="butt" stroke-miterlimit="10" stroke-width="1.3413" d="M7.082 23.222l18.041-14.95"></path>
</symbol>
<symbol id="icon-warning-circle-svgrepo-com" viewBox="0 0 32 32">
<path fill="#ffc000" style="fill: var(--color1, #ffc000)" d="M30.427 22.924c1.010-2.097 1.573-4.444 1.573-6.924 0-8.836-7.164-16-16-16s-16 7.164-16 16 7.164 16 16 16c2.543 0 4.941-0.597 7.079-1.651l7.348 1.419c0.593 0.114 1.124-0.387 1.047-0.988l-1.043-7.856z"></path>
<path fill="#fff" style="fill: var(--color2, #fff)" d="M17.916 25.102c0 0.453-0.162 0.84-0.486 1.164s-0.711 0.486-1.164 0.486-0.84-0.162-1.164-0.486c-0.324-0.324-0.486-0.711-0.486-1.164s0.162-0.84 0.486-1.164c0.324-0.324 0.711-0.486 1.164-0.486s0.84 0.162 1.164 0.486 0.486 0.711 0.486 1.164zM16.943 20.444h-1.356c-0.018-0.354-0.048-0.929-0.088-1.725s-0.085-1.713-0.133-2.756c-0.048-1.043-0.1-2.108-0.147-3.199s-0.092-2.119-0.133-3.081c-0.041-0.962-0.074-1.758-0.103-2.388s-0.044-0.991-0.044-1.091c0-0.372 0.129-0.682 0.383-0.929s0.571-0.369 0.943-0.369 0.689 0.122 0.943 0.369c0.254 0.247 0.383 0.556 0.383 0.929 0 0.099-0.015 0.461-0.044 1.091s-0.063 1.426-0.103 2.388c-0.041 0.962-0.085 1.99-0.133 3.081s-0.099 2.156-0.147 3.199c-0.048 1.043-0.092 1.96-0.133 2.756s-0.070 1.371-0.088 1.725z"></path>
</symbol>
<symbol id="icon-warning-circle-svgrepo-com-4" viewBox="0 0 32 32">
<path fill="#BDBAB8" style="fill: var(--color1, #BDBAB8)" d="M30.427 22.924c1.010-2.097 1.573-4.444 1.573-6.924 0-8.836-7.164-16-16-16s-16 7.164-16 16 7.164 16 16 16c2.543 0 4.941-0.597 7.079-1.651l7.348 1.419c0.593 0.114 1.124-0.387 1.047-0.988l-1.043-7.856z"></path>
<path fill="#fff" style="fill: var(--color2, #fff)" d="M17.916 25.102c0 0.453-0.162 0.84-0.486 1.164s-0.711 0.486-1.164 0.486-0.84-0.162-1.164-0.486c-0.324-0.324-0.486-0.711-0.486-1.164s0.162-0.84 0.486-1.164c0.324-0.324 0.711-0.486 1.164-0.486s0.84 0.162 1.164 0.486 0.486 0.711 0.486 1.164zM16.943 20.444h-1.356c-0.018-0.354-0.048-0.929-0.088-1.725s-0.085-1.713-0.133-2.756c-0.048-1.043-0.1-2.108-0.147-3.199s-0.092-2.119-0.133-3.081c-0.041-0.962-0.074-1.758-0.103-2.388s-0.044-0.991-0.044-1.091c0-0.372 0.129-0.682 0.383-0.929s0.571-0.369 0.943-0.369 0.689 0.122 0.943 0.369c0.254 0.247 0.383 0.556 0.383 0.929 0 0.099-0.015 0.461-0.044 1.091s-0.063 1.426-0.103 2.388c-0.041 0.962-0.085 1.99-0.133 3.081s-0.099 2.156-0.147 3.199c-0.048 1.043-0.092 1.96-0.133 2.756s-0.070 1.371-0.088 1.725z"></path>
</symbol>
</defs>
</svg>
