<svg aria-hidden="true" style="position: absolute; width: 0; height: 0; overflow: hidden;" version="1.1" xmlns="http://www.w3.org/2000/svg" xmlns:xlink="http://www.w3.org/1999/xlink">
<defs>
<symbol id="icon-intensity-high" viewBox="0 0 32 32">
<path fill="#fdc103" style="fill: var(--color1, #fdc103)" opacity="0.5" d="M23.047 1.618l3.994 11.77c1.534-0.445 3.134-0.717 4.793-0.791v-12.414c-3.053 0.081-5.999 0.577-8.787 1.434zM12.428 7.183c-2.328 1.828-4.403 3.969-6.154 6.356l10.233 7.136c0.971-1.287 2.244-2.619 3.491-3.638l-7.566-9.854zM0.997 24.633c-0.589 2.295-0.934 4.697-0.997 7.161h12.509c0.055-1.229 0.221-2.428 0.486-3.59l-11.998-3.572zM5.219 15.055c-1.571 2.406-2.825 5.028-3.711 7.812l11.98 3.568c0.497-1.501 1.287-3.182 2.104-4.498l-10.372-6.878zM21.297 2.214c-2.637 0.982-5.12 2.284-7.382 3.869l7.404 10.012c1.232-0.842 2.865-1.707 4.274-2.266l-4.296-11.616z"></path>
<path fill="#fdc103" style="fill: var(--color1, #fdc103)" d="M23.047 1.618l3.994 11.77c1.534-0.445 3.134-0.717 4.793-0.791v-12.414c-3.053 0.081-5.999 0.577-8.787 1.434zM12.428 7.183c-2.328 1.828-4.403 3.969-6.154 6.356l10.233 7.136c0.971-1.287 2.244-2.619 3.491-3.638l-7.566-9.854zM0.997 24.633c-0.589 2.295-0.934 4.697-0.997 7.161h12.509c0.055-1.229 0.221-2.428 0.486-3.59l-11.998-3.572zM5.219 15.055c-1.571 2.406-2.825 5.028-3.711 7.812l11.98 3.568c0.497-1.501 1.287-3.182 2.104-4.498l-10.372-6.878zM21.297 2.214c-2.637 0.982-5.12 2.284-7.382 3.869l7.404 10.012c1.232-0.842 2.865-1.707 4.274-2.266l-4.296-11.616z"></path>
<path fill="#fdc103" style="fill: var(--color1, #fdc103)" d="M12.428 7.187c-2.328 1.828-4.403 3.969-6.154 6.356l10.233 7.136c0.971-1.287 2.244-2.619 3.491-3.638l-7.566-9.854zM0.997 24.633c-0.589 2.295-0.934 4.697-0.997 7.161h12.509c0.055-1.229 0.221-2.428 0.486-3.59l-11.998-3.572zM5.219 15.055c-1.571 2.406-2.825 5.028-3.711 7.812l11.98 3.568c0.497-1.501 1.287-3.182 2.104-4.498l-10.372-6.878z"></path>
<path fill="#fdc103" style="fill: var(--color1, #fdc103)" d="M0.997 24.633c-0.589 2.295-0.934 4.697-0.997 7.161h12.509c0.055-1.229 0.28-2.88 0.548-4.042l-12.061-3.119z"></path>
</symbol>
<symbol id="icon-means" viewBox="0 0 32 32">
<path fill="#ffc000" style="fill: var(--color2, #ffc000)" d="M19.042 9.732h-10.924c0.147-0.603 0.386-1.059 0.743-1.332 1.839-1.401 2.211-2.034 2.284-2.523 0.037-0.239 0.239-0.419 0.482-0.419h3.914c0.243 0 0.445 0.18 0.482 0.419 0.074 0.489 0.445 1.118 2.284 2.523 0.357 0.272 0.592 0.728 0.739 1.332z"></path>
<path fill="#ffc000" style="fill: var(--color2, #ffc000)" d="M8.989 27.211h5.19v3.524c0 0.261-0.21 0.471-0.471 0.474-0.945 0-3.068 0-3.987 0-0.246 0-0.452-0.191-0.471-0.438-0.048-0.633-0.14-1.92-0.261-3.564z"></path>
<path fill="#ffc000" style="fill: var(--color2, #ffc000)" d="M19.248 12.326h-1.571c-0.184 0-0.335 0.151-0.335 0.335v2.611c0 0.026 0 0.052 0.011 0.074-0.522 0.092-1.012 0.305-1.442 0.611 0.004-0.305 0.026-0.64 0.033-0.728 0-0.011-0.007-0.018-0.018-0.018h-2.832s-0.022 0.007-0.022 0.018v0.040s0.011 0.018 0.022 0.018h0.092c0.294 0.011 0.272 0.302 0.268 0.324v1.434s0.011 0.018 0.018 0.018h0.82s0.018-0.007 0.018-0.018v-1.394c-0.004-0.349 0.246-0.338 0.246-0.338h0.452c0.449 0 0.651 0.441 0.739 0.765-0.177 0.136-0.342 0.294-0.489 0.46 0-0.070 0-0.121 0-0.151 0-0.011-0.007-0.018-0.018-0.018h-0.059s-0.022 0.011-0.022 0.018c0 0.044-0.011 0.151-0.136 0.379-0.169 0.302-0.397 0.305-0.412 0.305h-0.143s-0.018 0.011-0.018 0.018v0.074s0.007 0.022 0.018 0.022h0.158c0.052 0.004 0.092 0.018 0.136 0.037-0.199 0.338-0.349 0.71-0.449 1.103v-1.122s-0.007-0.018-0.018-0.018h-0.074c-0.169 0-0.305 0.136-0.305 0.305v1.526s0.011 0.022 0.018 0.022h0.265c-0.011 0.121-0.015 0.246-0.015 0.372v1.401c-0.298-0.026-0.28-0.294-0.28-0.309v0-1.442s-0.011-0.018-0.022-0.018h-0.809s-0.018 0.007-0.018 0.018v1.354c0 0.199-0.055 0.287-0.055 0.287s-0.059 0.121-0.445 0.103c-0.379-0.022-0.533-0.364-0.541-0.383v0c-0.221-0.618-0.052-1.026 0.136-1.203 0.184-0.177 0.511-0.202 0.53-0.202h0.206s0.018-0.011 0.018-0.018v-0.040s-0.011-0.018-0.022-0.018c-0.107 0.004-0.257-0.018-0.257-0.018s-0.467-0.066-0.474-0.89c-0.004-0.806 0.438-0.846 0.456-0.846h0.217c0.243 0.015 0.232 0.331 0.232 0.331v1.387s0.011 0.022 0.018 0.022c0.048 0 0.166-0.004 0.254-0.055 0.107-0.059 0.121-0.213 0.125-0.224v-1.534s-0.011-0.018-0.018-0.018h-0.772c-0.331 0.004-0.636 0.044-0.872 0.147-0.235 0.107-0.644 0.394-0.438 0.989 0.158 0.452 0.666 0.64 0.905 0.703 0.018 0.004 0.018 0.037 0 0.040-0.57 0.063-1.1 0.246-1.203 0.658-0.11 0.445 0.088 0.743 0.088 0.743 0.357 0.541 1.173 0.544 1.173 0.544h1.872v5.297h-5.271c-0.132-1.857-0.287-4.050-0.445-6.253-0.25-3.56-0.721-6.985-0.515-9.225h11.24c0.044 0.482 0.059 1.011 0.048 1.589z"></path>
<path fill="#fff" style="fill: var(--color3, #fff)" d="M18.354 25.096s-0.018-0.004-0.029-0.011c0 0.018 0 0.037-0.004 0.059 0.011 0 0.022 0 0.033-0.004 0.026 0 0.026-0.037 0-0.044zM18.24 24.125c0 0.265 0.044 0.456 0.107 0.592 0.033-0.438 0.066-0.883 0.096-1.343-0.107 0.125-0.206 0.349-0.202 0.75zM18.24 25.409c-0.206 0.195-0.383 0.636-0.147 1.298 0 0.011 0.037 0.081 0.103 0.158 0.033-0.478 0.070-0.982 0.107-1.508-0.022 0.015-0.044 0.033-0.063 0.052z"></path>
<path fill="#ffc000" style="fill: var(--color2, #ffc000)" d="M24.25 19.145v0.287h-9.251v-0.287c0-1.766 1.431-3.196 3.196-3.196h2.858c1.766 0 3.196 1.431 3.196 3.196z"></path>
<path fill="#ffc000" style="fill: var(--color2, #ffc000)" d="M15 20.182v7.647h9.251v-7.647h-9.251zM20.362 26.689s-0.007 0.018-0.018 0.018h-1.777s-0.739-0.004-1.059-0.489c0 0-0.177-0.272-0.081-0.673 0.092-0.372 0.57-0.537 1.085-0.596 0.018 0 0.022-0.029 0-0.037-0.213-0.059-0.673-0.228-0.817-0.636-0.184-0.537 0.184-0.798 0.397-0.89 0.21-0.092 0.489-0.129 0.787-0.136h0.699s0.018 0.011 0.018 0.018v1.379s-0.015 0.154-0.114 0.21c-0.081 0.044-0.188 0.048-0.232 0.048-0.011 0-0.018-0.007-0.018-0.018v-1.254s0.011-0.287-0.21-0.302h-0.195s-0.416 0.037-0.412 0.765c0.004 0.747 0.427 0.806 0.427 0.806s0.136 0.022 0.235 0.018c0.011 0 0.018 0.007 0.018 0.018v0.037s-0.007 0.018-0.018 0.018h-0.184s-0.309 0.026-0.474 0.184c-0.173 0.162-0.324 0.53-0.125 1.089 0 0.011 0.040 0.092 0.121 0.169 0.077 0.081 0.199 0.162 0.368 0.173 0.349 0.018 0.405-0.092 0.405-0.092s0.048-0.077 0.052-0.257v-1.221s0.007-0.018 0.018-0.018h0.732s0.018 0.011 0.018 0.018v1.317c0 0.059 0.015 0.287 0.338 0.272 0.011 0 0.018 0.007 0.018 0.018v0.052zM20.896 24.997s-0.011 0.018-0.018 0.018h-0.842s-0.018-0.007-0.018-0.018v-1.383c0-0.151 0.125-0.272 0.276-0.272h0.070s0.018 0.007 0.018 0.018v1.221s0 0.316 0.294 0.32h0.202s0.018 0.007 0.018 0.018v0.074zM21.245 23.971h-0.063s-0.015-0.004-0.018-0.015c-0.018-0.092-0.121-0.57-0.504-0.618h-0.143s-0.018-0.007-0.018-0.018v-0.066s0.011-0.018 0.018-0.018h0.129s0.221-0.004 0.372-0.276c0.114-0.206 0.129-0.302 0.125-0.342 0-0.011 0.007-0.018 0.018-0.018h0.052s0.018 0.011 0.018 0.018c0 0.121-0.018 0.783 0.029 1.331 0 0.011-0.007 0.018-0.018 0.018zM21.83 22.624s-0.007 0.018-0.018 0.018h-0.059s-0.018-0.007-0.018-0.018c-0.015-0.129-0.136-0.978-0.728-0.978h-0.408s-0.228-0.011-0.224 0.305v1.262s-0.007 0.018-0.018 0.018h-0.743s-0.018-0.007-0.018-0.018v-1.295s0.026-0.28-0.239-0.291h-0.085s-0.018-0.007-0.018-0.018v-0.037s0.011-0.018 0.018-0.018h2.56s0.018 0.007 0.018 0.018c-0.007 0.121-0.052 0.78-0.018 1.048z"></path>
<path fill="#ffc000" style="fill: var(--color2, #ffc000)" d="M15 28.583h9.251v2.483c0 0.482-0.39 0.875-0.875 0.875h-7.503c-0.482 0-0.875-0.394-0.875-0.875v-2.483z"></path>
<path fill="#ffc000" style="fill: var(--color2, #ffc000)" d="M18.435 12.914h2.38c0.274 0 0.497 0.222 0.497 0.497v1.295c0 0.274-0.222 0.497-0.497 0.497h-2.38c-0.274 0-0.497-0.222-0.497-0.497v-1.295c0-0.274 0.222-0.497 0.497-0.497z"></path>
<path fill="#fff" style="fill: var(--color3, #fff)" d="M14.297 20.833v0.059s-0.011 0.022-0.018 0.022h-0.099v-0.103c0.029 0.004 0.059 0.004 0.096 0 0.011 0 0.022 0.007 0.022 0.018z"></path>
<path fill="#ffc000" style="fill: var(--color2, #ffc000)" d="M11.182 2.729h4.796c0.23 0 0.416 0.186 0.416 0.416v1.471c0 0.23-0.186 0.416-0.416 0.416h-4.796c-0.23 0-0.416-0.186-0.416-0.416v-1.471c0-0.23 0.186-0.416 0.416-0.416z"></path>
<path fill="#ffc000" style="fill: var(--color2, #ffc000)" d="M15.864 1.74h-1.284v-0.783h-1.997v0.783h-1.284c-0.081 0-0.147 0.066-0.147 0.147v0.394c0 0.081 0.066 0.147 0.147 0.147h4.568c0.081 0 0.147-0.066 0.147-0.147v-0.394c0-0.081-0.066-0.147-0.147-0.147z"></path>
<path fill="#ffc000" style="fill: var(--color2, #ffc000)" d="M12.737 1.339s-1.438 0.335-1.39-0.625 1.501-0.813 7.577-0.368c0.577 0.063 0.706 0.555-0.416 0.537-0.886-0.015-3.851 0.007-4.932 0.342s-0.842 0.11-0.842 0.11z"></path>
</symbol>
<symbol id="icon-intensity-low" viewBox="0 0 32 32">
<path fill="#fdc103" style="fill: var(--color1, #fdc103)" opacity="0.5" d="M23.047 1.618l3.994 11.77c1.534-0.445 3.134-0.717 4.793-0.791v-12.414c-3.053 0.081-5.999 0.577-8.787 1.434zM12.428 7.183c-2.328 1.828-4.403 3.969-6.154 6.356l10.233 7.136c0.971-1.287 2.244-2.619 3.491-3.638l-7.566-9.854zM0.997 24.633c-0.589 2.295-0.934 4.697-0.997 7.161h12.509c0.055-1.229 0.221-2.428 0.486-3.59l-11.998-3.572zM5.219 15.055c-1.571 2.406-2.825 5.028-3.711 7.812l11.98 3.568c0.497-1.501 1.287-3.182 2.104-4.498l-10.372-6.878zM21.297 2.214c-2.637 0.982-5.12 2.284-7.382 3.869l7.404 10.012c1.232-0.842 2.865-1.707 4.274-2.266l-4.296-11.616z"></path>
<path fill="#fdc103" style="fill: var(--color1, #fdc103)" d="M0.997 24.633c-0.589 2.295-0.934 4.697-0.997 7.161h12.509c0.055-1.229 0.28-2.88 0.548-4.042l-12.061-3.119z"></path>
</symbol>
<symbol id="icon-regularity" viewBox="0 0 32 32">
<path fill="#ffc000" style="fill: var(--color2, #ffc000)" d="M15.867 26.398c-2.948 0-5.605-1.222-7.507-3.182l2.948-3.171c0.568-0.611 0.119-1.647-0.716-1.647h-4.196s-2.333 0-4.059 0c-0.917 0-1.632-0.007-1.783 0.050-0.32 0.111-0.561 0.46-0.547 0.816l0.219 5.771 0.173 4.189c0.036 0.841 1.061 1.23 1.643 0.622l2.837-2.948c2.815 2.815 6.702 4.563 10.995 4.563 7.468 0 13.717-5.275 15.213-12.3 0.079-0.37-0.194-0.723-0.575-0.723h-4.013c-0.266 0-0.489 0.18-0.564 0.431-1.276 4.351-5.296 7.525-10.060 7.525z"></path>
<path fill="#ffc000" style="fill: var(--color2, #ffc000)" d="M31.867 12.771l-0.219-5.771-0.173-4.189c-0.036-0.841-1.061-1.23-1.643-0.622l-2.797 2.905c-2.826-2.92-6.785-4.735-11.168-4.735-7.558 0-13.861 5.4-15.256 12.548-0.072 0.36 0.216 0.69 0.582 0.69h3.995c0.27 0 0.496-0.183 0.568-0.446 1.208-4.455 5.278-7.727 10.114-7.727 3.035 0 5.764 1.294 7.68 3.358l-2.981 3.207c-0.568 0.611-0.133 1.607 0.701 1.607h4.829s0 0 0 0c0 0 4.75 0.047 5.152-0.022 0.367-0.083 0.64-0.417 0.626-0.809z"></path>
</symbol>
<symbol id="icon-result" viewBox="0 0 32 32">
<path fill="#ffc000" style="fill: var(--color2, #ffc000)" d="M16 0c-8.838 0-16 7.162-16 16s7.162 16 16 16 16-7.162 16-16-7.166-16-16-16zM16 29.881c-7.668 0-13.881-6.213-13.881-13.881s6.213-13.881 13.881-13.881 13.881 6.213 13.881 13.881-6.213 13.881-13.881 13.881z"></path>
<path fill="#ffc000" style="fill: var(--color2, #ffc000)" d="M16 3.625c-6.834 0-12.375 5.542-12.375 12.375s5.542 12.375 12.375 12.375 12.375-5.542 12.375-12.375-5.542-12.375-12.375-12.375zM13.412 23.744l-5.74-4.715 2.83-2.83 2.729 2.44 6.903-10.437 3.466 2.599-10.188 12.942z"></path>
</symbol>
<symbol id="icon-intensity-medium" viewBox="0 0 32 32">
<path fill="#fdc103" style="fill: var(--color1, #fdc103)" opacity="0.5" d="M23.047 1.618l3.994 11.77c1.534-0.445 3.134-0.717 4.793-0.791v-12.414c-3.053 0.081-5.999 0.577-8.787 1.434zM12.428 7.183c-2.328 1.828-4.403 3.969-6.154 6.356l10.233 7.136c0.971-1.287 2.244-2.619 3.491-3.638l-7.566-9.854zM0.997 24.633c-0.589 2.295-0.934 4.697-0.997 7.161h12.509c0.055-1.229 0.221-2.428 0.486-3.59l-11.998-3.572zM5.219 15.055c-1.571 2.406-2.825 5.028-3.711 7.812l11.98 3.568c0.497-1.501 1.287-3.182 2.104-4.498l-10.372-6.878zM21.297 2.214c-2.637 0.982-5.12 2.284-7.382 3.869l7.404 10.012c1.232-0.842 2.865-1.707 4.274-2.266l-4.296-11.616z"></path>
<path fill="#fdc103" style="fill: var(--color1, #fdc103)" d="M12.428 7.187c-2.328 1.828-4.403 3.969-6.154 6.356l10.233 7.136c0.971-1.287 2.244-2.619 3.491-3.638l-7.566-9.854zM0.997 24.633c-0.589 2.295-0.934 4.697-0.997 7.161h12.509c0.055-1.229 0.221-2.428 0.486-3.59l-11.998-3.572zM5.219 15.055c-1.571 2.406-2.825 5.028-3.711 7.812l11.98 3.568c0.497-1.501 1.287-3.182 2.104-4.498l-10.372-6.878z"></path>
<path fill="#fdc103" style="fill: var(--color1, #fdc103)" d="M0.997 24.633c-0.589 2.295-0.934 4.697-0.997 7.161h12.509c0.055-1.229 0.28-2.88 0.548-4.042l-12.061-3.119z"></path>
</symbol>
<symbol id="icon-time" viewBox="0 0 32 32">
<path fill="#ffc000" style="fill: var(--color2, #ffc000)" d="M24.769 9.949l1.376-1.788c0.239-0.313 0.184-0.758-0.129-0.997l-2.108-1.626c-0.313-0.239-0.758-0.184-0.997 0.129l-1.515 1.964c-0.868-0.408-1.788-0.721-2.751-0.923-0.246-0.147-0.452-0.364-0.474-0.684-0.055-0.846 0.603-0.938 0.603-0.938h0.828c0.441 0 0.798-0.357 0.798-0.798v-3.491c0-0.441-0.357-0.798-0.798-0.798h-7.654c-0.441 0-0.798 0.357-0.798 0.798v3.491c0 0.441 0.357 0.798 0.798 0.798h1.070s0.658 0.096 0.603 0.938c-0.026 0.39-0.327 0.629-0.647 0.772-0.257 0.063-0.511 0.132-0.761 0.21 0 0 0 0 0 0v0c-0.666 0.206-1.302 0.471-1.916 0.78l-1.633-2.115c-0.239-0.313-0.688-0.368-0.997-0.129l-2.108 1.626c-0.313 0.239-0.368 0.688-0.129 0.997l1.56 2.023c-2.273 2.295-3.678 5.451-3.678 8.938 0 7.011 5.683 12.693 12.693 12.693s12.693-5.683 12.693-12.693c0-3.608-1.508-6.863-3.928-9.177zM16.004 28.815c-5.352 0-9.688-4.337-9.688-9.688s4.337-9.688 9.688-9.688 9.688 4.337 9.688 9.688-4.337 9.688-9.688 9.688z"></path>
<path fill="#ffc000" style="fill: var(--color2, #ffc000)" d="M16.18 10.696v8.43h-8.614c0 4.66 3.777 8.438 8.438 8.438s8.438-3.777 8.438-8.438-3.682-8.338-8.261-8.43z"></path>
</symbol>
</defs>
</svg>
