<svg aria-hidden="true" style="position: absolute; width: 0; height: 0; overflow: hidden;" version="1.1" xmlns="http://www.w3.org/2000/svg" xmlns:xlink="http://www.w3.org/1999/xlink">
<defs>
<symbol id="icon-time" viewBox="0 0 43 32">
<path fill="#ffbf00" style="fill: var(--color1, #ffbf00)" d="M39.405 10.006l1.383-1.798c0.24-0.314 0.185-0.762-0.129-1.002l-2.12-1.635c-0.314-0.24-0.762-0.185-1.002 0.129l-1.524 1.975c-0.873-0.411-1.798-0.725-2.767-0.928-0.248-0.148-0.455-0.366-0.477-0.688-0.056-0.851 0.607-0.943 0.607-0.943h0.832c0.444 0 0.803-0.359 0.803-0.803v-3.51c0-0.444-0.359-0.803-0.803-0.803h-7.698c-0.444 0-0.803 0.359-0.803 0.803v3.51c0 0.444 0.359 0.803 0.803 0.803h1.076s0.662 0.096 0.607 0.943c-0.026 0.392-0.329 0.633-0.651 0.777-0.259 0.063-0.514 0.133-0.766 0.211 0 0 0 0 0 0v0c-0.67 0.207-1.309 0.473-1.927 0.784l-1.642-2.127c-0.24-0.314-0.692-0.37-1.002-0.129l-2.12 1.635c-0.314 0.24-0.37 0.692-0.129 1.002l1.568 2.034c-2.29 2.308-3.703 5.482-3.703 8.989 0 7.050 5.715 12.765 12.765 12.765s12.765-5.715 12.765-12.765c0-3.629-1.517-6.902-3.951-9.229zM30.591 28.978c-5.382 0-9.743-4.361-9.743-9.743s4.361-9.743 9.743-9.743 9.743 4.361 9.743 9.743-4.361 9.743-9.743 9.743z"></path>
<path fill="#ffbf00" style="fill: var(--color1, #ffbf00)" d="M30.765 10.757v8.478h-8.659c0 4.687 3.799 8.486 8.486 8.486s8.486-3.799 8.486-8.486-3.703-8.386-8.308-8.478z"></path>
<path fill="#ffbf00" style="fill: var(--color1, #ffbf00)" d="M7.198 10.757c0.756 0 1.369 0.613 1.369 1.369v11.659c0 0.756-0.613 1.369-1.369 1.369s-1.369-0.613-1.369-1.369v-11.659c0-0.756 0.613-1.369 1.369-1.369z"></path>
<path fill="#ffbf00" style="fill: var(--color1, #ffbf00)" d="M14.4 17.981c0 0.756-0.613 1.369-1.369 1.369h-11.659c-0.756 0-1.369-0.613-1.369-1.369s0.613-1.369 1.369-1.369h11.659c0.756 0 1.369 0.613 1.369 1.369z"></path>
</symbol>
<symbol id="icon-oil-hot" viewBox="0 0 18 32">
<path fill="#ffbe00" style="fill: var(--color2, #ffbe00)" d="M8.152 15.353v-1.286c0.214-0.015 0.38-0.188 0.38-0.402s-0.166-0.387-0.38-0.398v-1.017c0-0.365-0.295-0.66-0.66-0.66h-4.242c-0.365 0-0.66 0.295-0.66 0.66v1.017c-0.214 0.007-0.383 0.184-0.383 0.398s0.17 0.394 0.383 0.402v1.305c-1.209 0.38-2.082 1.507-2.082 2.838v12.438c0 0.748 0.604 1.356 1.356 1.356h7.065c0.752 0 1.356-0.608 1.356-1.356v-12.438c0-1.353-0.903-2.495-2.138-2.856zM9.317 29.973c0 0.575-0.464 1.047-1.043 1.047h-5.745c-0.575 0-1.043-0.468-1.043-1.047v-9.387c0-0.575 0.464-1.047 1.043-1.047h5.745c0.575 0 1.043 0.468 1.043 1.047v9.387z"></path>
<path fill="#ffbe00" style="fill: var(--color2, #ffbe00)" d="M5.399 28.433c-1.599-0.037-2.808-1.282-2.138-3.155 0.483 1.389 1.109 1.098 1.209 0.811 0.335-0.966-0.929-1.526-0.671-2.864s1.88-2.009 1.88-2.009c0 0-1.71 2.137-0.166 2.882 0.811 0.391 0.166-0.929 0.166-0.929s1.898 0.711 1.021 2.657c-0.321 0.715 0 0.851 0.177 0.826 0.483-0.066 0.287-0.733 0.287-0.733s1.168 0.73-0.184 2.009c-0.671 0.634-1.581 0.501-1.581 0.501z"></path>
<path fill="#ffbe00" style="fill: var(--color2, #ffbe00)" d="M17.668 17.697l-8.502-9.346 1.12-1.021c0.328-0.298 0.35-0.803 0.052-1.128l-2.819-3.099c-0.298-0.328-0.803-0.35-1.128-0.052l-0.453 0.413-2.572-2.83c-0.719-0.792-1.942-0.848-2.731-0.129-0.792 0.719-0.848 1.938-0.129 2.731l2.572 2.827-0.453 0.413c-0.328 0.298-0.35 0.803-0.052 1.128l2.819 3.099c0.298 0.328 0.803 0.35 1.128 0.052l0.98-0.892 8.502 9.346c0.42 0.461 1.131 0.494 1.592 0.074s0.494-1.131 0.074-1.592z"></path>
<path fill="#ffbe00" style="fill: var(--color2, #ffbe00)" d="M16.289 22.418c0-0.52 0.943-2.093 0.943-2.093s0.943 1.574 0.943 2.093-0.42 0.943-0.943 0.943-0.943-0.42-0.943-0.943z"></path>
</symbol>
<symbol id="icon-oil" viewBox="0 0 18 32">
<path fill="#ffbe00" style="fill: var(--color2, #ffbe00)" d="M8.152 15.353v-1.286c0.214-0.015 0.38-0.188 0.38-0.402s-0.166-0.387-0.38-0.398v-1.017c0-0.365-0.295-0.66-0.66-0.66h-4.242c-0.365 0-0.66 0.295-0.66 0.66v1.017c-0.214 0.007-0.383 0.184-0.383 0.398s0.17 0.394 0.383 0.402v1.305c-1.209 0.38-2.082 1.507-2.082 2.838v12.438c0 0.748 0.604 1.356 1.356 1.356h7.065c0.752 0 1.356-0.608 1.356-1.356v-12.438c0-1.353-0.903-2.495-2.138-2.856zM9.317 29.973c0 0.575-0.464 1.047-1.043 1.047h-5.745c-0.575 0-1.043-0.468-1.043-1.047v-9.387c0-0.575 0.464-1.047 1.043-1.047h5.745c0.575 0 1.043 0.468 1.043 1.047v9.387z"></path>
<path fill="#ffbe00" style="fill: var(--color2, #ffbe00)" d="M17.668 17.697l-8.502-9.346 1.12-1.021c0.328-0.298 0.35-0.803 0.052-1.128l-2.819-3.099c-0.298-0.328-0.803-0.35-1.128-0.052l-0.453 0.413-2.572-2.83c-0.719-0.792-1.942-0.848-2.731-0.129-0.792 0.719-0.848 1.938-0.129 2.731l2.572 2.827-0.453 0.413c-0.328 0.298-0.35 0.803-0.052 1.128l2.819 3.099c0.298 0.328 0.803 0.35 1.128 0.052l0.98-0.892 8.502 9.346c0.42 0.461 1.131 0.494 1.592 0.074s0.494-1.131 0.074-1.592z"></path>
<path fill="#ffbe00" style="fill: var(--color2, #ffbe00)" d="M16.289 22.418c0-0.52 0.943-2.093 0.943-2.093s0.943 1.574 0.943 2.093-0.42 0.943-0.943 0.943-0.943-0.42-0.943-0.943z"></path>
<path fill="#ffbe00" style="fill: var(--color2, #ffbe00)" d="M4.157 22.308c-0.007 2.067 0.785 4.452 2.48 5.694-0.649-0.059-3.040-0.424-3.398-2.558-0.295-1.743 0.608-2.403 0.77-3.943 0.807 1.323 2.075 0.461 2.956 1.909 0.851 1.404-0.409 2.856-0.188 4.448-1.592-1.349-2.274-3.542-2.62-5.55z"></path>
<path fill="#ffbe00" style="fill: var(--color2, #ffbe00)" d="M6.637 28.005c0.103 0.007 0.162 0.011 0.162 0.011-0.011-0.052-0.018-0.107-0.026-0.158 0.17 0.144 0.346 0.276 0.542 0.398 0.265 0.203 0.586 0.317 0.881 0.475-0.586-0.14-1.106-0.391-1.559-0.726z"></path>
</symbol>
<symbol id="icon-means" viewBox="0 0 16 32">
<path fill="#F8BF00" style="fill: var(--color3, #F8BF00)" d="M11.154 9.75h-10.944c0.147-0.604 0.387-1.061 0.744-1.334 1.842-1.404 2.215-2.038 2.288-2.528 0.037-0.24 0.24-0.42 0.483-0.42h3.921c0.243 0 0.446 0.181 0.483 0.42 0.074 0.49 0.446 1.12 2.288 2.528 0.357 0.273 0.593 0.73 0.741 1.334z"></path>
<path fill="#F8BF00" style="fill: var(--color3, #F8BF00)" d="M1.083 27.261h5.199v3.53c0 0.262-0.21 0.472-0.472 0.475-0.947 0-3.073 0-3.994 0-0.247 0-0.453-0.192-0.472-0.439-0.048-0.634-0.14-1.924-0.262-3.571z"></path>
<path fill="#F8BF00" style="fill: var(--color3, #F8BF00)" d="M11.361 12.348h-1.573c-0.184 0-0.335 0.151-0.335 0.335v2.616c0 0.026 0 0.052 0.011 0.074-0.523 0.092-1.013 0.306-1.444 0.612 0.004-0.306 0.026-0.641 0.033-0.73 0-0.011-0.007-0.018-0.018-0.018h-2.837s-0.022 0.007-0.022 0.018v0.041s0.011 0.018 0.022 0.018h0.092c0.295 0.011 0.273 0.302 0.269 0.324v1.437s0.011 0.018 0.018 0.018h0.822s0.018-0.007 0.018-0.018v-1.397c-0.004-0.35 0.247-0.339 0.247-0.339h0.453c0.45 0 0.652 0.442 0.741 0.766-0.177 0.136-0.343 0.295-0.49 0.461 0-0.070 0-0.122 0-0.151 0-0.011-0.007-0.018-0.018-0.018h-0.059s-0.022 0.011-0.022 0.018c0 0.044-0.011 0.151-0.136 0.38-0.17 0.302-0.398 0.306-0.413 0.306h-0.144s-0.018 0.011-0.018 0.018v0.074s0.007 0.022 0.018 0.022h0.158c0.052 0.004 0.092 0.018 0.136 0.037-0.199 0.339-0.35 0.711-0.45 1.105v-1.124s-0.007-0.018-0.018-0.018h-0.074c-0.17 0-0.306 0.136-0.306 0.306v1.529s0.011 0.022 0.018 0.022h0.265c-0.011 0.122-0.015 0.247-0.015 0.372v1.404c-0.298-0.026-0.28-0.295-0.28-0.31v0-1.445s-0.011-0.018-0.022-0.018h-0.811s-0.018 0.007-0.018 0.018v1.356c0 0.199-0.055 0.287-0.055 0.287s-0.059 0.122-0.446 0.103c-0.38-0.022-0.534-0.365-0.542-0.383v0c-0.221-0.619-0.052-1.028 0.136-1.205 0.184-0.177 0.512-0.203 0.531-0.203h0.206s0.018-0.011 0.018-0.018v-0.041s-0.011-0.018-0.022-0.018c-0.107 0.004-0.258-0.018-0.258-0.018s-0.468-0.066-0.475-0.892c-0.004-0.807 0.439-0.848 0.457-0.848h0.217c0.243 0.015 0.232 0.332 0.232 0.332v1.389s0.011 0.022 0.018 0.022c0.048 0 0.166-0.004 0.254-0.055 0.107-0.059 0.122-0.214 0.125-0.225v-1.537s-0.011-0.018-0.018-0.018h-0.774c-0.332 0.004-0.638 0.044-0.873 0.147-0.236 0.107-0.645 0.394-0.438 0.991 0.158 0.453 0.667 0.641 0.906 0.704 0.018 0.004 0.018 0.037 0 0.041-0.571 0.063-1.102 0.247-1.205 0.66-0.111 0.446 0.088 0.744 0.088 0.744 0.357 0.542 1.175 0.545 1.175 0.545h1.876v5.306h-5.281c-0.133-1.861-0.287-4.057-0.446-6.264-0.251-3.567-0.722-6.998-0.516-9.242h11.261c0.044 0.483 0.059 1.013 0.048 1.592z"></path>
<path fill="#fff" style="fill: var(--color4, #fff)" d="M10.465 25.142s-0.018-0.004-0.029-0.011c0 0.018 0 0.037-0.004 0.059 0.011 0 0.022 0 0.033-0.004 0.026 0 0.026-0.037 0-0.044zM10.351 24.169c0 0.265 0.044 0.457 0.107 0.593 0.033-0.439 0.066-0.884 0.096-1.345-0.107 0.125-0.206 0.35-0.203 0.752zM10.351 25.456c-0.206 0.195-0.383 0.637-0.147 1.301 0 0.011 0.037 0.081 0.103 0.158 0.033-0.479 0.070-0.984 0.107-1.511-0.022 0.015-0.044 0.033-0.063 0.052z"></path>
<path fill="#F8BF00" style="fill: var(--color3, #F8BF00)" d="M16.372 19.18v0.287h-9.268v-0.287c0-1.769 1.433-3.202 3.202-3.202h2.863c1.769 0 3.202 1.433 3.202 3.202z"></path>
<path fill="#F8BF00" style="fill: var(--color3, #F8BF00)" d="M7.105 20.219v7.661h9.268v-7.661h-9.268zM12.477 26.738s-0.007 0.018-0.018 0.018h-1.78s-0.741-0.004-1.061-0.49c0 0-0.177-0.273-0.081-0.674 0.092-0.372 0.571-0.538 1.087-0.597 0.018 0 0.022-0.029 0-0.037-0.214-0.059-0.674-0.228-0.818-0.637-0.184-0.538 0.184-0.8 0.398-0.892 0.21-0.092 0.49-0.129 0.789-0.136h0.7s0.018 0.011 0.018 0.018v1.382s-0.015 0.155-0.114 0.21c-0.081 0.044-0.188 0.048-0.232 0.048-0.011 0-0.018-0.007-0.018-0.018v-1.257s0.011-0.287-0.21-0.302h-0.195s-0.416 0.037-0.413 0.766c0.004 0.748 0.427 0.807 0.427 0.807s0.136 0.022 0.236 0.018c0.011 0 0.018 0.007 0.018 0.018v0.037s-0.007 0.018-0.018 0.018h-0.184s-0.31 0.026-0.475 0.184c-0.173 0.162-0.324 0.531-0.125 1.091 0 0.011 0.041 0.092 0.122 0.169 0.077 0.081 0.199 0.162 0.368 0.173 0.35 0.018 0.405-0.092 0.405-0.092s0.048-0.077 0.052-0.258v-1.223s0.007-0.018 0.018-0.018h0.733s0.018 0.011 0.018 0.018v1.319c0 0.059 0.015 0.287 0.339 0.273 0.011 0 0.018 0.007 0.018 0.018v0.052zM13.011 25.043s-0.011 0.018-0.018 0.018h-0.844s-0.018-0.007-0.018-0.018v-1.386c0-0.151 0.125-0.273 0.276-0.273h0.070s0.018 0.007 0.018 0.018v1.223s0 0.317 0.295 0.321h0.203s0.018 0.007 0.018 0.018v0.074zM13.362 24.015h-0.063s-0.015-0.004-0.018-0.015c-0.018-0.092-0.122-0.571-0.505-0.619h-0.144s-0.018-0.007-0.018-0.018v-0.066s0.011-0.018 0.018-0.018h0.129s0.221-0.004 0.372-0.276c0.114-0.206 0.129-0.302 0.125-0.343 0-0.011 0.007-0.018 0.018-0.018h0.052s0.018 0.011 0.018 0.018c0 0.122-0.018 0.785 0.029 1.334 0 0.011-0.007 0.018-0.018 0.018zM13.947 22.666s-0.007 0.018-0.018 0.018h-0.059s-0.018-0.007-0.018-0.018c-0.015-0.129-0.136-0.98-0.73-0.98h-0.409s-0.228-0.011-0.225 0.306v1.264s-0.007 0.018-0.018 0.018h-0.744s-0.018-0.007-0.018-0.018v-1.297s0.026-0.28-0.24-0.291h-0.085s-0.018-0.007-0.018-0.018v-0.037s0.011-0.018 0.018-0.018h2.565s0.018 0.007 0.018 0.018c-0.007 0.122-0.052 0.781-0.018 1.050z"></path>
<path fill="#F8BF00" style="fill: var(--color3, #F8BF00)" d="M7.105 28.636h9.268v2.487c0 0.483-0.391 0.877-0.877 0.877h-7.517c-0.483 0-0.877-0.394-0.877-0.877v-2.487z"></path>
<path fill="#F8BF00" style="fill: var(--color3, #F8BF00)" d="M10.546 12.938h2.384c0.275 0 0.497 0.223 0.497 0.497v1.297c0 0.275-0.223 0.497-0.497 0.497h-2.384c-0.275 0-0.497-0.223-0.497-0.497v-1.297c0-0.275 0.223-0.497 0.497-0.497z"></path>
<path fill="#fff" style="fill: var(--color4, #fff)" d="M6.401 20.872v0.059s-0.011 0.022-0.018 0.022h-0.099v-0.103c0.029 0.004 0.059 0.004 0.096 0 0.011 0 0.022 0.007 0.022 0.018z"></path>
<path fill="#F8BF00" style="fill: var(--color3, #F8BF00)" d="M3.28 2.734h4.805c0.23 0 0.416 0.186 0.416 0.416v1.474c0 0.23-0.186 0.416-0.416 0.416h-4.805c-0.23 0-0.416-0.186-0.416-0.416v-1.474c0-0.23 0.186-0.416 0.416-0.416z"></path>
<path fill="#F8BF00" style="fill: var(--color3, #F8BF00)" d="M7.971 1.743h-1.286v-0.785h-2.001v0.785h-1.286c-0.081 0-0.147 0.066-0.147 0.147v0.394c0 0.081 0.066 0.147 0.147 0.147h4.577c0.081 0 0.147-0.066 0.147-0.147v-0.394c0-0.081-0.066-0.147-0.147-0.147z"></path>
<path fill="#F8BF00" style="fill: var(--color3, #F8BF00)" d="M4.838 1.341s-1.441 0.335-1.393-0.626 1.503-0.814 7.591-0.368c0.579 0.063 0.707 0.556-0.416 0.538-0.888-0.015-3.858 0.007-4.941 0.343s-0.844 0.111-0.844 0.111z"></path>
</symbol>
<symbol id="icon-hands" viewBox="0 0 36 32">
<path fill="#F8BF00" style="fill: var(--color3, #F8BF00)" d="M23.294 24.218c0.436 1.087 1.206 3.114 2.508 5.174-0.129 1.65-0.503 2.674-1.365 2.6-2.153-0.192-1.646-5.012-1.594-8.603 0.192 0.296 0.348 0.573 0.448 0.828z"></path>
<path fill="#F8BF00" style="fill: var(--color3, #F8BF00)" d="M35.861 14.75c-2.193-2.082-4.638-5.396-5.359-7.345-1.128-3.033-3.488-7.656-10.397-7.393-3.144 0.118-5.851-0.917-7.46 7.623 0 0 5.411-3.244 6.68-0.906 1.442 2.663-4.342 5.015-5.925 6.887-0.518 0.614-1.65 1.849-2.785 2.918-0.244 0.233-0.544 0.751-0.636 1.080-1.324 4.594-2.16 6.887-0.921 7.416 1.89 0.806 3.491-8.621 5.037-8.141 1.546 0.473-3.314 11.321-0.655 12.187 2.656 0.862 2.807-10.153 4.268-9.89s-1.964 12.634 0.936 12.812c2.837 0.166 1.846-7.412 2.508-10.781-1.761-2.071-3-4.364-1.687-5.437 1.675-1.372 4.353 0.677 6.265 3 0.059 0.070 0.252 0.074 0.259-0.015 0.248-2.929-0.092-5.33 0.521-7.282 0.070-0.222-0.063-0.459-0.288-0.521-2.578-0.699-3.34-2.707-3.384-2.833 0.122 0.115 2.053 1.968 3.784 1.897 0.588-0.022 1.128 0.595 1.849 1.468 1.195 1.439 2.874 3.562 6.069 4.586 0.27 0.089 0.551 0.166 0.84 0.237 0.828 0.2 1.483-0.607 0.477-1.561zM20.139 14.199c-1.779 0.096-2.234 1.272-2.334 2.877-1.372-2.116-0.355-4.050 2.352-3.147 0.729 0.218 0.755 0.244-0.018 0.27zM20.841 8.562c0.34-1.576 0.226-2.826-1.461-3.406-0.203-0.067-0.407-0.133-0.618-0.226 0.222-0.030 0.444-0.033 0.673-0.041 2.493-0.222 3.111 1.842 1.405 3.673z"></path>
<path fill="#F8BF00" style="fill: var(--color3, #F8BF00)" d="M28.963 22.291s-1.705-0.525-3.576-2.556-3.773-4.139-5.056-3.088c-1.546 1.265 2.737 4.579 3.469 6.406s2.559 6.75 7.038 8.244c0.355 0.118 0.747 0.052 1.039-0.185l3.621-2.918c0.351-0.285 0.518-0.74 0.429-1.184-0.518-2.656-2.741-11.699-9.195-13.396-0.030 3.51-0.207 5.884-0.207 5.884 0.71 0.577 1.524 1.675 2.101 2.386l0.333 0.411z"></path>
<path fill="#F8BF00" style="fill: var(--color3, #F8BF00)" d="M8.259 10.138s0.88-0.144 2.352-0.662c0.529-0.189 1.209-0.281 1.849-0.632 2.319-1.283 4.886-2.737 5.773-1.335 1.065 1.687-4.043 3.48-5.315 4.982s-4.56 5.596-9.283 5.6c-0.374 0-0.725-0.189-0.928-0.503l-2.515-3.913c-0.244-0.381-0.259-0.865-0.033-1.261 1.317-2.33 6.188-10.064 12.738-9.82 0.107 0.004 0.181 0.115 0.148 0.218-0.854 2.656-1.431 4.808-1.613 5.496-0.037 0.148-0.144 0.263-0.289 0.318v0c-0.854 0.322-1.672 0.732-2.441 1.228l-0.448 0.285z"></path>
</symbol>
<symbol id="icon-foot" viewBox="0 0 19 32">
<path fill="#F8BF00" style="fill: var(--color3, #F8BF00)" d="M15.508 6.514c-0.641-0.476-0.571 0.291-0.973 0-0.199-0.147 0.457-1.047-0.195-1.574-0.763-0.619-0.929 0.387-1.169 0.181-0.321-0.276 0.512-1.629-0.833-1.976-1.084-0.28-0.682 0.767-1.198 0.723-0.361-0.030 0.512-2.363-1.504-2.643-1.489-0.206-1.084 1.53-1.449 1.5-0.361-0.026 0.251-2.643-1.806-2.728-2.057-0.081-2.503 1.806-2.197 3.48 0.306 1.67 0.38 1.81-0.096 3.981-0.361 1.651 0.122 3.141 0.472 3.874 0.015 0.030 0.236 0.409 0.236 0.409 1.025-1.95 2.374-4.081 3.513-3.443 1.773 0.988 0.324 3.067-0.306 5.201-0.512 1.744-0.774 4.033-1.342 5.201-0.464 0.947-0.546 3.056-0.671 3.808-0.634 3.937-1.404 8.534 2.558 9.098 1.74 0.247 2.72-0.059 3.483-1.231v0c-0.435-1.257-1.065-3.292-2.094-4.921-1.183-1.884-2.016-3.531-0.833-4.423 0.973-0.737 2.978 1.139 4.438 3.111 0.015-0.151 0 0 0 0-0.203-4.147 0.291-5.891 1.368-9.134 1.592-4.788 1.231-8.018 0.593-8.489zM9.599 20.038c-1.327 0-1.736 0.509-1.95 1.78-1.047-2.094 0.634-3.096 2.433-1.795-0.166 0.015-0.328 0.015-0.483 0.015zM10.13 9.016c-0.214-1.272-0.619-1.777-1.95-1.777-0.159 0-0.313 0-0.483-0.015 1.581-1.283 3.248-0.265 2.433 1.795z"></path>
<path fill="#F8BF00" style="fill: var(--color3, #F8BF00)" d="M3.314 8.6c0.004-0.044-0.044-0.077-0.081-0.052-0.483 0.328-2.706 2.050-3.052 6.060-0.391 4.508-0.361 4.202 2.308 5.341s3.782-2.392 4.033-3.255 0.251-2.448 0.877-3.896 1.552-3.174 0.652-3.657-2.58 3.152-2.934 3.97c-0.033 0.081-0.136 0.103-0.199 0.041-0.442-0.431-1.847-2.009-1.603-4.556z"></path>
<path fill="#F8BF00" style="fill: var(--color3, #F8BF00)" d="M14.229 20.934c0-0.085 0.085-0.147 0.162-0.118 0.638 0.247 2.938 1.386 3.852 5.153 1.069 4.394 0.995 4.095-1.471 5.629s-4.103-1.788-4.482-2.602-0.619-2.381-1.46-3.716-2.016-2.901-1.202-3.517c0.855-0.649 3.535 3.137 4.073 3.918 0.070 0.1 0.221 0.085 0.265-0.026 0.144-0.365 0.321-1.463 0.258-4.718z"></path>
</symbol>
<symbol id="icon-cream" viewBox="0 0 34 32">
<path fill="#ffbe00" style="fill: var(--color2, #ffbe00)" d="M18.132 23.836h-10.768c-0.366 0-0.725 0.078-1.054 0.226l-3.958 1.772c-0.196 0.089-0.325 0.289-0.325 0.507v1.694c0 2.19 1.776 3.965 3.965 3.965h8.87c2.19 0 3.962-1.772 3.962-3.962v-3.507c0-0.381-0.307-0.695-0.692-0.695zM11.123 30.335s-0.007 0.018-0.018 0.018h-1.676s-0.699-0.004-1.002-0.466c0 0-0.166-0.255-0.074-0.633 0.089-0.351 0.54-0.507 1.025-0.562 0.018 0 0.022-0.030 0.004-0.033-0.203-0.055-0.636-0.215-0.773-0.599-0.174-0.51 0.174-0.755 0.374-0.843s0.462-0.122 0.744-0.126h0.658s0.018 0.007 0.018 0.015v1.306s-0.015 0.144-0.107 0.196c-0.078 0.041-0.178 0.044-0.218 0.044-0.007 0-0.015-0.007-0.015-0.018v-1.18s0.007-0.27-0.2-0.285h-0.181s-0.392 0.037-0.392 0.71v0.011c0.004 0.703 0.403 0.762 0.403 0.762s0.129 0.018 0.222 0.015c0.011 0 0.018 0.007 0.018 0.015v0.033s-0.007 0.018-0.018 0.018h-0.174s-0.292 0.022-0.451 0.174c-0.163 0.152-0.303 0.499-0.118 1.025 0.007 0.015 0.141 0.307 0.462 0.326 0.333 0.018 0.381-0.089 0.381-0.089s0.044-0.074 0.048-0.244v-1.154s0.007-0.018 0.015-0.018h0.692s0.018 0.007 0.018 0.018v1.232s-0.018 0.285 0.318 0.266c0.011 0 0.018 0.007 0.018 0.015v0.052zM11.626 28.734s-0.007 0.018-0.018 0.018h-0.795s-0.018-0.007-0.018-0.018v-1.302c0-0.144 0.118-0.263 0.263-0.263h0.063s0.018 0.011 0.018 0.018v1.154s0 0.3 0.277 0.303h0.192s0.018 0.007 0.018 0.018v0.070zM11.955 27.765h-0.059s-0.015-0.004-0.015-0.015c-0.015-0.085-0.115-0.536-0.477-0.581h-0.133s-0.018-0.007-0.018-0.015v-0.063s0.007-0.018 0.018-0.018h0.118s0.207-0.004 0.355-0.263c0.107-0.192 0.118-0.285 0.118-0.322 0-0.007 0.007-0.018 0.018-0.018h0.048s0.018 0.011 0.018 0.018c-0.004 0.115-0.018 0.744 0.026 1.258 0 0.011-0.007 0.018-0.018 0.018zM12.51 26.496s-0.007 0.018-0.018 0.018h-0.056s-0.015-0.007-0.015-0.015c-0.015-0.122-0.133-0.928-0.688-0.928h-0.385s-0.215-0.007-0.211 0.292v1.187s-0.007 0.018-0.018 0.018h-0.699s-0.018-0.007-0.018-0.018v-1.221s0.026-0.266-0.229-0.277h-0.078s-0.018-0.007-0.018-0.015v-0.037s0.007-0.015 0.018-0.015h2.415s0.018 0.007 0.018 0.018c-0.007 0.115-0.048 0.736-0.018 0.991z"></path>
<path fill="#ffbe00" style="fill: var(--color2, #ffbe00)" d="M10.132 22.183l4.283-1.864c0.566-0.248 1.228-0.096 1.631 0.37l0.581 0.673c0.37 0.429 0.067 1.091-0.499 1.091h-5.941c-0.152 0-0.196-0.211-0.056-0.27z"></path>
<path fill="#ffbe00" style="fill: var(--color2, #ffbe00)" d="M1.323 20.539l11.314-5.073c1.127-0.505 2.449 0.001 2.953 1.125v0c0.2 0.446-0.001 0.965-0.443 1.163l-13.785 6.181c-0.446 0.2-0.965-0.001-1.163-0.443v0c-0.505-1.127 0.001-2.449 1.125-2.953z"></path>
<path fill="#ffbe00" style="fill: var(--color2, #ffbe00)" d="M21.743 26.722h9.71c0.222 0 0.403 0.181 0.403 0.403v2.471c0 1.328-1.080 2.408-2.408 2.408h-5.696c-1.328 0-2.408-1.080-2.408-2.408v-2.471c0-0.222 0.181-0.403 0.403-0.403z"></path>
<path fill="#ffbe00" style="fill: var(--color2, #ffbe00)" d="M33.409 3.917h-13.664c-0.166 0-0.3 0.144-0.285 0.311l1.853 20.603c0.015 0.17 0.159 0.303 0.333 0.303h9.902c0.174 0 0.318-0.133 0.333-0.307l1.809-20.6c0.015-0.166-0.115-0.311-0.281-0.311zM27.828 18.136s-0.015 0.026-0.030 0.026h-2.504s-1.043-0.004-1.494-0.692c0 0-0.252-0.381-0.111-0.947 0.129-0.525 0.803-0.758 1.531-0.84 0.026-0.004 0.030-0.044 0.004-0.052-0.303-0.081-0.951-0.318-1.154-0.895-0.263-0.758 0.259-1.128 0.559-1.258 0.3-0.133 0.688-0.185 1.11-0.189h0.984s0.026 0.011 0.026 0.026v1.949s-0.022 0.215-0.159 0.289c-0.115 0.063-0.266 0.070-0.326 0.070-0.015 0-0.026-0.015-0.026-0.026v-1.764s0.015-0.403-0.296-0.425h-0.274c-0.026 0-0.588 0.052-0.581 1.076 0.007 1.050 0.599 1.136 0.599 1.136s0.192 0.030 0.333 0.022c0.015 0 0.026 0.011 0.026 0.026v0.048s-0.011 0.030-0.026 0.030h-0.259s-0.118 0.007-0.255 0.044c-0.137 0.037-0.3 0.1-0.418 0.211-0.244 0.229-0.459 0.747-0.178 1.531v0c0.011 0.026 0.207 0.459 0.688 0.485 0.496 0.030 0.57-0.129 0.57-0.129s0.070-0.107 0.070-0.363v-1.727s0.011-0.026 0.026-0.026h1.032s0.026 0.011 0.026 0.026v1.857c0 0.089 0.022 0.407 0.477 0.381 0.015 0 0.030 0.011 0.030 0.026v0.074zM28.578 15.747s-0.015 0.026-0.026 0.026h-1.191s-0.026-0.011-0.026-0.026v-1.949c0-0.215 0.174-0.388 0.388-0.388h0.096s0.026 0.011 0.026 0.026v1.727s0 0.444 0.418 0.451h0.289s0.026 0.011 0.026 0.026v0.107zM29.070 14.3h-0.089s-0.022-0.011-0.026-0.022c-0.022-0.129-0.17-0.806-0.71-0.869h-0.203s-0.026-0.011-0.026-0.026v-0.092s0.011-0.030 0.026-0.030h0.181c0.022 0 0.311-0.007 0.529-0.388 0.163-0.289 0.178-0.425 0.178-0.481 0-0.015 0.011-0.026 0.026-0.026h0.074s0.026 0.011 0.026 0.026c-0.004 0.17-0.026 1.11 0.041 1.879 0 0.015-0.011 0.030-0.026 0.030zM29.895 12.399s-0.011 0.030-0.026 0.030h-0.081s-0.026-0.011-0.026-0.022c-0.022-0.185-0.192-1.383-1.025-1.383h-0.577s-0.322-0.015-0.314 0.433v1.776s-0.011 0.026-0.026 0.026h-1.047s-0.026-0.011-0.026-0.026v-1.827c0.004-0.022 0.037-0.396-0.34-0.407h-0.118s-0.026-0.015-0.026-0.026v-0.056s0.011-0.026 0.026-0.026h3.61s0.026 0.015 0.026 0.030c-0.011 0.174-0.074 1.099-0.030 1.48z"></path>
<path fill="#ffbe00" style="fill: var(--color2, #ffbe00)" d="M20.43 0h12.321c0.721 0 1.306 0.584 1.306 1.306v0.769c0 0.207-0.17 0.377-0.377 0.377h-14.178c-0.207 0-0.377-0.17-0.377-0.377v-0.769c0-0.721 0.584-1.306 1.306-1.306z"></path>
</symbol>
<symbol id="icon-candles" viewBox="0 0 26 32">
<path fill="none" stroke="#F8BF00" style="stroke: var(--color3, #F8BF00)" stroke-linejoin="miter" stroke-linecap="butt" stroke-miterlimit="10" stroke-width="1.499" d="M25.49 3.079c0 1.286-5.538 2.329-12.37 2.329s-12.37-1.043-12.37-2.329c0-1.286 5.538-2.329 12.37-2.329s12.37 1.043 12.37 2.329z"></path>
<path fill="none" stroke="#F8BF00" style="stroke: var(--color3, #F8BF00)" stroke-linejoin="miter" stroke-linecap="butt" stroke-miterlimit="10" stroke-width="1.499" d="M0.749 3.079v25.155c0 1.664 1.348 3.016 3.016 3.016h18.711c1.664 0 3.016-1.348 3.016-3.016v-25.155"></path>
<path fill="none" stroke="#F8BF00" style="stroke: var(--color3, #F8BF00)" stroke-linejoin="miter" stroke-linecap="butt" stroke-miterlimit="10" stroke-width="1.499" d="M0.749 3.079v21c0 3.96 3.211 7.172 7.172 7.172h10.401c3.96 0 7.172-3.211 7.172-7.172v-21"></path>
<path fill="#F8BF00" style="fill: var(--color3, #F8BF00)" d="M24.759 27.183l-4.196 3.714h2.311l1.58-0.143 0.926-1.099 0.191-1.374-0.812-1.099z"></path>
<path fill="#F8BF00" style="fill: var(--color3, #F8BF00)" d="M1.084 27.136l4.993 4.192-3.273-0.235-2.054-1.613 0.334-2.344z"></path>
<path fill="#F8BF00" style="fill: var(--color3, #F8BF00)" d="M4.023 19.986h18.149c0.573 0 1.040 0.467 1.040 1.040v3.262c0 2.726-2.215 4.941-4.941 4.941h-10.346c-2.726 0-4.941-2.215-4.941-4.941v-3.262c0-0.573 0.467-1.040 1.040-1.040z"></path>
<path fill="#F8BF00" style="fill: var(--color3, #F8BF00)" d="M13.167 18.954c-2.072 0-3.38-1.708-2.054-4.607s2.594-3.097 2.535-5.996c-0.301 4.787 1.007 5.393 1.708 7.183s-0.040 3.42-2.193 3.42z"></path>
</symbol>
</defs>
</svg>
