<svg aria-hidden="true" style="position: absolute; width: 0; height: 0; overflow: hidden;" version="1.1" xmlns="http://www.w3.org/2000/svg" xmlns:xlink="http://www.w3.org/1999/xlink">
<defs>
<symbol id="icon-shower" viewBox="0 0 20 32">
<path fill="#727273" style="fill: var(--color1, #727273)" d="M20.249 13.174c0.043 0.456-0.286 0.851-0.724 0.851h-12.826c-0.156 0-0.293-0.047-0.409-0.134-0.21-0.156-0.34-0.427-0.311-0.72 0.043-0.427 0.116-0.843 0.221-1.245 0.738-2.895 2.595-5.034 5.356-5.537 0.011 0-1.278-5.83-6.359-3.858-1.759 0.68-2.863 2.457-2.863 4.343 0 6.304 0.047 22.938 0.047 22.938l3.619-0.011c0.536 0 1.578 0.040 1.578 1.144s-1.223 1.053-1.578 1.053h-6v-25.098c0-2.906 1.799-5.563 4.553-6.493 4.6-1.553 8.889 1.571 9.33 5.83 0 0.011 0.007 0.018 0.018 0.018 3.333 0.398 5.986 3.286 6.344 6.92z"></path>
<path fill="#727273" style="fill: var(--color1, #727273)" d="M8.993 15.653h-0.004c0.532 0 0.963 0.431 0.963 0.963v1.097c0 0.532-0.431 0.963-0.963 0.963h0.004c-0.532 0-0.963-0.431-0.963-0.963v-1.097c0-0.532 0.431-0.963 0.963-0.963z"></path>
<path fill="#727273" style="fill: var(--color1, #727273)" d="M12.837 15.653h-0.004c0.532 0 0.963 0.431 0.963 0.963v1.097c0 0.532-0.431 0.963-0.963 0.963h0.004c-0.532 0-0.963-0.431-0.963-0.963v-1.097c0-0.532 0.431-0.963 0.963-0.963z"></path>
<path fill="#727273" style="fill: var(--color1, #727273)" d="M16.684 15.653h-0.004c0.532 0 0.963 0.431 0.963 0.963v1.097c0 0.532-0.431 0.963-0.963 0.963h0.004c-0.532 0-0.963-0.431-0.963-0.963v-1.097c0-0.532 0.431-0.963 0.963-0.963z"></path>
<path fill="#727273" style="fill: var(--color1, #727273)" d="M8.993 20.126h-0.004c0.532 0 0.963 0.431 0.963 0.963v1.097c0 0.532-0.431 0.963-0.963 0.963h0.004c-0.532 0-0.963-0.431-0.963-0.963v-1.097c0-0.532 0.431-0.963 0.963-0.963z"></path>
<path fill="#727273" style="fill: var(--color1, #727273)" d="M12.837 20.126h-0.004c0.532 0 0.963 0.431 0.963 0.963v1.097c0 0.532-0.431 0.963-0.963 0.963h0.004c-0.532 0-0.963-0.431-0.963-0.963v-1.097c0-0.532 0.431-0.963 0.963-0.963z"></path>
<path fill="#727273" style="fill: var(--color1, #727273)" d="M16.684 20.126h-0.004c0.532 0 0.963 0.431 0.963 0.963v1.097c0 0.532-0.431 0.963-0.963 0.963h0.004c-0.532 0-0.963-0.431-0.963-0.963v-1.097c0-0.532 0.431-0.963 0.963-0.963z"></path>
</symbol>
<symbol id="icon-shower-set" viewBox="0 0 21 32">
<path fill="#727273" style="fill: var(--color1, #727273)" d="M10.214 16.993c-2.972 0.097-5.373 2.497-5.47 5.47-0.112 3.313 2.539 5.96 5.851 5.851 2.972-0.097 5.373-2.497 5.47-5.47 0.108-3.316-2.539-5.963-5.855-5.855zM11.515 26.818s-0.015 0.030-0.030 0.030h-2.856s-1.193-0.007-1.705-0.793c0 0-0.284-0.437-0.127-1.081 0.146-0.598 0.916-0.867 1.746-0.957 0.034 0 0.037-0.049 0.004-0.056-0.344-0.093-1.088-0.366-1.316-1.021-0.303-0.864 0.295-1.286 0.636-1.436s0.785-0.209 1.264-0.217h1.125s0.030 0.015 0.030 0.030v2.225c0 0.022-0.026 0.243-0.183 0.329-0.131 0.071-0.303 0.078-0.37 0.078-0.015 0-0.030-0.015-0.030-0.030v-2.011s0.015-0.46-0.34-0.486h-0.31c-0.034 0-0.669 0.064-0.662 1.23 0.007 1.2 0.688 1.294 0.688 1.294s0.221 0.034 0.378 0.026c0.015 0 0.030 0.011 0.030 0.030v0.056s-0.011 0.030-0.030 0.030h-0.295c-0.026 0-0.497 0.037-0.77 0.292-0.28 0.262-0.52 0.852-0.202 1.746v0c0.011 0.026 0.236 0.523 0.785 0.553 0.565 0.034 0.647-0.15 0.647-0.15s0.079-0.127 0.079-0.415v-1.967s0.015-0.030 0.030-0.030h1.178s0.030 0.015 0.030 0.030v2.094c0 0.026-0.034 0.49 0.542 0.456 0.019 0 0.034 0.011 0.034 0.030v0.086zM12.372 24.093s-0.015 0.030-0.030 0.030h-1.357s-0.030-0.015-0.030-0.030v-2.225c0-0.243 0.198-0.441 0.441-0.441h0.112s0.030 0.015 0.030 0.030v1.967s0 0.508 0.475 0.516h0.325s0.030 0.015 0.030 0.030v0.123zM12.936 22.44h-0.101s-0.026-0.007-0.030-0.022c-0.026-0.15-0.198-0.92-0.811-0.991 0 0 0 0 0 0h-0.228s-0.030-0.011-0.030-0.030v-0.105s0.015-0.030 0.030-0.030h0.206c0.022 0 0.355-0.007 0.602-0.445 0.187-0.329 0.206-0.486 0.202-0.546 0-0.019 0.015-0.034 0.030-0.034h0.086s0.030 0.015 0.030 0.030c-0.004 0.194-0.030 1.264 0.045 2.142 0 0.019-0.015 0.034-0.030 0.034zM13.875 20.275s-0.011 0.034-0.030 0.034h-0.090s-0.026-0.011-0.030-0.026c-0.026-0.209-0.221-1.578-1.17-1.578h-0.658s-0.366-0.015-0.355 0.494v2.026s-0.015 0.030-0.030 0.030h-1.193s-0.030-0.015-0.030-0.030v-2.082c0-0.026 0.041-0.452-0.389-0.467h-0.138s-0.030-0.015-0.030-0.030v-0.060s0.015-0.030 0.030-0.030h4.12s0.030 0.015 0.030 0.034c-0.015 0.198-0.086 1.252-0.034 1.69z"></path>
<path fill="#727273" style="fill: var(--color1, #727273)" d="M20.795 30l-2.254-15.684c-0.082-0.576-0.576-1.006-1.159-1.006h-13.949c-0.579 0-1.077 0.43-1.159 1.006l-2.254 15.684c-0.153 1.054 0.665 2 1.731 2h17.31c1.066 0 1.884-0.946 1.735-2zM15.789 24.926c-0.295 0.695-0.718 1.32-1.252 1.854-0.538 0.538-1.163 0.957-1.858 1.252-0.718 0.303-1.484 0.46-2.273 0.46s-1.552-0.157-2.273-0.46c-0.695-0.292-1.32-0.714-1.854-1.252-0.538-0.535-0.957-1.159-1.252-1.854-0.307-0.722-0.46-1.484-0.46-2.273s0.153-1.552 0.46-2.273c0.292-0.695 0.714-1.32 1.252-1.854 0.535-0.538 1.159-0.957 1.854-1.252 0.722-0.303 1.484-0.46 2.273-0.46s1.552 0.157 2.273 0.46c0.695 0.292 1.32 0.714 1.858 1.252 0.535 0.535 0.957 1.159 1.252 1.854 0.303 0.722 0.46 1.484 0.46 2.273s-0.157 1.552-0.46 2.273z"></path>
<path fill="#727273" style="fill: var(--color1, #727273)" d="M5.989 12.734h-2.856c-0.034 0-0.060-0.030-0.056-0.064 0.037-0.284 0.258-1.443 1.316-1.484 0.217-0.007 0.411 0.034 0.58 0.112 0.325 0.15 0.568 0.422 0.744 0.692 0.030 0.045 0.060 0.093 0.086 0.138 0.127 0.221 0.202 0.422 0.239 0.527 0.011 0.037-0.015 0.075-0.056 0.075z"></path>
<path fill="#727273" style="fill: var(--color1, #727273)" d="M9.078 12.734h-2.696c-0.041 0-0.075-0.037-0.067-0.079 0.015-0.105 0.056-0.303 0.146-0.516 0.15-0.363 0.445-0.77 1.002-0.804 0.864-0.056 1.499 0.968 1.679 1.301 0.026 0.045-0.007 0.101-0.064 0.101z"></path>
<path fill="#727273" style="fill: var(--color1, #727273)" d="M18.122 11.975c-0.019 0.426-0.359 0.759-0.77 0.759h-6.662c-0.194 0-0.348-0.168-0.336-0.37 0.015-0.239 0.049-0.565 0.135-0.867 0.045-0.161 0.213-0.247 0.363-0.179 1.073 0.505 2.46 0.636 4.015 0.471 0.348-0.037 0.845-0.071 1.286-0.213 1.342-0.43 1.447-0.527 1.649-1.477 0.019-0.086 0.15-0.064 0.176 0.015 0.165 0.516 0.172 1.286 0.146 1.858z"></path>
<path fill="#727273" style="fill: var(--color1, #727273)" d="M16.974 10.745c-0.303 0.176-0.639 0.31-0.998 0.408-0.329 0.090-0.677 0.15-1.028 0.187-1.619 0.165-3.342-0.172-3.956-0.437-0.12-0.052-0.172-0.194-0.112-0.31 0.183-0.359 0.445-0.579 0.688-0.707 0.157-0.086 0.303-0.138 0.419-0.165 0.082-0.022 0.15 0.071 0.105 0.146-0.079 0.131-0.138 0.251-0.135 0.363 0.004 0.284 0.426 0.479 2.038 0.527 0.292 0.007 0.542 0 0.755-0.022 0.52-0.049 0.819-0.168 0.987-0.31 0.015-0.011 0.026-0.022 0.037-0.037 0.187-0.179 0.179-0.393 0.142-0.523-0.022-0.079 0.037-0.153 0.12-0.153 0.161 0 0.411 0.034 0.647 0.191 0.15 0.097 0.295 0.251 0.411 0.475 0.067 0.135 0.011 0.299-0.12 0.378z"></path>
<path fill="#727273" style="fill: var(--color1, #727273)" d="M15.493 9.949c0 0.161-0.355 0.299-0.875 0.363-0.191 0.022-0.404 0.037-0.632 0.037-0.83 0-1.503-0.179-1.503-0.4s0.673-0.396 1.503-0.396c0.135 0 0.262 0.004 0.385 0.015 0.647 0.045 1.118 0.198 1.118 0.385z"></path>
<path fill="#727273" style="fill: var(--color1, #727273)" d="M10.827 9.93c-0.295 0.419-0.897 1.372-1.137 2.464-0.004 0.011-0.007 0.022-0.007 0.034-0.015 0.071-0.101 0.086-0.135 0.026-0.221-0.396-0.658-0.95-0.946-1.301-0.056-0.071-0.108-0.131-0.15-0.183-0.079-0.093-0.086-0.236-0.026-0.344 0.636-1.099 1.776-1.058 2.299-0.976 0.123 0.022 0.179 0.176 0.101 0.284z"></path>
<path fill="#727273" style="fill: var(--color1, #727273)" d="M15.277 8.973c-0.307-0.052-0.695-0.131-1.032-0.142-0.034 0-0.064-0.022-0.075-0.052l-2.266-6.696c-0.269-0.796-0.965-1.077-1.529-1.077h-0.019c-0.572 0.007-1.271 0.303-1.525 1.107l-2.785 8.865c-0.022 0.075-0.12 0.101-0.179 0.045-0.194-0.183-0.419-0.34-0.673-0.452-0.052-0.022-0.079-0.075-0.064-0.127l2.711-8.625c0.344-1.092 1.327-1.802 2.505-1.817h0.034c1.163 0 2.15 0.692 2.512 1.768l2.475 7.104c0.019 0.056-0.030 0.112-0.090 0.101z"></path>
</symbol>
<symbol id="icon-means" viewBox="0 0 16 32">
<path fill="#727273" style="fill: var(--color1, #727273)" d="M11.154 9.75h-10.944c0.147-0.604 0.387-1.061 0.744-1.334 1.842-1.404 2.215-2.038 2.288-2.528 0.037-0.24 0.24-0.42 0.483-0.42h3.921c0.243 0 0.446 0.181 0.483 0.42 0.074 0.49 0.446 1.12 2.288 2.528 0.357 0.273 0.593 0.73 0.741 1.334z"></path>
<path fill="#727273" style="fill: var(--color1, #727273)" d="M1.083 27.261h5.199v3.53c0 0.262-0.21 0.472-0.472 0.475-0.947 0-3.073 0-3.994 0-0.247 0-0.453-0.192-0.472-0.439-0.048-0.634-0.14-1.924-0.262-3.571z"></path>
<path fill="#727273" style="fill: var(--color1, #727273)" d="M11.361 12.348h-1.573c-0.184 0-0.335 0.151-0.335 0.335v2.616c0 0.026 0 0.052 0.011 0.074-0.523 0.092-1.013 0.306-1.444 0.612 0.004-0.306 0.026-0.641 0.033-0.73 0-0.011-0.007-0.018-0.018-0.018h-2.837s-0.022 0.007-0.022 0.018v0.041s0.011 0.018 0.022 0.018h0.092c0.295 0.011 0.273 0.302 0.269 0.324v1.437s0.011 0.018 0.018 0.018h0.822s0.018-0.007 0.018-0.018v-1.397c-0.004-0.35 0.247-0.339 0.247-0.339h0.453c0.45 0 0.652 0.442 0.741 0.766-0.177 0.136-0.343 0.295-0.49 0.461 0-0.070 0-0.122 0-0.151 0-0.011-0.007-0.018-0.018-0.018h-0.059s-0.022 0.011-0.022 0.018c0 0.044-0.011 0.151-0.136 0.38-0.17 0.302-0.398 0.306-0.413 0.306h-0.144s-0.018 0.011-0.018 0.018v0.074s0.007 0.022 0.018 0.022h0.158c0.052 0.004 0.092 0.018 0.136 0.037-0.199 0.339-0.35 0.711-0.45 1.105v-1.124s-0.007-0.018-0.018-0.018h-0.074c-0.17 0-0.306 0.136-0.306 0.306v1.529s0.011 0.022 0.018 0.022h0.265c-0.011 0.122-0.015 0.247-0.015 0.372v1.404c-0.298-0.026-0.28-0.295-0.28-0.31v0-1.445s-0.011-0.018-0.022-0.018h-0.811s-0.018 0.007-0.018 0.018v1.356c0 0.199-0.055 0.287-0.055 0.287s-0.059 0.122-0.446 0.103c-0.38-0.022-0.534-0.365-0.542-0.383v0c-0.221-0.619-0.052-1.028 0.136-1.205 0.184-0.177 0.512-0.203 0.531-0.203h0.206s0.018-0.011 0.018-0.018v-0.041s-0.011-0.018-0.022-0.018c-0.107 0.004-0.258-0.018-0.258-0.018s-0.468-0.066-0.475-0.892c-0.004-0.807 0.439-0.848 0.457-0.848h0.217c0.243 0.015 0.232 0.332 0.232 0.332v1.389s0.011 0.022 0.018 0.022c0.048 0 0.166-0.004 0.254-0.055 0.107-0.059 0.122-0.214 0.125-0.225v-1.537s-0.011-0.018-0.018-0.018h-0.774c-0.332 0.004-0.638 0.044-0.873 0.147-0.236 0.107-0.645 0.394-0.438 0.991 0.158 0.453 0.667 0.641 0.906 0.704 0.018 0.004 0.018 0.037 0 0.041-0.571 0.063-1.102 0.247-1.205 0.66-0.111 0.446 0.088 0.744 0.088 0.744 0.357 0.542 1.175 0.545 1.175 0.545h1.876v5.306h-5.281c-0.133-1.861-0.287-4.057-0.446-6.264-0.251-3.567-0.722-6.998-0.516-9.242h11.261c0.044 0.483 0.059 1.013 0.048 1.592z"></path>
<path fill="#fff" style="fill: var(--color2, #fff)" d="M10.465 25.142s-0.018-0.004-0.029-0.011c0 0.018 0 0.037-0.004 0.059 0.011 0 0.022 0 0.033-0.004 0.026 0 0.026-0.037 0-0.044zM10.351 24.169c0 0.265 0.044 0.457 0.107 0.593 0.033-0.439 0.066-0.884 0.096-1.345-0.107 0.125-0.206 0.35-0.203 0.752zM10.351 25.456c-0.206 0.195-0.383 0.637-0.147 1.301 0 0.011 0.037 0.081 0.103 0.158 0.033-0.479 0.070-0.984 0.107-1.511-0.022 0.015-0.044 0.033-0.063 0.052z"></path>
<path fill="#727273" style="fill: var(--color1, #727273)" d="M16.372 19.18v0.287h-9.268v-0.287c0-1.769 1.433-3.202 3.202-3.202h2.863c1.769 0 3.202 1.433 3.202 3.202z"></path>
<path fill="#727273" style="fill: var(--color1, #727273)" d="M7.105 20.219v7.661h9.268v-7.661h-9.268zM12.477 26.738s-0.007 0.018-0.018 0.018h-1.78s-0.741-0.004-1.061-0.49c0 0-0.177-0.273-0.081-0.674 0.092-0.372 0.571-0.538 1.087-0.597 0.018 0 0.022-0.029 0-0.037-0.214-0.059-0.674-0.228-0.818-0.637-0.184-0.538 0.184-0.8 0.398-0.892 0.21-0.092 0.49-0.129 0.789-0.136h0.7s0.018 0.011 0.018 0.018v1.382s-0.015 0.155-0.114 0.21c-0.081 0.044-0.188 0.048-0.232 0.048-0.011 0-0.018-0.007-0.018-0.018v-1.257s0.011-0.287-0.21-0.302h-0.195s-0.416 0.037-0.413 0.766c0.004 0.748 0.427 0.807 0.427 0.807s0.136 0.022 0.236 0.018c0.011 0 0.018 0.007 0.018 0.018v0.037s-0.007 0.018-0.018 0.018h-0.184s-0.31 0.026-0.475 0.184c-0.173 0.162-0.324 0.531-0.125 1.091 0 0.011 0.041 0.092 0.122 0.169 0.077 0.081 0.199 0.162 0.368 0.173 0.35 0.018 0.405-0.092 0.405-0.092s0.048-0.077 0.052-0.258v-1.223s0.007-0.018 0.018-0.018h0.733s0.018 0.011 0.018 0.018v1.319c0 0.059 0.015 0.287 0.339 0.273 0.011 0 0.018 0.007 0.018 0.018v0.052zM13.011 25.043s-0.011 0.018-0.018 0.018h-0.844s-0.018-0.007-0.018-0.018v-1.386c0-0.151 0.125-0.273 0.276-0.273h0.070s0.018 0.007 0.018 0.018v1.223s0 0.317 0.295 0.321h0.203s0.018 0.007 0.018 0.018v0.074zM13.362 24.015h-0.063s-0.015-0.004-0.018-0.015c-0.018-0.092-0.122-0.571-0.505-0.619h-0.144s-0.018-0.007-0.018-0.018v-0.066s0.011-0.018 0.018-0.018h0.129s0.221-0.004 0.372-0.276c0.114-0.206 0.129-0.302 0.125-0.343 0-0.011 0.007-0.018 0.018-0.018h0.052s0.018 0.011 0.018 0.018c0 0.122-0.018 0.785 0.029 1.334 0 0.011-0.007 0.018-0.018 0.018zM13.947 22.666s-0.007 0.018-0.018 0.018h-0.059s-0.018-0.007-0.018-0.018c-0.015-0.129-0.136-0.98-0.73-0.98h-0.409s-0.228-0.011-0.225 0.306v1.264s-0.007 0.018-0.018 0.018h-0.744s-0.018-0.007-0.018-0.018v-1.297s0.026-0.28-0.24-0.291h-0.085s-0.018-0.007-0.018-0.018v-0.037s0.011-0.018 0.018-0.018h2.565s0.018 0.007 0.018 0.018c-0.007 0.122-0.052 0.781-0.018 1.050z"></path>
<path fill="#727273" style="fill: var(--color1, #727273)" d="M7.105 28.636h9.268v2.487c0 0.483-0.391 0.877-0.877 0.877h-7.517c-0.483 0-0.877-0.394-0.877-0.877v-2.487z"></path>
<path fill="#727273" style="fill: var(--color1, #727273)" d="M10.546 12.938h2.384c0.275 0 0.497 0.223 0.497 0.497v1.297c0 0.275-0.223 0.497-0.497 0.497h-2.384c-0.275 0-0.497-0.223-0.497-0.497v-1.297c0-0.275 0.223-0.497 0.497-0.497z"></path>
<path fill="#fff" style="fill: var(--color2, #fff)" d="M6.401 20.872v0.059s-0.011 0.022-0.018 0.022h-0.099v-0.103c0.029 0.004 0.059 0.004 0.096 0 0.011 0 0.022 0.007 0.022 0.018z"></path>
<path fill="#727273" style="fill: var(--color1, #727273)" d="M3.28 2.734h4.805c0.23 0 0.416 0.186 0.416 0.416v1.474c0 0.23-0.186 0.416-0.416 0.416h-4.805c-0.23 0-0.416-0.186-0.416-0.416v-1.474c0-0.23 0.186-0.416 0.416-0.416z"></path>
<path fill="#727273" style="fill: var(--color1, #727273)" d="M7.971 1.743h-1.286v-0.785h-2.001v0.785h-1.286c-0.081 0-0.147 0.066-0.147 0.147v0.394c0 0.081 0.066 0.147 0.147 0.147h4.577c0.081 0 0.147-0.066 0.147-0.147v-0.394c0-0.081-0.066-0.147-0.147-0.147z"></path>
<path fill="#727273" style="fill: var(--color1, #727273)" d="M4.838 1.341s-1.441 0.335-1.393-0.626 1.503-0.814 7.591-0.368c0.579 0.063 0.707 0.556-0.416 0.538-0.888-0.015-3.858 0.007-4.941 0.343s-0.844 0.111-0.844 0.111z"></path>
</symbol>
<symbol id="icon-fireplace" viewBox="0 0 40 32">
<path fill="#727273" style="fill: var(--color3, #727273)" d="M36.517 5.47v17.445c-0.57 0.022-3.47 0.119-3.817-0.089-0.38-0.235 0-1.884 0-1.884s-1.087 0.145-1.527 1.705c-0.853-2.327 0.354-4.029 0.354-4.029s-2.413 0.849-3.351 3.47c0.912-5.41-2.294-6.531-3.735-6.766 1.031 1.266 2.119 4.472 0.205 6.766-1.761-3.411-0.119-4.971-0.119-4.971s-1.616-0.238-3.262 2.584c1.586-4.878-0.030-7.41-0.030-7.41s0.354 4.349-3.794 7.265c-0.235-3.117 0.060-5.027 0.060-5.027s-1.255 0.696-1.873 3.489c-0.559-2.796-2.949-2.405-3.098-3.757-0.145-1.352 0.763-2.234 0.763-2.234s-2.822 0.868-2.379 3.861c0.443 2.994 1.56 2.178 0.503 4.405-0.592-2.796-1.851-2.472-1.471-4.237-1.56 1.765-0.503 2.737-1.411 4.353-0.912 1.616-1.121 1.527-1.121 1.527s-0.175-0.853 0.030-1.441c-1.616 0.886-1.381 2.383-2.059 2.882-0.477 0.354-1.136 0.454-1.489 0.488v-18.394c0-0.998 0.812-1.813 1.813-1.813h28.995c1.002 0 1.813 0.815 1.813 1.813z"></path>
<path fill="#727273" style="fill: var(--color3, #727273)" d="M36.517 24.367v2.178c0 1.002-0.812 1.813-1.813 1.813h-28.999c-1.002 0-1.813-0.812-1.813-1.813v-1.497c1.374-0.384 8.281-2.253 14.313-2.755 1.031 1.266 1.352 2.822 1.352 2.822l-4.163 1.437c0.22-0.026 3.757-0.518 5.436-0.942-0.026-0.972-0.451-1.553-0.451-1.553s11.468-0.767 16.138 0.309z"></path>
<path fill="#727273" style="fill: var(--color3, #727273)" d="M38.114 0h-35.824c-1.262 0-2.29 1.031-2.29 2.294v27.409c0 1.27 1.028 2.294 2.29 2.294h35.82c1.27 0 2.294-1.028 2.294-2.294v-27.409c0-1.266-1.028-2.294-2.294-2.294zM37.477 26.541c0 1.53-1.244 2.774-2.774 2.774h-28.999c-1.53 0-2.774-1.244-2.774-2.774v-21.071c0-1.53 1.244-2.77 2.774-2.77h28.995c1.53 0 2.774 1.24 2.774 2.77v21.071z"></path>
</symbol>
<symbol id="icon-drinks" viewBox="0 0 24 32">
<path fill="#727273" style="fill: var(--color1, #727273)" d="M9.285 7.26h5.668v2.173h-5.668v-2.173z"></path>
<path fill="#727273" style="fill: var(--color1, #727273)" d="M9.285 11.249h5.668v5.412c0 0.105-0.087 0.188-0.188 0.188h-5.289c-0.101 0-0.188-0.083-0.188-0.188v-5.412z"></path>
<path fill="#727273" style="fill: var(--color1, #727273)" d="M18.859 10.144v2.292c0 0.513-0.415 0.931-0.928 0.931h-0.928v-4.152h0.928c0.513 0 0.928 0.419 0.928 0.931z"></path>
<path fill="#727273" style="fill: var(--color1, #727273)" d="M23.303 0h-22.213c-0.603 0-1.090 0.487-1.090 1.090v29.82c0 0.599 0.487 1.090 1.090 1.090h22.213c0.599 0 1.090-0.491 1.090-1.090v-29.82c0-0.603-0.491-1.090-1.090-1.090zM15.859 26.090h-7.484c-0.469 0-0.845-0.379-0.845-0.845s0.379-0.845 0.845-0.845h7.484c0.469 0 0.845 0.379 0.845 0.845s-0.379 0.845-0.845 0.845zM15.859 22.354h-7.484c-0.469 0-0.845-0.383-0.845-0.848s0.379-0.845 0.845-0.845h7.484c0.469 0 0.845 0.379 0.845 0.845s-0.379 0.848-0.845 0.848zM20.556 12.44c0 1.444-1.177 2.621-2.621 2.621h-1.166v1.603c0 1.108-0.903 2.004-2.004 2.004h-5.289c-1.105 0-2.004-0.899-2.004-2.004v-9.953c0-0.697 0.567-1.264 1.264-1.264h6.773c0.697 0 1.264 0.567 1.264 1.264v0.812h1.166c1.444 0 2.621 1.177 2.621 2.621v2.292z"></path>
</symbol>
<symbol id="icon-underwear" viewBox="0 0 53 32">
<path fill="#727273" style="fill: var(--color1, #727273)" d="M52.239 0h-51.542c-0.33 0-0.635 0.223-0.689 0.548-0.066 0.416 0.252 0.771 0.652 0.771h7.023c0.466 0 0.92 0.14 1.299 0.408 1.847 1.311 6.907 6.66 12.643 27.802 0.396 1.46 1.724 2.47 3.237 2.47h3.068c1.513 0 2.841-1.010 3.237-2.47 5.926-21.843 11.835-26.829 13.777-27.918 0.342-0.19 0.722-0.293 1.113-0.293h6.144c0.33 0 0.635-0.223 0.689-0.548 0.066-0.416-0.252-0.771-0.652-0.771zM28.569 18.511s-0.017 0.037-0.037 0.037h-3.802s-1.584-0.004-2.268-1.047c0 0-0.379-0.581-0.169-1.435 0.198-0.8 1.216-1.155 2.322-1.274 0.041-0.008 0.049-0.066 0.004-0.078-0.454-0.124-1.439-0.487-1.744-1.361-0.4-1.151 0.388-1.707 0.841-1.909 0.454-0.198 1.047-0.276 1.682-0.285h1.497s0.041 0.017 0.041 0.037v2.961c-0.004 0.025-0.033 0.326-0.243 0.437-0.173 0.095-0.404 0.103-0.491 0.103-0.025 0-0.041-0.017-0.041-0.041v-2.676s0.021-0.606-0.45-0.639h-0.416c-0.041 0-0.891 0.078-0.878 1.633 0.008 1.592 0.911 1.72 0.911 1.72s0.289 0.045 0.499 0.033c0.025 0 0.041 0.021 0.041 0.041v0.074c0 0.025-0.017 0.041-0.037 0.041h-0.396c-0.033 0-0.664 0.054-1.023 0.392-0.367 0.346-0.693 1.134-0.268 2.322 0 0 0.004 0 0.004 0 0.012 0.033 0.313 0.693 1.043 0.734 0.75 0.041 0.862-0.198 0.862-0.198s0.103-0.169 0.107-0.557v-2.614s0.017-0.041 0.041-0.041h1.563c0.021 0 0.037 0.021 0.037 0.041v2.812c0 0.124 0.033 0.623 0.726 0.577 0.021 0 0.041 0.021 0.041 0.041v0.115zM29.707 14.887s-0.017 0.037-0.037 0.037h-1.806c-0.021 0-0.037-0.017-0.037-0.037v-2.957c0-0.326 0.264-0.59 0.586-0.59h0.148c0.025 0 0.041 0.017 0.041 0.041v2.614s0 0.676 0.631 0.685h0.437s0.037 0.021 0.037 0.041v0.165zM30.458 12.689h-0.136s-0.033-0.012-0.037-0.033c-0.037-0.194-0.26-1.221-1.080-1.315h-0.305s-0.037-0.021-0.037-0.041v-0.144c0-0.021 0.017-0.037 0.037-0.037h0.276c0.025 0 0.47-0.008 0.796-0.59 0.247-0.441 0.276-0.652 0.272-0.73 0-0.025 0.017-0.041 0.041-0.041h0.111c0.021 0 0.041 0.017 0.041 0.041-0.008 0.256-0.041 1.678 0.058 2.849 0 0.021-0.017 0.041-0.037 0.041zM31.707 9.806c0.004 0.025-0.017 0.045-0.037 0.045h-0.124s-0.037-0.017-0.041-0.037c-0.033-0.276-0.293-2.095-1.555-2.095h-0.874s-0.487-0.021-0.474 0.656v2.693c0 0.025-0.017 0.041-0.041 0.041h-1.588s-0.037-0.017-0.037-0.041v-2.767c0-0.041 0.054-0.602-0.52-0.623h-0.181s-0.037-0.016-0.037-0.041v-0.078s0.017-0.041 0.037-0.041h5.476c0.025 0 0.041 0.021 0.041 0.045-0.017 0.26-0.111 1.666-0.045 2.243z"></path>
</symbol>
<symbol id="icon-slippers" viewBox="0 0 35 32">
<path fill="#727273" style="fill: var(--color1, #727273)" d="M1.397 7.671c-0.174 0.082-0.356 0-0.304-0.182 0.341-1.171 0.889-2.19 1.657-3.128 3.747-4.554 8.208-5.229 10.751-3.461 1.508 1.052 2.083 2.672 2.201 4.421 0.011 0.141-0.1 0.182-0.237 0.163-6.211-0.934-11.74 1.115-14.071 2.186z"></path>
<path fill="#727273" style="fill: var(--color1, #727273)" d="M15.327 23.688c0 3.828 0.148 7.234-4.080 8.116-4.228 0.886-6.293-1.39-7.086-3.743 0 0-1.078-3.117-2.042-7.026-0.059-0.241 0.111-0.452 0.322-0.582 1.705-1.027 6.322-3.198 11.729-2.401 0.267 0.041 0.523 0.178 0.56 0.445 0.263 1.849 0.593 3.787 0.593 5.192z"></path>
<path fill="#727273" style="fill: var(--color1, #727273)" d="M15.427 6.281c-5.814-0.989-11.844 1.286-14.286 2.372-0.693 0.308-1.138 0.993-1.141 1.753-0.019 5.307 0.456 7.853 0.808 9.013 0.145 0.471 0.756 0.808 1.115 0.471 1.39-1.286 7.864-3.406 12.066-2.639 0.597 0.111 1.275-0.3 1.275-0.964-0.004-5.388 0.404-6.263 0.878-8.994 0.082-0.474-0.241-0.93-0.715-1.012zM8.913 15.135l-2.242 0.13s-0.934 0.052-1.371-0.541c0 0-0.245-0.33-0.148-0.841 0.085-0.474 0.678-0.723 1.323-0.83 0.026-0.004 0.026-0.041 0-0.044-0.274-0.059-0.867-0.237-1.075-0.745-0.278-0.663 0.17-1.019 0.43-1.153 0.263-0.133 0.608-0.2 0.982-0.226l0.882-0.052s0.026 0.007 0.026 0.022l0.1 1.742s-0.007 0.196-0.126 0.271c-0.1 0.059-0.233 0.074-0.285 0.078-0.015 0-0.026-0.011-0.026-0.022l-0.093-1.579s-0.007-0.359-0.285-0.363h-0.004l-0.241 0.011c-0.026 0.004-0.523 0.082-0.467 0.997 0.063 0.938 0.597 0.982 0.597 0.982s0.174 0.019 0.3 0.004c0.011-0.004 0.022 0.007 0.022 0.022v0.044s-0.004 0.022-0.019 0.022l-0.23 0.015s-0.107 0.015-0.226 0.056c-0.122 0.037-0.263 0.104-0.363 0.211-0.208 0.215-0.371 0.693-0.082 1.379h0.004c0.007 0.022 0.208 0.397 0.641 0.397s0.5-0.145 0.5-0.145c0 0 0.056-0.104 0.044-0.33l-0.089-1.545s0.007-0.022 0.022-0.022l0.923-0.056s0.022 0.011 0.022 0.022l0.085 1.475 0.011 0.17c0 0.030 0.004 0.337 0.359 0.337 0.026 0 0.056-0.004 0.089-0.007 0.011 0 0.022 0.011 0.026 0.022v0.067s-0.007 0.026-0.019 0.026zM9.461 12.959l-1.064 0.059s-0.026-0.007-0.026-0.022l-0.1-1.742c-0.011-0.189 0.133-0.356 0.326-0.367h0.085s0.026 0.004 0.026 0.019l0.089 1.542s0.022 0.397 0.397 0.382l0.256-0.015s0.026 0.011 0.026 0.022l0.007 0.096s-0.011 0.026-0.022 0.026zM9.846 11.614h-0.078s-0.022-0.004-0.026-0.015c-0.026-0.115-0.193-0.712-0.678-0.741h-0.004l-0.178 0.011s-0.026-0.007-0.026-0.022v-0.082s0-0.026 0.019-0.026l0.163-0.011s0.271-0.007 0.448-0.374c0.13-0.267 0.141-0.393 0.133-0.437 0-0.015 0.011-0.026 0.022-0.026h0.067s0.026 0.004 0.026 0.019c0 0.152 0.033 0.989 0.133 1.675 0.004 0.015-0.007 0.026-0.022 0.030zM10.465 9.898h-0.074s-0.022-0.004-0.022-0.015c-0.030-0.163-0.248-1.227-0.989-1.182-0.511 0.030-0.515 0.030-0.515 0.030s-0.289 0.004-0.259 0.4l0.093 1.59s-0.007 0.026-0.022 0.026l-0.938 0.052s-0.022-0.007-0.022-0.019l-0.096-1.634c0.004-0.022 0.011-0.356-0.326-0.348h-0.107s-0.022-0.004-0.022-0.015v-0.048s0-0.026 0.019-0.026l3.228-0.185s0.026 0.007 0.026 0.022c0 0.156-0.007 0.986 0.052 1.327 0 0.011-0.011 0.026-0.022 0.026z"></path>
<path fill="#727273" style="fill: var(--color1, #727273)" d="M33.719 7.671c0.174 0.082 0.356 0 0.304-0.182-0.341-1.171-0.889-2.19-1.657-3.128-3.747-4.554-8.208-5.229-10.751-3.461-1.508 1.052-2.083 2.672-2.201 4.421-0.011 0.141 0.1 0.182 0.237 0.163 6.211-0.934 11.74 1.115 14.071 2.186z"></path>
<path fill="#727273" style="fill: var(--color1, #727273)" d="M19.789 23.688c0 3.828-0.148 7.234 4.080 8.116 4.228 0.886 6.293-1.39 7.086-3.743 0 0 1.078-3.117 2.042-7.026 0.059-0.241-0.111-0.452-0.322-0.582-1.705-1.027-6.322-3.198-11.729-2.401-0.267 0.041-0.523 0.178-0.56 0.445-0.263 1.849-0.593 3.787-0.593 5.192z"></path>
<path fill="#727273" style="fill: var(--color1, #727273)" d="M33.975 8.653c-2.442-1.086-8.472-3.361-14.286-2.372-0.478 0.082-0.797 0.537-0.715 1.012 0.474 2.731 0.882 3.606 0.878 8.994 0 0.663 0.674 1.075 1.271 0.964 4.206-0.767 10.68 1.353 12.066 2.639 0.363 0.337 0.975 0 1.119-0.471 0.352-1.16 0.826-3.706 0.804-9.013 0-0.76-0.445-1.445-1.138-1.753zM28.409 15.439s-0.011 0.026-0.022 0.022l-2.242-0.126s-0.934-0.056-1.301-0.693c0 0-0.208-0.356-0.052-0.852 0.141-0.463 0.756-0.641 1.408-0.674 0.026-0.004 0.033-0.037 0.007-0.044-0.263-0.089-0.834-0.337-0.986-0.86-0.196-0.693 0.289-0.997 0.563-1.101 0.274-0.1 0.623-0.13 1.001-0.111l0.882 0.048s0.022 0.011 0.022 0.026l-0.1 1.742s-0.030 0.193-0.156 0.252c-0.107 0.052-0.241 0.048-0.293 0.044-0.015 0-0.022-0.011-0.022-0.022l0.089-1.579s0.033-0.359-0.245-0.397h-0.004l-0.241-0.011s-0.145 0.004-0.278 0.122c-0.137 0.119-0.271 0.356-0.296 0.812-0.048 0.941 0.482 1.045 0.482 1.045s0.17 0.037 0.293 0.037c0.015 0 0.026 0.011 0.022 0.026v0.041s-0.011 0.026-0.026 0.022l-0.233-0.011s-0.393 0.007-0.615 0.196c-0.23 0.193-0.445 0.645-0.233 1.36 0 0.011 0.044 0.119 0.137 0.226 0.096 0.107 0.241 0.219 0.456 0.245 0.441 0.048 0.511-0.089 0.511-0.089s0.070-0.096 0.085-0.322l0.085-1.542s0.011-0.026 0.026-0.022l0.923 0.052s0.022 0.011 0.019 0.022l-0.082 1.475-0.011 0.17v0.037c0 0.093 0.030 0.345 0.408 0.345 0.015 0 0.026 0.011 0.022 0.022v0.067zM29.198 13.341s-0.011 0.022-0.022 0.022l-1.064-0.059s-0.026-0.015-0.022-0.026l0.096-1.745c0.011-0.189 0.178-0.337 0.367-0.326h0.089s0.022 0.019 0.022 0.030l-0.089 1.542s-0.022 0.4 0.352 0.426l0.256 0.015s0.022 0.011 0.022 0.026l-0.007 0.096zM29.739 12.048s-0.011 0.022-0.026 0.022h-0.078s-0.022-0.015-0.022-0.026c-0.015-0.115-0.115-0.726-0.593-0.812h-0.004l-0.178-0.011s-0.022-0.011-0.022-0.026l0.007-0.082s0.011-0.022 0.022-0.022l0.163 0.007s0.271 0.022 0.489-0.319c0.163-0.252 0.185-0.374 0.185-0.422 0-0.015 0.011-0.022 0.026-0.022h0.067s0.022 0.015 0.022 0.030c-0.015 0.148-0.082 0.989-0.059 1.682zM30.547 10.413s-0.011 0.026-0.026 0.022h-0.070s-0.022-0.011-0.022-0.026c-0.011-0.163-0.104-1.245-0.849-1.286-0.508-0.030-0.515-0.030-0.515-0.030s-0.285-0.030-0.3 0.371l-0.093 1.59s-0.011 0.022-0.022 0.022l-0.938-0.056s-0.022-0.011-0.022-0.022l0.093-1.634c0.004-0.022 0.052-0.352-0.285-0.385h-0.107s-0.022-0.015-0.019-0.030v-0.044s0.011-0.026 0.026-0.022l3.228 0.182s0.026 0.011 0.022 0.026c-0.019 0.152-0.119 0.978-0.1 1.323z"></path>
</symbol>
<symbol id="icon-couch-heating" viewBox="0 0 59 32">
<path fill="#727273" style="fill: var(--color1, #727273)" d="M23.385 8.461c0.712 1.84 1.188 3.083 0.208 4.628h-20.965c-1.451 0-2.629-1.177-2.629-2.629 0-0.723 0.29-1.386 0.767-1.857 0.476-0.476 1.134-0.772 1.862-0.772h3.094c0.449-1.041 1.484-1.774 2.695-1.774s2.245 0.734 2.689 1.774h12.038c0.082 0.219 0.159 0.427 0.241 0.63z"></path>
<path fill="#727273" style="fill: var(--color1, #727273)" d="M30.050 8.461c0.712 1.84 1.188 3.083 0.208 4.628h-5.236c0.805-1.785 0.208-3.33-0.471-5.077-0.022-0.060-0.044-0.115-0.066-0.181h5.323c0.082 0.219 0.159 0.427 0.241 0.63z"></path>
<path fill="#727273" style="fill: var(--color1, #727273)" d="M36.907 8.461c0.717 1.84 1.188 3.083 0.208 4.628h-5.433c0.805-1.785 0.208-3.33-0.465-5.077-0.022-0.060-0.044-0.115-0.066-0.181h5.515c0.082 0.219 0.164 0.427 0.241 0.63z"></path>
<path fill="#727273" style="fill: var(--color1, #727273)" d="M59.241 10.46c0 0.728-0.296 1.386-0.772 1.857-0.476 0.476-1.134 0.772-1.862 0.772h-18.062c0.805-1.785 0.208-3.33-0.465-5.077-0.027-0.060-0.049-0.115-0.071-0.181h4.524c0.723-2.087 2.705-3.587 5.038-3.587s4.316 1.501 5.033 3.587h4.003c1.457 0 2.634 1.177 2.634 2.629z"></path>
<path fill="#727273" style="fill: var(--color1, #727273)" d="M49.257 30.806c-3.795 0.712-10.789 1.194-18.796 1.194-0.285 0-0.564 0-0.843-0.005-0.279 0.005-0.559 0.005-0.843 0.005-8.001 0-14.995-0.482-18.79-1.194-1.062-0.203-1.161-1.676-0.131-2.010 0.613-0.208 1.287-0.455 1.972-0.745 4.732-2.015 10.159-6.221 2.278-13.79h8.746c-2.875 4.934-0.668 8.264-0.564 8.418 0.12 0.175 0.312 0.268 0.509 0.268 0.126 0 0.246-0.038 0.351-0.11 0.285-0.192 0.361-0.581 0.175-0.865-0.088-0.126-2.021-3.138 1.002-7.711h5.186c-2.87 4.934-0.663 8.264-0.559 8.418 0.12 0.175 0.312 0.268 0.509 0.268 0.12 0 0.246-0.038 0.351-0.11 0.29-0.192 0.367-0.581 0.175-0.865-0.088-0.126-2.021-3.133 1.002-7.711h5.384c-2.87 4.934-0.668 8.264-0.57 8.418 0.126 0.175 0.318 0.268 0.52 0.268 0.12 0 0.241-0.038 0.35-0.11 0.285-0.192 0.356-0.581 0.164-0.865-0.082-0.126-2.015-3.138 1.008-7.711h7.295c-7.881 7.569-2.459 11.775 2.273 13.79 0.69 0.29 1.364 0.537 1.977 0.745 1.024 0.334 0.926 1.807-0.131 2.010z"></path>
<path fill="#727273" style="fill: var(--color1, #727273)" d="M24.973 4.913c-0.088 0.044-0.181 0.066-0.279 0.066-0.23 0-0.449-0.126-0.559-0.345l-0.805-1.61c0.082 1.955 0.63 3.456 1.156 4.809h-1.342c-0.46-1.221-0.92-2.64-1.046-4.414l-0.602 1.216c-0.115 0.219-0.334 0.345-0.564 0.345-0.093 0-0.186-0.022-0.279-0.066-0.312-0.153-0.433-0.531-0.279-0.838l1.862-3.73c0.104-0.208 0.312-0.334 0.526-0.345h0.093c0.219 0.011 0.433 0.131 0.537 0.345l1.862 3.73c0.153 0.307 0.033 0.685-0.279 0.838z"></path>
<path fill="#727273" style="fill: var(--color1, #727273)" d="M25.023 13.089c-0.137 0.285-0.301 0.586-0.515 0.893-0.066 0.088-0.131 0.186-0.186 0.279h-1.473c0.186-0.329 0.394-0.663 0.63-0.997 0.044-0.060 0.082-0.12 0.115-0.175h1.429z"></path>
<path fill="#727273" style="fill: var(--color1, #727273)" d="M31.644 4.913c-0.093 0.044-0.192 0.066-0.279 0.066-0.23 0-0.455-0.126-0.564-0.345l-0.805-1.61c0.082 1.955 0.63 3.456 1.156 4.809h-1.342c-0.46-1.221-0.92-2.64-1.041-4.414l-0.608 1.216c-0.11 0.219-0.334 0.345-0.564 0.345-0.093 0-0.192-0.022-0.279-0.066-0.307-0.153-0.433-0.531-0.279-0.838l1.868-3.73c0.099-0.208 0.307-0.334 0.52-0.345h0.099c0.219 0.011 0.427 0.131 0.531 0.345l1.868 3.73c0.153 0.307 0.027 0.685-0.279 0.838z"></path>
<path fill="#727273" style="fill: var(--color1, #727273)" d="M31.682 13.089c-0.126 0.285-0.296 0.586-0.509 0.893-0.066 0.093-0.126 0.186-0.186 0.279h-1.479c0.192-0.329 0.4-0.663 0.635-0.997 0.044-0.060 0.082-0.12 0.115-0.175h1.424z"></path>
<path fill="#727273" style="fill: var(--color1, #727273)" d="M38.495 4.913c-0.093 0.044-0.186 0.066-0.279 0.066-0.23 0-0.449-0.126-0.564-0.345l-0.8-1.599c0.088 1.955 0.63 3.45 1.156 4.798h-1.342c-0.46-1.221-0.915-2.64-1.041-4.414l-0.608 1.216c-0.11 0.219-0.334 0.345-0.564 0.345-0.088 0-0.186-0.022-0.279-0.066-0.307-0.153-0.433-0.531-0.279-0.838l1.868-3.73c0.104-0.208 0.307-0.334 0.526-0.345h0.142s0.049 0.011 0.071 0.016c0.016 0.005 0.033 0.011 0.049 0.011 0.022 0.011 0.044 0.022 0.071 0.038 0.011 0 0.022 0.005 0.038 0.016s0.038 0.027 0.055 0.038c0.016 0.011 0.033 0.016 0.044 0.033 0.022 0.016 0.033 0.033 0.049 0.049 0.011 0.016 0.027 0.022 0.033 0.038 0.027 0.027 0.044 0.060 0.060 0.093t0.005 0.011l1.868 3.73c0.153 0.307 0.027 0.685-0.279 0.838z"></path>
<path fill="#727273" style="fill: var(--color1, #727273)" d="M38.545 13.089c-0.131 0.285-0.301 0.586-0.515 0.893-0.066 0.088-0.126 0.186-0.186 0.279h-1.473c0.186-0.329 0.4-0.663 0.635-0.997 0.038-0.060 0.077-0.12 0.11-0.175h1.429z"></path>
</symbol>
<symbol id="icon-plaid" viewBox="0 0 24 32">
<path fill="#727273" style="fill: var(--color1, #727273)" d="M23.578 0.551c-0.201-0.343-0.566-0.551-0.964-0.551h-21.047c-0.413 0-0.797 0.227-0.987 0.596-0.451 0.871-1.039 2.591-0.007 4.386 0.197 0.343 0.57 0.551 0.964 0.551h21.106c0.38 0 0.733-0.194 0.938-0.51 1.203-1.843 0.499-3.611-0.007-4.475z"></path>
<path fill="#727273" style="fill: var(--color1, #727273)" d="M1.798 23.184h20.544v-15.637h-20.544v15.637zM14.189 16.91s-0.011 0.034-0.030 0.034h-1.407s-0.030-0.015-0.030-0.034v-2.305c0-0.249 0.205-0.458 0.458-0.458h0.112s0.034 0.015 0.034 0.034v2.037s0 0.529 0.491 0.536h0.339s0.030 0.015 0.030 0.034v0.127zM14.773 15.201h-0.104s-0.030-0.011-0.034-0.026c-0.026-0.153-0.201-0.949-0.841-1.024h-0.238s-0.030-0.015-0.030-0.034v-0.112s0.011-0.034 0.030-0.034h0.216s0.361 0.011 0.622-0.458c0.194-0.343 0.212-0.506 0.209-0.57 0-0.019 0.011-0.034 0.034-0.034h0.089s0.030 0.015 0.030 0.034c-0.004 0.201-0.034 1.307 0.048 2.219 0 0.019-0.011 0.034-0.030 0.034zM11.452 11.203s0.015-0.030 0.034-0.030h4.267s0.034 0.015 0.034 0.034c-0.015 0.205-0.089 1.299-0.037 1.75 0 0.019-0.011 0.034-0.030 0.034h-0.097s-0.030-0.011-0.030-0.026c-0.026-0.216-0.231-1.634-1.21-1.634h-0.681s-0.376-0.019-0.369 0.51v2.1s-0.015 0.034-0.034 0.034h-1.236s-0.030-0.015-0.030-0.034v-2.159c0-0.030 0.041-0.469-0.402-0.484h-0.141s-0.034-0.015-0.034-0.034v-0.063zM8.414 17.83c0.153-0.622 0.949-0.897 1.809-0.994 0.034 0 0.037-0.052 0.004-0.060-0.357-0.097-1.124-0.38-1.363-1.057-0.313-0.897 0.305-1.333 0.659-1.489s0.812-0.216 1.311-0.223h1.165s0.034 0.015 0.034 0.034v2.305c0 0.019-0.026 0.249-0.19 0.339-0.134 0.074-0.313 0.082-0.383 0.082-0.019 0-0.034-0.015-0.034-0.034v-2.085s0.015-0.477-0.354-0.499h-0.324c-0.034 0-0.693 0.063-0.685 1.273 0.007 1.24 0.711 1.34 0.711 1.34s0.227 0.034 0.391 0.026c0.019 0 0.034 0.011 0.034 0.030v0.060s-0.015 0.030-0.034 0.030h-0.309c-0.026 0-0.514 0.041-0.797 0.305-0.287 0.272-0.54 0.886-0.209 1.809 0.007 0.015 0.067 0.149 0.197 0.287 0.13 0.134 0.331 0.272 0.614 0.287 0.585 0.034 0.674-0.156 0.674-0.156s0.082-0.13 0.082-0.432v-2.040s0.015-0.030 0.034-0.030h1.217s0.034 0.015 0.034 0.030v2.171c0 0.030-0.034 0.506 0.562 0.469 0.019 0 0.034 0.015 0.034 0.034v0.089s-0.015 0.034-0.034 0.034h-2.96s-1.232-0.007-1.765-0.819c0 0-0.294-0.451-0.13-1.117z"></path>
<path fill="#727273" style="fill: var(--color1, #727273)" d="M1.798 31.032c0 0.536 0.432 0.964 0.964 0.964s0.964-0.432 0.964-0.964v-2.945h1.765v2.945c0 0.536 0.432 0.964 0.964 0.964s0.964-0.432 0.964-0.964v-2.945h1.765v2.945c0 0.536 0.432 0.964 0.964 0.964s0.964-0.432 0.964-0.964v-2.945h1.783v2.945c0 0.536 0.432 0.964 0.964 0.964s0.964-0.432 0.964-0.964v-2.945h1.75v2.945c0 0.536 0.432 0.964 0.964 0.964s0.964-0.432 0.964-0.964v-2.945h1.91v2.945c0 0.536 0.432 0.964 0.964 0.964 0.268 0 0.51-0.108 0.681-0.283 0.175-0.171 0.283-0.413 0.283-0.681v-5.629h-20.544v5.629z"></path>
</symbol>
<symbol id="icon-hair-elastic" viewBox="0 0 29 32">
<path fill="#727273 " style="fill: var(--color1, #727273 )" d="M22.897 11.819c-0.239 2.137-1.087 3.828-1.345 4.542-0.593 1.658-1.993 3.485-2.015 5.452-0.007 0.984 0.295 1.418 1.555 3.419l-9.523 6.771c0.671-4.487-1.72-6.812-2.067-7.147-0.151-0.151-0.332-0.262-0.534-0.332 2.623-1.065 5.802-2.634 6.359-4.2 0.203-0.637 0.262-1.348 0.276-1.805 0.262-0.007 0.586-0.066 0.932-0.262 0.729-0.416 1.242-1.278 1.514-2.564 0.372-1.761 0.265-2.844-0.328-3.316-0.339-0.265-0.799-0.295-1.264-0.074-0.586 0.28-0.829 0.892-0.851 0.962-0.081 0.217 0.029 0.453 0.239 0.534 0.214 0.081 0.453-0.029 0.534-0.239 0.041-0.099 0.195-0.39 0.438-0.508 0.077-0.037 0.273-0.114 0.387-0.022 0.081 0.063 0.46 0.479 0.029 2.487-0.217 1.020-0.597 1.713-1.098 2.008-0.424 0.251-0.807 0.14-0.818 0.136-0.129-0.044-0.273-0.018-0.379 0.063-0.111 0.081-0.173 0.21-0.166 0.346 0 0.011 0.041 1.12-0.236 1.989-0.575 1.606-5.419 3.588-8.245 4.576-0.258 0.059-0.527 0.125-0.807 0.195-1.842 0.475-2.317-1.367-2.214-2.336-1.013-0.166-0.869-1.12-0.497-1.636-1.264-0.453-1.242-0.847-0.932-1.304 0.435-0.601-0.457-0.932-1.452-1.676-0.991-0.744 0.107-1.614 0.851-2.483 0.718-0.84 0.976-1.533 0.822-2.476-0.022 0-0.044 0-0.070 0-0.144-0.018-0.291-0.048-0.42-0.103-0.129-0.052-0.239-0.136-0.313-0.217-0.074-0.085-0.114-0.166-0.136-0.221-0.011-0.029-0.018-0.052-0.022-0.066-0.004-0.018-0.007-0.026-0.007-0.026l0.070-0.029s0.004 0.007 0.015 0.018c0.007 0.011 0.018 0.029 0.037 0.052 0.033 0.041 0.088 0.096 0.162 0.14s0.169 0.074 0.273 0.085c0.103 0.007 0.217 0 0.332-0.029 0 0 0.004 0 0.007 0-0.291-1.691-0.442-4.535 0.309-6.090 0.015-0.026 0.026-0.052 0.041-0.074 0 0 0.011-0.276 0-0.372 0 0 0.206-1.614 2.98-3.563 3.688-2.446 8.672-3.19 12.275-1.536 1.989 0.917 3.283 2.258 4.089 3.504 0.674 1.043 1.065 2.236 1.186 3.47 0.103 1.009 0.188 2.509 0.026 3.957z"></path>
<path fill="#727273 " style="fill: var(--color1, #727273 )" d="M27.421 12.986c-0.645 0.586-2.262 0.35-2.262 0.35s0.070 2.476-0.306 3.349c0.048-2.026-0.424-2.874-0.424-2.874s-0.542 2.332-1.65 3.463c0.519-1.488 0.844-2.896 1.035-4.174 0.273 0.026 0.567 0.026 0.674-0.081 0.21-0.214 0.619-5.073-0.265-6.841-0.125-0.247-0.328-0.328-0.597-0.28 0.136-0.162 1.367-1.503 3.415-0.217 2.026 1.275 2.034 5.802 0.376 7.306z"></path>
</symbol>
<symbol id="icon-music" viewBox="0 0 38 32">
<path fill="none" stroke="#727273" style="stroke: var(--color1, #727273)" stroke-linejoin="round" stroke-linecap="round" stroke-miterlimit="4" stroke-width="2.1789" d="M29.372 1.089v29.821l7.644-7.644-7.644-7.269 8.014-8.010-8.014-6.899z"></path>
<path fill="none" stroke="#727273" style="stroke: var(--color1, #727273)" stroke-linejoin="round" stroke-linecap="round" stroke-miterlimit="4" stroke-width="2.1789" d="M21.436 5.225l7.936 10.773"></path>
<path fill="none" stroke="#727273" style="stroke: var(--color1, #727273)" stroke-linejoin="round" stroke-linecap="round" stroke-miterlimit="4" stroke-width="2.1789" d="M30.069 15.305l-8.633 11.004"></path>
<path fill="#727273" style="fill: var(--color1, #727273)" d="M8.106 26.030c0 2.238-1.815 4.053-4.053 4.053s-4.053-1.815-4.053-4.053c0-2.238 1.815-4.053 4.053-4.053s4.053 1.815 4.053 4.053z"></path>
<path fill="none" stroke="#727273" style="stroke: var(--color1, #727273)" stroke-linejoin="round" stroke-linecap="round" stroke-miterlimit="4" stroke-width="1.7432" d="M7.221 26.309v-24.256"></path>
<path fill="#727273" style="fill: var(--color1, #727273)" d="M7.774 2.793s0.113 3.173 4.415 5.648c4.053 2.331 6.166 3.852 4.938 14.512-0.052 0.462-0.693 0.527-0.845 0.087-2.214-6.315-6.646-8.894-7.356-8.864-0.78 0.039-1.15 2.597-1.15 2.597v-13.98z"></path>
</symbol>
<symbol id="icon-female-treasurer" viewBox="0 0 34 32">
<path fill="#727273" style="fill: var(--color1, #727273)" d="M0 30.552s21.546 6.712 31.852-8.75c2.401-3.601 3.226-11.782 0.932-15.944-3.032-5.499-7.702-6.943-10.148-5.095-3.812 2.879-3.032 6.415 0 9.682-2.648-2.067-3.152-3.032-3.152-3.032s4.006 14.583-4.162 20.573c7.545-1.943 10.577-10.499 10.577-10.499s-4.587 18.122-25.899 13.065z"></path>
</symbol>
<symbol id="icon-dryers-shoes" viewBox="0 0 40 32">
<path fill="#727273" style="fill: var(--color1, #727273)" d="M11.692 18.498c0.063-0.085 0.114-0.166 0.159-0.243 0.903-1.42 0.922-2.658 0.546-4.070-2.99 0.911-6.039 1.597-8.145 1.895-2.758 0.391-4.122 0.424-4.071 2.85v2.352s3.757 1.364 9.144 1.936c0.317-1.036 0.796-2.146 1.486-3.326 0.262-0.457 0.549-0.925 0.881-1.39z"></path>
<path fill="#727273" style="fill: var(--color1, #727273)" d="M13.845 18.255c-0.188 0.398-0.42 0.819-0.719 1.246-0.088 0.122-0.184 0.258-0.258 0.387-0.826 1.25-1.386 2.411-1.755 3.481 2.319 0.151 4.874 0.136 7.518-0.195 0.317-1.021 0.793-2.124 1.467-3.285 0.265-0.457 0.557-0.925 0.885-1.39 0.063-0.085 0.114-0.166 0.159-0.243 1.368-2.153 0.704-3.886-0.291-6.452-0.114-0.28-0.221-0.572-0.336-0.878-0.162-0.428-0.324-0.874-0.479-1.338-1.272 1.305-3.171 2.905-5.995 4.030 0.428 1.515 0.531 3.009-0.203 4.638z"></path>
<path fill="#727273" style="fill: var(--color1, #727273)" d="M22.48 11.172c0.94 2.437 1.773 4.59 0.653 7.079-0.177 0.398-0.413 0.819-0.708 1.246-0.092 0.129-0.177 0.258-0.262 0.387-0.701 1.058-1.209 2.057-1.571 2.987 0.583-0.107 1.165-0.232 1.755-0.372 0.446-0.111 0.907-0.136 1.361-0.052 1.563 0.291 3.116 0.395 4.609 0.372 0.317-0.922 0.756-1.903 1.357-2.935 0.262-0.457 0.557-0.925 0.889-1.39 0.052-0.085 0.107-0.166 0.151-0.243 1.368-2.153 0.712-3.886-0.291-6.452-0.077-0.203-0.159-0.413-0.243-0.627-2.891 0.070-6.272-0.634-7.787-3.779-0.173-0.195-0.472 0.103-0.981 0.682 0.288 1.021 0.638 1.958 0.984 2.846 0.033 0.092 0.063 0.166 0.088 0.251z"></path>
<path fill="#727273" style="fill: var(--color1, #727273)" d="M32.701 18.255c-0.184 0.398-0.424 0.819-0.719 1.246-0.088 0.122-0.177 0.258-0.258 0.387-0.664 1.003-1.154 1.954-1.515 2.843 5.265-0.439 9.317-2.22 9.317-2.22s0.995-11.349-2.533-12.842c-0.678-0.136-0.361 2.216-2.485 2.85-0.546 0.162-1.442 0.376-2.515 0.512 0.018 0.052 0.041 0.096 0.063 0.144 0.94 2.437 1.773 4.59 0.653 7.079z"></path>
<path fill="#727273" style="fill: var(--color1, #727273)" d="M0.181 22.498s-0.409 1.674 0 2.079c0.254 0.254 2.74 1.619 8.58 2.179 0-0.782 0.092-1.644 0.306-2.581-5.173-0.553-8.886-1.678-8.886-1.678z"></path>
<path fill="#727273" style="fill: var(--color1, #727273)" d="M10.829 24.335c-0.24 0.948-0.324 1.803-0.317 2.559 2.127 0.129 4.631 0.151 7.547 0-0.007-0.785 0.070-1.652 0.277-2.596-2.607 0.243-5.166 0.21-7.503 0.033z"></path>
<path fill="#727273" style="fill: var(--color1, #727273)" d="M27.996 23.881c-1.685-0.044-3.237-0.225-4.616-0.42-1.058 0.262-2.124 0.468-3.193 0.623-0.277 1.003-0.383 1.91-0.383 2.706 1.091-0.077 2.238-0.181 3.444-0.31 1.113 0.675 2.684 1.014 4.406 1.154-0.081-1.069-0.015-2.334 0.347-3.75z"></path>
<path fill="#727273" style="fill: var(--color1, #727273)" d="M39.654 21.507c-3.477 1.667-6.832 2.268-9.844 2.367-0.446 1.504-0.509 2.802-0.402 3.842 1.467 0.022 2.964-0.052 4.329-0.147 4-0.284 6.898-1.047 5.918-6.062z"></path>
<path fill="#727273" style="fill: var(--color1, #727273)" d="M11.117 23.369c-0.612-0.041-1.213-0.092-1.788-0.155-0.103 0.328-0.188 0.653-0.262 0.966 0.572 0.059 1.158 0.114 1.762 0.159 0.077-0.31 0.173-0.634 0.288-0.966z"></path>
<path fill="#727273" style="fill: var(--color1, #727273)" d="M10.025 31.624c0.166 0.243 0.435 0.376 0.712 0.376 0.177 0 0.343-0.052 0.49-0.151 0.395-0.269 0.501-0.811 0.243-1.206-0.070-0.1-0.944-1.456-0.962-3.75-0.612-0.037-1.195-0.081-1.748-0.136-0.011 2.946 1.176 4.738 1.265 4.867z"></path>
<path fill="#727273" style="fill: var(--color1, #727273)" d="M14.048 13.613c-0.221-0.796-0.535-1.604-0.859-2.441-0.030-0.081-0.063-0.159-0.092-0.251-0.734-1.888-1.497-3.978-1.611-6.707l1.125 2.245c0.151 0.306 0.457 0.479 0.778 0.479 0.136 0 0.269-0.029 0.391-0.092 0.431-0.214 0.605-0.741 0.387-1.169l-2.596-5.199c-0.147-0.299-0.442-0.465-0.748-0.479h-0.129c-0.299 0.015-0.586 0.192-0.734 0.479l-2.596 5.202c-0.214 0.428-0.044 0.955 0.391 1.169 0.129 0.063 0.258 0.092 0.387 0.092 0.321 0 0.627-0.177 0.785-0.479l0.841-1.696c0.177 2.474 0.815 4.454 1.46 6.157 0.114 0.306 0.221 0.594 0.336 0.878 0.339 0.874 0.638 1.652 0.833 2.382 0.107-0.033 0.21-0.063 0.313-0.096 0.468-0.147 0.914-0.302 1.338-0.472z"></path>
<path fill="#727273" style="fill: var(--color1, #727273)" d="M19.32 31.624c0.17 0.243 0.435 0.376 0.712 0.376 0.166 0 0.343-0.052 0.49-0.151 0.406-0.269 0.509-0.811 0.243-1.206-0.070-0.1-0.97-1.497-0.962-3.857-0.601 0.044-1.184 0.081-1.748 0.111 0.026 2.865 1.176 4.601 1.265 4.73z"></path>
<path fill="#727273" style="fill: var(--color1, #727273)" d="M18.631 23.173c-0.122 0.387-0.221 0.763-0.299 1.128 0.616-0.055 1.235-0.129 1.858-0.218 0.111-0.387 0.243-0.793 0.406-1.209-0.66 0.122-1.313 0.221-1.962 0.299z"></path>
<path fill="#727273" style="fill: var(--color1, #727273)" d="M20.777 4.218l1.125 2.245c0.155 0.306 0.465 0.479 0.785 0.479 0.122 0 0.262-0.029 0.391-0.092 0.428-0.214 0.605-0.741 0.387-1.169l-2.603-5.202c-0.147-0.299-0.435-0.465-0.741-0.479h-0.136c-0.299 0.015-0.59 0.192-0.726 0.479l-2.603 5.202c-0.214 0.428-0.037 0.955 0.391 1.169 0.122 0.063 0.262 0.092 0.387 0.092 0.321 0 0.634-0.177 0.789-0.479l0.848-1.696c0.125 1.851 0.516 3.429 0.973 4.815 0.575-0.586 1.021-1.11 1.364-1.508-0.324-1.15-0.568-2.419-0.631-3.86z"></path>
<path fill="#727273" style="fill: var(--color1, #727273)" d="M27.996 23.881c0.586 0.015 1.195 0.015 1.814-0.007 0.111-0.369 0.24-0.748 0.398-1.143-0.616 0.052-1.25 0.081-1.899 0.088-0.125 0.361-0.229 0.715-0.317 1.062z"></path>
<path fill="#727273" style="fill: var(--color1, #727273)" d="M28.873 31.624c0.177 0.243 0.442 0.376 0.726 0.376 0.166 0 0.336-0.052 0.487-0.151 0.398-0.269 0.498-0.811 0.232-1.206-0.055-0.088-0.726-1.136-0.907-2.928-0.594-0.007-1.184-0.033-1.759-0.081 0.188 2.422 1.147 3.875 1.22 3.993z"></path>
<path fill="#727273" style="fill: var(--color1, #727273)" d="M31.952 10.921c-0.734-1.877-1.49-3.964-1.611-6.688l1.117 2.231c0.159 0.306 0.465 0.479 0.785 0.479 0.129 0 0.262-0.029 0.391-0.092 0.428-0.214 0.605-0.741 0.387-1.169l-2.603-5.202s0-0.007-0.007-0.015c-0.022-0.044-0.044-0.092-0.081-0.129-0.007-0.022-0.033-0.033-0.048-0.055-0.022-0.022-0.037-0.044-0.070-0.066-0.015-0.022-0.037-0.033-0.063-0.048-0.022-0.015-0.052-0.037-0.074-0.052s-0.041-0.022-0.052-0.022c-0.041-0.022-0.070-0.041-0.1-0.052-0.022 0-0.044-0.007-0.070-0.015-0.029-0.007-0.063-0.015-0.1-0.022h-0.199c-0.306 0.015-0.586 0.192-0.734 0.479l-2.603 5.202c-0.214 0.428-0.037 0.955 0.391 1.169 0.129 0.063 0.265 0.092 0.387 0.092 0.321 0 0.634-0.177 0.785-0.479l0.848-1.696c0.177 2.474 0.811 4.454 1.453 6.157 0.033 0.085 0.063 0.166 0.092 0.251 0.634-0.015 1.25-0.070 1.814-0.144-0.015-0.033-0.022-0.070-0.037-0.107z"></path>
</symbol>
<symbol id="icon-hair-dryer" viewBox="0 0 32 32">
<path fill="#727273" style="fill: var(--color1, #727273)" d="M13.716 8.645c0.535 2.268-0.87 4.541-3.138 5.077s-4.541-0.87-5.077-3.138c-0.535-2.268 0.87-4.541 3.138-5.077s4.541 0.87 5.077 3.138z"></path>
<path fill="#727273" style="fill: var(--color1, #727273)" d="M31.859 4.3l-11.433-2.206c-4.437-1.025-7.065-1.552-8.617-1.819-0.523-0.126-1.065-0.206-1.617-0.238-0.484-0.051-0.581-0.029-0.581-0.029-5.31-0.004-9.61 4.3-9.61 9.603 0 4.704 3.375 8.607 7.834 9.44l1.44 10.065c0.264 1.834 1.964 3.112 3.798 2.848v0c1.834-0.264 3.112-1.964 2.848-3.798l-1.354-9.48 17.292-3.213c0.238-0.043 0.408-0.253 0.408-0.491v-10.191c0-0.238-0.17-0.448-0.404-0.491zM9.61 15.393c-3.195 0-5.783-2.588-5.783-5.783s2.588-5.78 5.783-5.78 5.78 2.588 5.78 5.78-2.588 5.783-5.78 5.783z"></path>
</symbol>
<symbol id="icon-cap-head" viewBox="0 0 25 32">
<path fill="#727273" style="fill: var(--color1, #727273)" d="M13.812 20.657c0.262-0.825 0.225-1.883 0.225-1.894-0.004-0.129 0.052-0.254 0.158-0.328 0.103-0.077 0.236-0.103 0.361-0.059 0.011 0 0.372 0.111 0.777-0.129 0.284-0.166 0.527-0.468 0.718-0.888 0-0.018-0.004-0.037-0.007-0.059-0.074-0.534-0.14-1.035-0.354-1.588-0.147-0.383-0.273-0.704-0.398-0.995-0.077 0.022-0.158 0.018-0.236-0.011-0.206-0.077-0.306-0.302-0.228-0.508 0.011-0.022 0.044-0.107 0.107-0.225-0.479-0.892-1.186-1.853-2.936-4.237-2.667-3.629-5.018-3.242-5.040-3.238l-0.074 0.007c-1.253 0-2.52 0.379-3.478 0.759-0.553 0.221-1.002 0.438-1.282 0.586-0.637 1.503-0.494 4.086-0.228 5.637 0 0-0.004 0-0.007 0-0.107 0.026-0.221 0.037-0.317 0.029-0.099-0.011-0.188-0.037-0.262-0.081-0.070-0.041-0.122-0.092-0.155-0.133-0.015-0.018-0.026-0.037-0.033-0.048s-0.011-0.018-0.011-0.018l-0.066 0.029s0 0.007 0.007 0.022c0.004 0.011 0.011 0.037 0.018 0.063 0.018 0.052 0.059 0.133 0.129 0.21 0.070 0.081 0.173 0.158 0.298 0.21s0.262 0.081 0.398 0.096c0.022 0 0.044 0 0.066 0 0.144 0.895-0.099 1.555-0.781 2.35-0.707 0.825-1.75 1.65-0.807 2.358s1.79 1.020 1.378 1.592c-0.295 0.435-0.317 0.807 0.884 1.242-0.357 0.49-0.494 1.396 0.472 1.555-0.099 0.925 0.357 2.671 2.104 2.221 0.265-0.070 0.519-0.133 0.766-0.188 2.686-0.939 7.291-2.822 7.832-4.347z"></path>
<path fill="#727273" style="fill: var(--color1, #727273)" d="M18.575 22.071c-1.525-1.496-2.070-2.601-2.317-3.577-0.166 0.184-0.35 0.335-0.549 0.446-0.324 0.188-0.637 0.247-0.884 0.251-0.011 0.435-0.070 1.109-0.262 1.717-0.527 1.485-3.548 2.977-6.038 3.99 0.192 0.070 0.365 0.173 0.508 0.317 0.328 0.317 2.601 2.527 1.964 6.79l9.048-6.432c-1.197-1.901-1.485-2.314-1.477-3.249 0-0.085 0.004-0.166 0.011-0.251z"></path>
<path fill="#727273" style="fill: var(--color1, #727273)" d="M16.486 15.709c0.21-1.37-0.077-1.68-0.144-1.732-0.107-0.088-0.295-0.011-0.368 0.018-0.052 0.026-0.096 0.055-0.14 0.092 0.181 0.39 0.35 0.81 0.56 1.348 0.037 0.092 0.066 0.181 0.092 0.269z"></path>
<path fill="#727273" style="fill: var(--color1, #727273)" d="M24.746 12.511c-0.129-2.255-1.227-2.255-1.514-3.997-0.291-1.739-0.357-2.822-2.874-4.222 0.626 0.718 0.976 2.255 0.998 2.35-0.085-0.181-2.343-4.97-5.22-5.541-2.936-0.582-2.936-1.098-5.935-1.098-3.57 0-5.213 2.192-5.213 2.192s1.429-0.593 2.376-0.162c-5.939 0.707-6.16 3.448-5.836 4.576 0.324 1.131 1.739 0 1.739 0 1.046-0.667 4.159-1.356 6.547-0.033 0 0 0 0 0 0 0.84 0.523 1.798 1.367 2.785 2.708 1.286 1.75 2.023 2.752 2.52 3.533 0.129 0.199 0.239 0.383 0.343 0.56 0.052-0.033 0.107-0.066 0.166-0.092 0.438-0.21 0.873-0.184 1.201 0.070 0.564 0.446 0.667 1.474 0.309 3.15-0.081 0.379-0.184 0.718-0.306 1.024 0.037 0.236 0.077 0.479 0.14 0.726 0.052 0.217 0.122 0.438 0.217 0.674 0 0.004 0 0.007 0.004 0.011 0.332 0.895 0.774 1.566 1.326 1.993 0.070 0.074 0.136 0.147 0.206 0.221 0.004-0.022 0.011-0.044 0.018-0.066 0.847 0.523 1.938 0.508 3.283-0.129 2.999-1.418 2.84-6.193 2.712-8.451z"></path>
</symbol>
<symbol id="icon-oil" viewBox="0 0 18 32">
<path fill="#727273" style="fill: var(--color2, #727273)" d="M8.152 15.353v-1.286c0.214-0.015 0.38-0.188 0.38-0.402s-0.166-0.387-0.38-0.398v-1.017c0-0.365-0.295-0.66-0.66-0.66h-4.242c-0.365 0-0.66 0.295-0.66 0.66v1.017c-0.214 0.007-0.383 0.184-0.383 0.398s0.17 0.394 0.383 0.402v1.305c-1.209 0.38-2.082 1.507-2.082 2.838v12.438c0 0.748 0.604 1.356 1.356 1.356h7.065c0.752 0 1.356-0.608 1.356-1.356v-12.438c0-1.353-0.903-2.495-2.138-2.856zM9.317 29.973c0 0.575-0.464 1.047-1.043 1.047h-5.745c-0.575 0-1.043-0.468-1.043-1.047v-9.387c0-0.575 0.464-1.047 1.043-1.047h5.745c0.575 0 1.043 0.468 1.043 1.047v9.387z"></path>
<path fill="#727273" style="fill: var(--color2, #727273)" d="M17.668 17.697l-8.502-9.346 1.12-1.021c0.328-0.298 0.35-0.803 0.052-1.128l-2.819-3.099c-0.298-0.328-0.803-0.35-1.128-0.052l-0.453 0.413-2.572-2.83c-0.719-0.792-1.942-0.848-2.731-0.129-0.792 0.719-0.848 1.938-0.129 2.731l2.572 2.827-0.453 0.413c-0.328 0.298-0.35 0.803-0.052 1.128l2.819 3.099c0.298 0.328 0.803 0.35 1.128 0.052l0.98-0.892 8.502 9.346c0.42 0.461 1.131 0.494 1.592 0.074s0.494-1.131 0.074-1.592z"></path>
<path fill="#727273" style="fill: var(--color2, #727273)" d="M16.289 22.418c0-0.52 0.943-2.093 0.943-2.093s0.943 1.574 0.943 2.093-0.42 0.943-0.943 0.943-0.943-0.42-0.943-0.943z"></path>
<path fill="#727273" style="fill: var(--color2, #727273)" d="M4.157 22.308c-0.007 2.067 0.785 4.452 2.48 5.694-0.649-0.059-3.040-0.424-3.398-2.558-0.295-1.743 0.608-2.403 0.77-3.943 0.807 1.323 2.075 0.461 2.956 1.909 0.851 1.404-0.409 2.856-0.188 4.448-1.592-1.349-2.274-3.542-2.62-5.55z"></path>
<path fill="#727273" style="fill: var(--color2, #727273)" d="M6.637 28.005c0.103 0.007 0.162 0.011 0.162 0.011-0.011-0.052-0.018-0.107-0.026-0.158 0.17 0.144 0.346 0.276 0.542 0.398 0.265 0.203 0.586 0.317 0.881 0.475-0.586-0.14-1.106-0.391-1.559-0.726z"></path>
</symbol>
</defs>
</svg>
